<svg width="24" height="24" viewBox="0 0 24 24" fill="none" xmlns="http://www.w3.org/2000/svg">
<g id="edit">
<mask id="mask0_8173_3858" style="mask-type:alpha" maskUnits="userSpaceOnUse" x="0" y="0" width="24" height="24">
<rect id="Bounding box" width="24" height="24" fill="#D9D9D9"/>
</mask>
<g mask="url(#mask0_8173_3858)">
<path id="edit_2" d="M6.94444 17.5556H7.97361L15.0333 10.4958L14.0042 9.46667L6.94444 16.5264V17.5556ZM6.22222 19C6.01759 19 5.84606 18.9308 5.70764 18.7924C5.56921 18.6539 5.5 18.4824 5.5 18.2778V16.5264C5.5 16.3338 5.53611 16.1502 5.60833 15.9757C5.68056 15.8012 5.78287 15.6477 5.91528 15.5153L15.0333 6.41528C15.1778 6.28287 15.3373 6.18056 15.5118 6.10833C15.6863 6.03611 15.8699 6 16.0625 6C16.2551 6 16.4417 6.03611 16.6222 6.10833C16.8028 6.18056 16.9593 6.28889 17.0917 6.43333L18.0847 7.44444C18.2292 7.57685 18.3345 7.73333 18.4007 7.91389C18.4669 8.09444 18.5 8.275 18.5 8.45556C18.5 8.64815 18.4669 8.83171 18.4007 9.00625C18.3345 9.18079 18.2292 9.34028 18.0847 9.48472L8.98472 18.5847C8.85231 18.7171 8.69884 18.8194 8.52431 18.8917C8.34977 18.9639 8.1662 19 7.97361 19H6.22222ZM14.5097 9.99028L14.0042 9.46667L15.0333 10.4958L14.5097 9.99028Z" fill="white"/>
</g>
</g>
</svg>
