<svg width="78" height="46" viewBox="0 0 78 46" fill="none" xmlns="http://www.w3.org/2000/svg">
<path d="M45.0909 17.2273H64.9545V28.7273C64.9545 31.6142 62.6142 33.9546 59.7272 33.9546H50.3182C47.4312 33.9546 45.0909 31.6142 45.0909 28.7273V17.2273Z" fill="#FAFAFA" stroke="#D6D6D6" stroke-width="2.09091"/>
<path d="M43 16.1213C43 13.8452 44.8451 12 47.1213 12H50.3182V17.75C50.3182 19.7709 48.68 21.4091 46.6591 21.4091V21.4091C44.6382 21.4091 43 19.7709 43 17.75V16.1213Z" fill="#FAFAFA" stroke="#D6D6D6" stroke-width="2.09091"/>
<path d="M67.0455 16.1213C67.0455 13.8451 65.2003 12 62.9242 12H59.7273V17.75C59.7273 19.7709 61.3655 21.4091 63.3864 21.4091V21.4091C65.4072 21.4091 67.0455 19.7709 67.0455 17.75V16.1213Z" fill="#FAFAFA" stroke="#D6D6D6" stroke-width="2.09091"/>
<path d="M51.3636 12H50.3182V13.0454V16.7045C50.3182 19.3028 52.4245 21.409 55.0227 21.409C57.621 21.409 59.7273 19.3027 59.7273 16.7045V13.0454V12H58.6818H51.3636Z" fill="#FAFAFA" stroke="#D6D6D6" stroke-width="2.09091"/>
<path d="M52.4091 27.6817C52.4091 26.527 53.3453 25.5908 54.5 25.5908H55.5455C56.7003 25.5908 57.6364 26.527 57.6364 27.6817V33.9545H52.4091V27.6817Z" fill="#FAFAFA" stroke="#D6D6D6" stroke-width="2.09091"/>
</svg>
