<svg width="26" height="26" viewBox="0 0 26 26" fill="none" xmlns="http://www.w3.org/2000/svg">
<path d="M5.12988 10.0205H20.8699V20.2885C20.8699 20.7027 20.5341 21.0385 20.1199 21.0385H5.87988C5.46567 21.0385 5.12988 20.7027 5.12988 20.2885V10.0205Z" fill="#A6A6A6"/>
<path d="M19.1251 4.51172H6.87425C6.41153 4.51172 5.996 4.79505 5.82699 5.2258L3.73543 10.5563C3.62083 10.8484 3.63097 11.1799 3.78337 11.4541C5.60641 14.7347 7.5222 12.575 8.27766 11.0144C10.1665 14.9161 12.2127 12.6401 12.9997 11.0144C14.8885 14.9161 16.9347 12.6401 17.7217 11.0144C19.7454 14.5976 21.4815 12.9705 22.2594 11.4218C22.3884 11.1649 22.3852 10.8653 22.2802 10.5977L20.1723 5.2258C20.0033 4.79505 19.5878 4.51172 19.1251 4.51172Z" fill="#A6A6A6" stroke="white" stroke-linejoin="round"/>
<path d="M11.3848 17.7158C11.3848 16.8238 12.1079 16.1006 13 16.1006C13.8921 16.1006 14.6152 16.8238 14.6152 17.7158V22.1006H11.3848V17.7158Z" fill="white"/>
</svg>
