<svg width="46" height="46" viewBox="0 0 46 46" fill="none" xmlns="http://www.w3.org/2000/svg">
<path d="M13.0909 17.2273H32.9545V28.7273C32.9545 31.6142 30.6142 33.9546 27.7272 33.9546H18.3182C15.4312 33.9546 13.0909 31.6142 13.0909 28.7273V17.2273Z" fill="#FAFAFA" stroke="#D6D6D6" stroke-width="2.09091"/>
<path d="M11 16.1213C11 13.8452 12.8451 12 15.1213 12H18.3182V17.75C18.3182 19.7709 16.68 21.4091 14.6591 21.4091C12.6382 21.4091 11 19.7709 11 17.75V16.1213Z" fill="#FAFAFA" stroke="#D6D6D6" stroke-width="2.09091"/>
<path d="M35.0455 16.1213C35.0455 13.8451 33.2003 12 30.9242 12H27.7273V17.75C27.7273 19.7709 29.3655 21.4091 31.3864 21.4091C33.4072 21.4091 35.0455 19.7709 35.0455 17.75V16.1213Z" fill="#FAFAFA" stroke="#D6D6D6" stroke-width="2.09091"/>
<path d="M19.3636 12H18.3182V13.0455V16.7046C18.3182 19.3028 20.4245 21.4091 23.0227 21.4091C25.621 21.4091 27.7273 19.3028 27.7273 16.7046V13.0455V12H26.6818H19.3636Z" fill="#FAFAFA" stroke="#D6D6D6" stroke-width="2.09091"/>
<path d="M20.4091 27.6818C20.4091 26.527 21.3453 25.5909 22.5 25.5909H23.5455C24.7003 25.5909 25.6364 26.527 25.6364 27.6818V33.9545H20.4091V27.6818Z" fill="#FAFAFA" stroke="#D6D6D6" stroke-width="2.09091"/>
</svg>
