<svg width="56" height="56" viewBox="0 0 56 56" fill="none" xmlns="http://www.w3.org/2000/svg">
<g clip-path="url(#clip0_3534_62520)">
<rect width="56" height="56" rx="12" fill="#F5F5F5"/>
<g clip-path="url(#clip1_3534_62520)">
<circle cx="14.1516" cy="49.1232" r="38.675" fill="url(#paint0_linear_3534_62520)" fill-opacity="0.18"/>
<path d="M14.4513 35.3585C14.1848 34.359 14.779 33.3328 15.7784 33.0663L23.6573 30.9653C24.6567 30.6987 25.683 31.2929 25.9495 32.2924L26.1567 33.0694C26.4233 34.0688 25.8291 35.0951 24.8296 35.3616L16.9508 37.4626C15.9513 37.7291 14.925 37.135 14.6585 36.1355L14.4513 35.3585Z" fill="white"/>
<path fill-rule="evenodd" clip-rule="evenodd" d="M15.8541 18.1853C16.0813 18.1317 16.3087 18.0909 16.5355 18.0623C16.8415 17.4701 17.3865 17.0041 18.0813 16.8188C19.1198 16.5419 20.1805 16.9753 20.7476 17.8206C21.8936 17.6238 23.0224 18.2657 23.4421 19.3455C23.52 19.3159 23.6002 19.29 23.6825 19.2681C24.9899 18.9195 26.3324 19.6967 26.681 21.0041C27.0297 22.3115 26.2524 23.654 24.945 24.0026C24.5564 24.1063 24.1646 24.1104 23.7968 24.0307C24.0154 27.0686 22.0567 29.9309 19.0051 30.7447C16.0443 31.5342 13.0154 30.1389 11.6294 27.5494C11.4216 27.6824 11.19 27.786 10.9388 27.853C9.63143 28.2017 8.28894 27.4244 7.9403 26.117C7.59403 24.8185 8.35836 23.4854 9.64966 23.1257C9.4212 21.8812 10.1851 20.6503 11.4287 20.3187C11.6406 20.2622 11.8534 20.2353 12.0628 20.2354C12.0623 19.1521 12.7858 18.161 13.8821 17.8686C14.582 17.682 15.292 17.818 15.8541 18.1853Z" fill="white"/>
<g filter="url(#filter0_f_3534_62520)">
<path fill-rule="evenodd" clip-rule="evenodd" d="M22.4827 20.1032C22.4635 20.1083 22.4444 20.1137 22.4255 20.1194C21.9696 19.5016 21.1666 19.1924 20.3798 19.4022C19.7592 19.5677 19.2906 20.0182 19.0773 20.5754C18.9506 20.5952 18.8237 20.6199 18.6968 20.6494C18.2696 20.4006 17.7474 20.3154 17.232 20.4528C16.4273 20.6674 15.8783 21.3612 15.8098 22.1455C15.5895 22.125 15.362 22.1425 15.1357 22.2028C14.1085 22.4767 13.4978 23.5315 13.7717 24.5588C13.7788 24.5854 13.7864 24.6117 13.7946 24.6377C13.7743 24.6424 13.754 24.6475 13.7338 24.6529C12.7066 24.9268 12.0959 25.9816 12.3698 27.0089C12.6437 28.0361 13.6985 28.6468 14.7258 28.3729C14.9952 28.301 15.2359 28.1755 15.4395 28.0109C16.5594 29.8195 18.825 30.7548 21.0549 30.1601C23.3634 29.5445 24.8886 27.4881 24.8567 25.275C25.0915 25.3026 25.3353 25.2873 25.5776 25.2226C26.6048 24.9487 27.2155 23.8939 26.9416 22.8666C26.6898 21.9225 25.7784 21.3302 24.8349 21.4533C24.5552 20.4344 23.5053 19.8305 22.4827 20.1032Z" fill="white"/>
</g>
<path d="M8.33311 28.4396C8.15777 27.7821 8.54866 27.1069 9.20619 26.9315L26.4396 22.336C27.0972 22.1607 27.7724 22.5516 27.9477 23.2091C29.3163 28.3415 26.2652 33.6117 21.1327 34.9803L20.1043 35.2546C14.9719 36.6232 9.70174 33.572 8.33311 28.4396Z" fill="white"/>
<path d="M15.9893 34.914C15.8399 34.3536 16.173 33.7783 16.7333 33.6289L23.1588 31.9154C23.7191 31.766 24.2944 32.0991 24.4439 32.6594C24.5933 33.2198 24.2602 33.7951 23.6999 33.9445L17.2744 35.658C16.7141 35.8074 16.1387 35.4743 15.9893 34.914Z" fill="#FF7D5F"/>
<path fill-rule="evenodd" clip-rule="evenodd" d="M18.2755 18.703C17.6619 18.8666 17.197 19.3088 16.9804 19.8573C16.8496 19.8821 16.7188 19.9119 16.588 19.9467C16.588 19.9467 16.588 19.9467 16.588 19.9467C16.1617 19.7 15.6413 19.6159 15.1277 19.7528C14.3003 19.9734 13.7432 20.7006 13.7008 21.512C13.3767 21.4188 13.0239 21.4095 12.6743 21.5027C11.6471 21.7767 11.0364 22.8315 11.3103 23.8587C11.3174 23.8853 11.325 23.9116 11.3331 23.9377C11.3129 23.9424 11.2926 23.9474 11.2724 23.9528C10.2451 24.2268 9.63445 25.2816 9.90838 26.3088C10.1823 27.3361 11.2371 27.9468 12.2644 27.6728C12.6253 27.5766 12.9348 27.384 13.1725 27.13C14.2318 29.2601 16.7388 30.4112 19.2033 29.754C21.6317 29.1064 23.2217 26.9156 23.1319 24.5796C23.3556 24.6018 23.5871 24.5848 23.8172 24.5234C24.8444 24.2495 25.4551 23.1947 25.1812 22.1674C24.9072 21.1402 23.8524 20.5295 22.8252 20.8034C22.7974 20.8108 22.7699 20.8188 22.7428 20.8273C22.7381 20.8073 22.7331 20.7872 22.7278 20.7672C22.4538 19.7399 21.399 19.1292 20.3718 19.4031C20.3542 19.4078 20.3368 19.4127 20.3195 19.4179C19.8633 18.8016 19.0613 18.4934 18.2755 18.703Z" fill="white"/>
<g filter="url(#filter1_f_3534_62520)">
<path fill-rule="evenodd" clip-rule="evenodd" d="M16.4167 23.2865C16.2627 22.559 16.7766 21.8098 17.5931 21.5921C18.0871 21.4603 18.5819 21.5525 18.9463 21.8026C19.1283 21.3798 19.5236 21.0296 20.0398 20.8919C20.7793 20.6948 21.5206 20.9992 21.8238 21.584C22.6537 21.3786 23.4781 21.8012 23.6748 22.539C23.6811 22.5626 23.6867 22.5863 23.6916 22.6101C24.4813 22.4691 25.2396 22.8861 25.4272 23.5896C25.6265 24.3367 25.1066 25.124 24.2661 25.3482C24.0361 25.4095 23.806 25.4223 23.5889 25.3932C23.8416 27.3628 22.6039 29.2639 20.6326 29.7896C18.7207 30.2995 16.7632 29.3438 15.9521 27.6129C15.8184 27.692 15.6703 27.7549 15.5106 27.7974C14.6702 28.0216 13.8273 27.5976 13.6281 26.8505C13.4372 26.1346 13.9066 25.3817 14.6857 25.1229L14.6795 25.1006C14.4803 24.3535 15.0002 23.5661 15.8406 23.342C16.0352 23.2901 16.2299 23.273 16.4167 23.2865Z" fill="#E5E5E5" fill-opacity="0.52"/>
</g>
<g filter="url(#filter2_i_3534_62520)">
<path d="M10.3732 28.2092C10.2318 27.6789 10.5471 27.1344 11.0773 26.993L25.0516 23.2666C25.5819 23.1252 26.1264 23.4404 26.2678 23.9707C27.3715 28.1097 24.9109 32.3598 20.7719 33.4636L19.8661 33.7051C15.7271 34.8088 11.477 32.3482 10.3732 28.2092Z" fill="#FFC6A3"/>
</g>
<g filter="url(#filter3_d_3534_62520)">
<path fill-rule="evenodd" clip-rule="evenodd" d="M27.2791 35.2731C27.234 35.2878 27.2137 35.3387 27.2357 35.3819C27.6038 36.1037 27.7142 36.9574 27.4804 37.7791C27.0043 39.4524 25.2817 40.3593 23.6327 39.8048C21.9838 39.2503 21.0329 37.4443 21.509 35.771C21.7977 34.7562 22.5449 34.0233 23.4561 33.7273C23.5011 33.7126 23.5215 33.6617 23.4994 33.6185C23.1313 32.8967 23.021 32.043 23.2548 31.2213C23.7309 29.548 25.4535 28.6411 27.1025 29.1956C28.7514 29.7501 29.7022 31.5561 29.2262 33.2294C28.9375 34.2442 28.1903 34.9771 27.2791 35.2731Z" fill="white"/>
<ellipse cx="6.3" cy="6.65" rx="6.3" ry="6.65" transform="matrix(0.74308 -0.669202 0.667133 0.744938 22.0391 31.8008)" fill="white"/>
<ellipse cx="6.3" cy="6.65" rx="6.3" ry="6.65" transform="matrix(0.74308 -0.669202 0.667133 0.744938 19.5859 40.2002)" fill="white"/>
<ellipse cx="3.5" cy="3.675" rx="3.5" ry="3.675" transform="matrix(0.74308 -0.669202 0.667133 0.744938 18.8828 40.9004)" fill="white"/>
<ellipse cx="4.375" cy="4.55" rx="4.375" ry="4.55" transform="matrix(0.74308 -0.669202 0.667133 0.744938 27.2891 26.9004)" fill="white"/>
<ellipse cx="6.125" cy="6.475" rx="6.125" ry="6.475" transform="matrix(0.74308 -0.669202 0.667133 0.744938 31.4922 29.3506)" fill="white"/>
<path fill-rule="evenodd" clip-rule="evenodd" d="M36.6956 30.2683C36.6745 30.2349 36.6319 30.2221 36.5959 30.2381C36.4409 30.3071 36.2775 30.3636 36.1064 30.4063C35.8343 30.4742 35.5593 30.503 35.2873 30.4961C35.2422 30.495 35.2048 30.5318 35.2051 30.577C35.2131 31.9751 34.3343 33.2124 32.9587 33.5557C31.2707 33.977 29.474 32.8928 28.9454 31.1341C28.4169 29.3755 29.3568 27.6083 31.0448 27.1871C31.3169 27.1192 31.5919 27.0904 31.8639 27.0972C31.909 27.0984 31.9463 27.0616 31.9461 27.0164C31.9381 25.6183 32.8169 24.381 34.1925 24.0377C35.5751 23.6926 37.0307 24.3576 37.8025 25.576C37.8237 25.6093 37.8662 25.6222 37.9023 25.6061C38.0572 25.5372 38.2206 25.4807 38.3917 25.438C40.0796 25.0167 41.8764 26.1009 42.4049 27.8596C42.9334 29.6182 41.9935 31.3854 40.3056 31.8066C38.923 32.1516 37.4674 31.4867 36.6956 30.2683Z" fill="white"/>
<path d="M48.6154 32.3593C48.6296 32.3465 48.6303 32.3239 48.6169 32.3089C43.601 26.708 35.2265 26.0476 29.912 30.8338C24.5974 35.62 24.3552 44.0404 29.3711 49.6412C29.3845 49.6562 29.407 49.658 29.4213 49.6451L48.6154 32.3593Z" fill="white"/>
</g>
<path fill-rule="evenodd" clip-rule="evenodd" d="M28.5778 34.8453C29.0206 35.4794 29.1706 36.3061 28.9129 37.1073C28.469 38.4874 26.9834 39.2689 25.5946 38.8528C24.2059 38.4367 23.4399 36.9805 23.8838 35.6004C24.1157 34.8793 24.6321 34.3216 25.2704 34.0128C24.8276 33.3787 24.6776 32.552 24.9353 31.7509C25.3792 30.3708 26.8648 29.5893 28.2535 30.0054C29.6423 30.4215 30.4083 31.8776 29.9644 33.2577C29.7324 33.9788 29.2161 34.5365 28.5778 34.8453Z" fill="#9EB422"/>
<circle cx="5.25" cy="5.25" r="5.25" transform="matrix(0.74308 -0.669202 0.667133 0.744938 24.1328 32.499)" fill="#FF7D5F"/>
<circle cx="5.25" cy="5.25" r="5.25" transform="matrix(0.74308 -0.669202 0.667133 0.744938 22.0391 39.5)" fill="#FF7D5F"/>
<circle cx="2.8" cy="2.8" r="1.96183" transform="matrix(0.74308 -0.669202 0.667133 0.744938 21.6797 39.499)" stroke="#FFC16D" stroke-width="1.67635"/>
<circle cx="3.675" cy="3.675" r="2.83683" transform="matrix(0.74308 -0.669202 0.667133 0.744938 28.3359 28.2988)" stroke="#FFC16D" stroke-width="1.67635"/>
<circle cx="5.25" cy="5.25" r="5.25" transform="matrix(0.74308 -0.669202 0.667133 0.744938 31.4844 30.749)" fill="#FF7D5F"/>
<path fill-rule="evenodd" clip-rule="evenodd" d="M32.4404 33.7622C33.6024 33.4438 34.32 32.2809 34.1901 31.0435C34.5007 31.0826 34.8239 31.0626 35.1443 30.9748C35.3708 30.9128 35.581 30.8209 35.7719 30.7046C36.2712 31.7642 37.4751 32.3445 38.6425 32.0246C39.9475 31.667 40.7128 30.32 40.3518 29.016C39.9908 27.7119 38.6403 26.9446 37.3353 27.3022C37.1088 27.3643 36.8986 27.4561 36.7077 27.5724C36.2084 26.5129 35.0045 25.9325 33.8371 26.2524C32.7351 26.5544 32.0179 27.5619 32.0389 28.6533C31.7133 28.598 31.3744 28.6108 31.0398 28.7025C29.7348 29.0601 28.9904 30.4826 29.3772 31.8798C29.764 33.277 31.1354 34.1198 32.4404 33.7622Z" fill="#BCD728"/>
<g filter="url(#filter4_i_3534_62520)">
<path d="M45.7244 32.3802C45.7364 32.3694 45.7374 32.351 45.7267 32.3391C41.7397 27.8871 34.898 27.5289 30.4452 31.539C25.9925 35.549 25.6149 42.4088 29.6019 46.8608C29.6126 46.8727 29.6309 46.8737 29.6429 46.8629L45.7244 32.3802Z" fill="#FDDA86"/>
</g>
<path d="M8.38281 45.6087C8.38281 43.4701 8.38281 42.4008 8.79901 41.584C9.1651 40.8655 9.74926 40.2813 10.4678 39.9152C11.2846 39.499 12.3539 39.499 14.4925 39.499H21.2595C22.3819 39.499 22.9432 39.499 23.4581 39.6464C23.9142 39.7769 24.342 39.9913 24.7195 40.2785C25.1458 40.6028 25.4817 41.0523 26.1536 41.9515L26.4264 42.3166C27.0983 43.2157 27.4343 43.6653 27.8606 43.9896C28.2381 44.2768 28.6659 44.4912 29.122 44.6217C29.6369 44.769 30.1981 44.769 31.3206 44.769H40.7745H41.4732C43.6117 44.769 44.681 44.769 45.4979 45.1852C46.2164 45.5513 46.8005 46.1355 47.1666 46.854C47.5828 47.6708 47.5828 48.7401 47.5828 50.8787V63.8394C47.5828 65.978 47.5828 67.0472 47.1666 67.8641C46.8005 68.5826 46.2164 69.1667 45.4979 69.5328C44.681 69.949 43.6117 69.949 41.4732 69.949H14.4925C12.3539 69.949 11.2846 69.949 10.4678 69.5328C9.74926 69.1667 9.1651 68.5826 8.79901 67.8641C8.38281 67.0472 8.38281 65.9779 8.38281 63.8394L8.38281 45.6087Z" fill="#F8F891"/>
</g>
</g>
<defs>
<filter id="filter0_f_3534_62520" x="12.0777" y="19.1099" width="15.1572" height="11.456" filterUnits="userSpaceOnUse" color-interpolation-filters="sRGB">
<feFlood flood-opacity="0" result="BackgroundImageFix"/>
<feBlend mode="normal" in="SourceGraphic" in2="BackgroundImageFix" result="shape"/>
<feGaussianBlur stdDeviation="0.11351" result="effect1_foregroundBlur_3534_62520"/>
</filter>
<filter id="filter1_f_3534_62520" x="13.401" y="20.6471" width="12.2527" height="9.46463" filterUnits="userSpaceOnUse" color-interpolation-filters="sRGB">
<feFlood flood-opacity="0" result="BackgroundImageFix"/>
<feBlend mode="normal" in="SourceGraphic" in2="BackgroundImageFix" result="shape"/>
<feGaussianBlur stdDeviation="0.0924747" result="effect1_foregroundBlur_3534_62520"/>
</filter>
<filter id="filter2_i_3534_62520" x="10.151" y="23.0475" width="16.3803" height="10.9213" filterUnits="userSpaceOnUse" color-interpolation-filters="sRGB">
<feFlood flood-opacity="0" result="BackgroundImageFix"/>
<feBlend mode="normal" in="SourceGraphic" in2="BackgroundImageFix" result="shape"/>
<feColorMatrix in="SourceAlpha" type="matrix" values="0 0 0 0 0 0 0 0 0 0 0 0 0 0 0 0 0 0 127 0" result="hardAlpha"/>
<feOffset dx="-3.05166" dy="-0.970985"/>
<feGaussianBlur stdDeviation="0.0924747"/>
<feComposite in2="hardAlpha" operator="arithmetic" k2="-1" k3="1"/>
<feColorMatrix type="matrix" values="0 0 0 0 1 0 0 0 0 0.568627 0 0 0 0 0.466667 0 0 0 0.4 0"/>
<feBlend mode="normal" in2="shape" result="effect1_innerShadow_3534_62520"/>
</filter>
<filter id="filter3_d_3534_62520" x="20.0333" y="22.8532" width="28.9177" height="27.4226" filterUnits="userSpaceOnUse" color-interpolation-filters="sRGB">
<feFlood flood-opacity="0" result="BackgroundImageFix"/>
<feColorMatrix in="SourceAlpha" type="matrix" values="0 0 0 0 0 0 0 0 0 0 0 0 0 0 0 0 0 0 127 0" result="hardAlpha"/>
<feOffset dy="0.296408"/>
<feGaussianBlur stdDeviation="0.163025"/>
<feComposite in2="hardAlpha" operator="out"/>
<feColorMatrix type="matrix" values="0 0 0 0 0.712793 0 0 0 0 0.335462 0 0 0 0 0.254605 0 0 0 0.4 0"/>
<feBlend mode="normal" in2="BackgroundImageFix" result="effect1_dropShadow_3534_62520"/>
<feBlend mode="normal" in="SourceGraphic" in2="effect1_dropShadow_3534_62520" result="shape"/>
</filter>
<filter id="filter4_i_3534_62520" x="26.588" y="28.751" width="19.1464" height="18.3749" filterUnits="userSpaceOnUse" color-interpolation-filters="sRGB">
<feFlood flood-opacity="0" result="BackgroundImageFix"/>
<feBlend mode="normal" in="SourceGraphic" in2="BackgroundImageFix" result="shape"/>
<feColorMatrix in="SourceAlpha" type="matrix" values="0 0 0 0 0 0 0 0 0 0 0 0 0 0 0 0 0 0 127 0" result="hardAlpha"/>
<feOffset dx="-4.79515" dy="0.895095"/>
<feGaussianBlur stdDeviation="0.127871"/>
<feComposite in2="hardAlpha" operator="arithmetic" k2="-1" k3="1"/>
<feColorMatrix type="matrix" values="0 0 0 0 0.996078 0 0 0 0 0.752941 0 0 0 0 0.427451 0 0 0 0.8 0"/>
<feBlend mode="normal" in2="shape" result="effect1_innerShadow_3534_62520"/>
</filter>
<linearGradient id="paint0_linear_3534_62520" x1="14.1516" y1="10.4482" x2="14.1516" y2="98.6045" gradientUnits="userSpaceOnUse">
<stop stop-color="#F8F891"/>
<stop offset="0.37" stop-color="#737373"/>
</linearGradient>
<clipPath id="clip0_3534_62520">
<rect width="56" height="56" rx="12" fill="white"/>
</clipPath>
<clipPath id="clip1_3534_62520">
<rect width="56" height="47.95" fill="white" transform="translate(-0.03125 8.34961)"/>
</clipPath>
</defs>
</svg>
