<svg width="24" height="24" viewBox="0 0 24 24" fill="none" xmlns="http://www.w3.org/2000/svg">
<g id="delete_forever">
<mask id="mask0_8173_3852" style="mask-type:alpha" maskUnits="userSpaceOnUse" x="0" y="0" width="24" height="24">
<rect id="Bounding box" width="24" height="24" fill="#D9D9D9"/>
</mask>
<g mask="url(#mask0_8173_3852)">
<path id="delete_forever_2" d="M7.9375 19C7.49063 19 7.10807 18.8477 6.78984 18.5431C6.47161 18.2384 6.3125 17.8722 6.3125 17.4444V7.33333C6.08229 7.33333 5.88932 7.2588 5.73359 7.10972C5.57786 6.96065 5.5 6.77593 5.5 6.55556C5.5 6.33519 5.57786 6.15046 5.73359 6.00139C5.88932 5.85231 6.08229 5.77778 6.3125 5.77778H9.5625C9.5625 5.55741 9.64036 5.37269 9.79609 5.22361C9.95182 5.07454 10.1448 5 10.375 5H13.625C13.8552 5 14.0482 5.07454 14.2039 5.22361C14.3596 5.37269 14.4375 5.55741 14.4375 5.77778H17.6875C17.9177 5.77778 18.1107 5.85231 18.2664 6.00139C18.4221 6.15046 18.5 6.33519 18.5 6.55556C18.5 6.77593 18.4221 6.96065 18.2664 7.10972C18.1107 7.2588 17.9177 7.33333 17.6875 7.33333V17.4444C17.6875 17.8722 17.5284 18.2384 17.2102 18.5431C16.8919 18.8477 16.5094 19 16.0625 19H7.9375ZM16.0625 7.33333H7.9375V17.4444H16.0625V7.33333ZM12 13.4778L13.5438 14.9556C13.6927 15.0981 13.8823 15.1694 14.1125 15.1694C14.3427 15.1694 14.5323 15.0981 14.6813 14.9556C14.8302 14.813 14.9047 14.6315 14.9047 14.4111C14.9047 14.1907 14.8302 14.0093 14.6813 13.8667L13.1375 12.3889L14.6813 10.9111C14.8302 10.7685 14.9047 10.587 14.9047 10.3667C14.9047 10.1463 14.8302 9.96482 14.6813 9.82222C14.5323 9.67963 14.3427 9.60833 14.1125 9.60833C13.8823 9.60833 13.6927 9.67963 13.5438 9.82222L12 11.3L10.4562 9.82222C10.3073 9.67963 10.1177 9.60833 9.8875 9.60833C9.65729 9.60833 9.46771 9.67963 9.31875 9.82222C9.16979 9.96482 9.09531 10.1463 9.09531 10.3667C9.09531 10.587 9.16979 10.7685 9.31875 10.9111L10.8625 12.3889L9.31875 13.8667C9.16979 14.0093 9.09531 14.1907 9.09531 14.4111C9.09531 14.6315 9.16979 14.813 9.31875 14.9556C9.46771 15.0981 9.65729 15.1694 9.8875 15.1694C10.1177 15.1694 10.3073 15.0981 10.4562 14.9556L12 13.4778Z" fill="white"/>
</g>
</g>
</svg>
