<svg width="69" height="47" viewBox="0 0 69 47" fill="none" xmlns="http://www.w3.org/2000/svg">
<g clip-path="url(#clip0_4794_760)">
<rect width="69" height="47" rx="23.5" fill="#FE5A36"/>
<path d="M34.7317 6C33.6506 6 32.7741 7.03603 32.7741 8.31405V21.8793C32.7741 22.333 32.4674 22.7035 32.0836 22.7132C31.7115 22.7227 31.3972 22.3888 31.3654 21.9504L30.5211 10.2889C30.4289 9.01558 29.4809 8.07167 28.4037 8.18066C27.3265 8.28965 26.528 9.41026 26.6202 10.6836L27.4296 21.8621C27.4676 22.3861 27.1233 22.839 26.6785 22.8503C26.3575 22.8585 26.0659 22.6304 25.9467 22.278L23.7756 15.8616C23.3741 14.675 22.2349 14.0978 21.2311 14.5725C20.2273 15.0471 19.739 16.3938 20.1405 17.5804L22.8934 25.7163C23.2342 26.7236 23.4093 27.7986 23.4093 28.8835V31.5062C23.4093 34.3704 24.5038 36.9324 26.2254 38.6396C26.8908 39.2994 27.424 40.1677 27.5848 41.1523L27.5739 62.3224L38.6607 62.4L38.2367 42.2149C38.3777 41.018 39.3003 40.0672 40.1249 39.2981C40.1696 39.2564 40.2136 39.2131 40.2567 39.1682L49.1818 29.87C50.3508 28.6521 50.2524 26.4637 48.9808 25.3992C48.0654 24.6328 46.824 24.7126 45.9843 25.5918L42.1676 29.588C41.9582 29.8074 41.6468 29.6195 41.6463 29.2887L41.6406 25.5335C41.6402 25.332 41.6616 25.1312 41.7041 24.9361L44.5158 12.0226C44.7853 10.7849 44.155 9.52336 43.108 9.2048C42.061 8.88624 40.9938 9.63132 40.7243 10.869L38.3372 21.8319C38.2437 22.2616 37.9197 22.5652 37.5444 22.5747C37.0751 22.5866 36.6892 22.1402 36.6892 21.5853V8.31405C36.6892 7.03603 35.8128 6 34.7317 6Z" fill="#FFE5E3"/>
</g>
<defs>
<clipPath id="clip0_4794_760">
<rect width="69" height="47" fill="white"/>
</clipPath>
</defs>
</svg>
