<svg width="60" height="60" viewBox="0 0 60 60" fill="none" xmlns="http://www.w3.org/2000/svg">
<circle cx="30" cy="30" r="30" fill="#FF4C24"/>
<mask id="mask0_1892_49513" style="mask-type:alpha" maskUnits="userSpaceOnUse" x="0" y="0" width="60" height="60">
<circle cx="30" cy="30" r="30" fill="#D9D9D9"/>
</mask>
<g mask="url(#mask0_1892_49513)">
<path d="M19.8684 10.4954C18.7038 11.1677 18.3048 12.6568 18.9772 13.8214L26.1138 26.1823C26.3524 26.5957 26.2169 27.1241 25.8087 27.3716C25.4128 27.6116 24.8986 27.5029 24.6338 27.1231L17.5893 17.0221C16.82 15.9191 15.3023 15.6486 14.1994 16.4178C13.0964 17.187 12.8258 18.7047 13.5951 19.8077L20.3478 29.4904C20.6644 29.9442 20.5318 30.5711 20.0587 30.8579C19.7172 31.065 19.2831 31.0386 18.9693 30.7916L13.2551 26.295C12.1984 25.4635 10.6676 25.646 9.83599 26.7027C9.00442 27.7595 9.18696 29.2903 10.2437 30.1219L17.4892 35.8235C18.3863 36.5294 19.1405 37.4 19.7112 38.3886L21.091 40.7785C22.5979 43.3884 25.1247 45.0423 27.8773 45.5273C28.9411 45.7147 29.9722 46.1743 30.6634 46.9714L41.7891 66.2688L53.7722 59.4447L42.6962 41.3153C42.2184 40.137 42.712 38.6968 43.1957 37.4832C43.2219 37.4174 43.2464 37.3506 43.2692 37.2828L47.9913 23.2596C48.6098 21.4229 47.3525 19.4899 45.4228 19.3107C44.0335 19.1817 42.7383 20.0264 42.2964 21.3498L40.2876 27.3648C40.1773 27.6949 39.7431 27.7173 39.5686 27.4163L37.5868 23.998C37.4804 23.8146 37.3978 23.6184 37.3409 23.4142L33.5759 9.89854C33.2151 8.60316 31.8724 7.84557 30.577 8.20642C29.2816 8.56728 28.5241 9.90992 28.8849 11.2053L32.0812 22.6794C32.2065 23.1291 32.0172 23.6073 31.618 23.8493C31.1187 24.152 30.4682 23.9852 30.1763 23.4795L23.1944 11.3866C22.522 10.222 21.0329 9.82301 19.8684 10.4954Z" fill="url(#paint0_linear_1892_49513)"/>
</g>
<defs>
<linearGradient id="paint0_linear_1892_49513" x1="20.1574" y1="10.3285" x2="52.5" y2="66" gradientUnits="userSpaceOnUse">
<stop offset="0.620369" stop-color="#FFE5E3"/>
<stop offset="1" stop-color="#FFE5E3" stop-opacity="0.8"/>
</linearGradient>
</defs>
</svg>
