<svg width="469" height="468" viewBox="0 0 469 468" fill="none" xmlns="http://www.w3.org/2000/svg">
<rect x="340.938" y="176.549" width="8.13208" height="3.61426" fill="#D9D9D9"/>
<rect x="340.938" y="238" width="8.13208" height="3.61426" fill="#D9D9D9"/>
<rect x="90.6484" y="143.117" width="252.998" height="317.151" fill="#F5F5F5"/>
<rect x="116" y="178" width="68" height="138" rx="4" fill="#E5E5E5"/>
<path d="M127 249C127 247.895 127.895 247 129 247V247C130.105 247 131 247.895 131 249V261C131 262.105 130.105 263 129 263V263C127.895 263 127 262.105 127 261V249Z" fill="#D6D6D6"/>
<rect x="197.266" y="178.356" width="129.21" height="62" rx="4" fill="#E5E5E5"/>
<path d="M349.07 147.635H385.213L389.731 150.346V266.906H349.07V147.635Z" fill="#D6D6D6"/>
<path d="M231.734 88H259.745L264.263 140.407H233.542L231.734 88Z" fill="#FFFDF2"/>
<path d="M174.81 88H203.724L201.916 140.407H171.195L174.81 88Z" fill="#FFFDF2"/>
<path d="M203.721 88H231.732L233.539 140.407H201.914L203.721 88Z" fill="#EE5939"/>
<path d="M233.539 140.407C233.539 147.892 239.607 153.96 247.093 153.96H250.707C258.192 153.96 264.26 147.892 264.26 140.407V140.407H233.539V140.407Z" fill="#DEDAC5"/>
<path d="M288.938 88.4102H314.237L326.394 140.16H295.345L288.938 88.4102Z" fill="#FFFDF2"/>
<path d="M260.195 88.4102H288.945L295.352 140.16H264.302L260.195 88.4102Z" fill="#EE5939"/>
<path d="M314.234 88.4102H336.084L357.441 140.16H326.391L314.234 88.4102Z" fill="#EE5939"/>
<path d="M295.344 140.16C295.344 147.782 301.522 153.96 309.144 153.96H312.594C320.215 153.96 326.393 147.782 326.393 140.16V140.16H295.344V140.16Z" fill="#DEDAC5"/>
<path d="M264.297 140.16C264.297 147.782 270.475 153.96 278.097 153.96H281.547C289.168 153.96 295.347 147.782 295.347 140.16V140.16H264.297V140.16Z" fill="#D1482A"/>
<path d="M326.398 140.16C326.398 147.782 332.577 153.96 340.198 153.96H343.648C351.27 153.96 357.448 147.782 357.448 140.16V140.16H326.398V140.16Z" fill="#D1482A"/>
<path d="M148.312 88.4102H123.013L109.049 140.16H140.098L148.312 88.4102Z" fill="#FFFDF2"/>
<path d="M174.766 88.4102H148.316L140.102 140.16H171.151L174.766 88.4102Z" fill="#EE5939"/>
<path d="M122.109 88.4102H100.26L77.999 140.16H109.049L122.109 88.4102Z" fill="#EE5939"/>
<path d="M140.094 140.16C140.094 147.782 133.915 153.96 126.294 153.96H122.844C115.222 153.96 109.044 147.782 109.044 140.16V140.16H140.094V140.16Z" fill="#DEDAC5"/>
<path d="M171.148 140.16C171.148 147.782 164.97 153.96 157.349 153.96H153.899C146.277 153.96 140.099 147.782 140.099 140.16V140.16H171.148V140.16Z" fill="#D1482A"/>
<path d="M109.055 140.16C109.055 147.782 102.876 153.96 95.2548 153.96H91.8048C84.1834 153.96 78.0049 147.782 78.0049 140.16V140.16H109.055V140.16Z" fill="#D1482A"/>
<path d="M171.195 140.407C171.195 147.892 177.263 153.96 184.749 153.96H188.363C195.848 153.96 201.916 147.892 201.916 140.407V140.407H171.195V140.407Z" fill="#DEDAC5"/>
<path d="M201.914 140.407C201.914 147.892 207.982 153.96 215.468 153.96H219.985C227.471 153.96 233.539 147.892 233.539 140.407V140.407H201.914V140.407Z" fill="#D1482A"/>
<path d="M96.9766 88H338.228V95.2285H96.9766V88Z" fill="#B88261"/>
</svg>
