<svg width="56" height="56" viewBox="0 0 56 56" fill="none" xmlns="http://www.w3.org/2000/svg">
<rect width="56" height="56" rx="12" fill="#FF4C24"/>
<g clip-path="url(#clip0_3913_178471)">
<path d="M8.75 46.6595C8.75 44.5209 8.75 43.4516 9.1662 42.6348C9.53229 41.9163 10.1165 41.3321 10.835 40.966C11.6518 40.5498 12.7211 40.5498 14.8597 40.5498H21.6267C22.7491 40.5498 23.3104 40.5498 23.8253 40.6972C24.2814 40.8277 24.7091 41.042 25.0867 41.3293C25.513 41.6535 25.8489 42.1031 26.5208 43.0023L26.7936 43.3673C27.4655 44.2665 27.8015 44.7161 28.2278 45.0404C28.6053 45.3276 29.0331 45.5419 29.4891 45.6725C30.0041 45.8198 30.5653 45.8198 31.6878 45.8198H41.1417H41.8403C43.9789 45.8198 45.0482 45.8198 45.865 46.236C46.5835 46.6021 47.1677 47.1863 47.5338 47.9048C47.95 48.7216 47.95 49.7909 47.95 51.9295V64.8902C47.95 67.0287 47.95 68.098 47.5338 68.9149C47.1677 69.6334 46.5835 70.2175 45.865 70.5836C45.0482 70.9998 43.9789 70.9998 41.8403 70.9998H14.8597C12.7211 70.9998 11.6518 70.9998 10.835 70.5836C10.1165 70.2175 9.53229 69.6334 9.1662 68.9149C8.75 68.098 8.75 67.0287 8.75 64.8902L8.75 46.6595Z" fill="#F8F891"/>
<path d="M20.6533 34.0347C20.6533 32.8004 21.6539 31.7998 22.8882 31.7998H32.7684C34.0027 31.7998 35.0033 32.8004 35.0033 34.0347L35.0033 34.8149C35.0033 36.0492 34.0027 37.0498 32.7684 37.0498H22.8882C21.6539 37.0498 20.6533 36.0492 20.6533 34.8149L20.6533 34.0347Z" fill="white"/>
<path fill-rule="evenodd" clip-rule="evenodd" d="M33.5972 15.6984C33.5567 15.6984 33.5164 15.6994 33.4764 15.7012C33.1254 14.4838 32.0594 13.5986 30.7987 13.5986C29.9313 13.5986 29.156 14.0177 28.6424 14.6757C28.4432 14.6591 28.2418 14.6502 28.0385 14.6491C27.5249 14.0064 26.7589 13.5986 25.9032 13.5986C24.5599 13.5986 23.4375 14.6037 23.1659 15.9447C22.8237 15.7863 22.4458 15.6984 22.0487 15.6984C20.5575 15.6984 19.3386 16.937 19.2534 18.4986L19.2502 18.4986C17.7038 18.4986 16.4502 19.8306 16.4502 21.4736C16.4502 23.1167 17.7038 24.4486 19.2502 24.4486C19.7014 24.4486 20.1276 24.3352 20.5051 24.1338C21.3101 27.5258 24.359 30.049 27.9972 30.049C31.6364 30.049 34.6859 27.5244 35.4899 24.131C35.8687 24.3342 36.2969 24.4486 36.7502 24.4486C38.2966 24.4486 39.5502 23.1167 39.5502 21.4736C39.5502 19.8306 38.2966 18.4986 36.7502 18.4986C36.6294 18.4986 36.5104 18.5068 36.3936 18.5225C36.3197 16.9496 35.0959 15.6984 33.5972 15.6984Z" fill="white"/>
<g filter="url(#filter0_f_3913_178471)">
<path fill-rule="evenodd" clip-rule="evenodd" d="M32.025 17.7993C31.3646 17.7993 30.7699 18.0807 30.3543 18.5302C30.297 18.5244 30.2395 18.5194 30.1818 18.5152C29.7669 18.0745 29.1781 17.7993 28.525 17.7993C27.4968 17.7993 26.6279 18.4814 26.3461 19.4178C26.0509 19.2777 25.7206 19.1993 25.372 19.1993C24.1155 19.1993 23.097 20.2179 23.097 21.4743C23.097 21.5352 23.0994 21.5956 23.1041 21.6553C21.9275 21.7427 21 22.725 21 23.9239C21 25.1804 22.0186 26.1989 23.275 26.1989C23.5369 26.1989 23.7885 26.1547 24.0227 26.0732C24.7293 28.5702 27.0252 30.3997 29.7485 30.3997C32.5213 30.3997 34.8511 28.503 35.5113 25.9363C35.8284 26.104 36.1898 26.1989 36.5735 26.1989C37.8299 26.1989 38.8485 25.1804 38.8485 23.9239C38.8485 22.725 37.921 21.7427 36.7444 21.6553C36.7491 21.5956 36.7515 21.5352 36.7515 21.4743C36.7515 20.2179 35.733 19.1993 34.4765 19.1993C34.3608 19.1993 34.2471 19.208 34.136 19.2246C33.7994 18.3891 32.9811 17.7993 32.025 17.7993Z" fill="white"/>
</g>
<path d="M15.75 24.2091C15.75 23.375 16.4262 22.6987 17.2604 22.6987L38.3896 22.6987C39.2238 22.6987 39.9 23.375 39.9 24.2091C39.9 30.7203 34.6216 35.9987 28.1104 35.9987H27.5396C21.0284 35.9987 15.75 30.7203 15.75 24.2091Z" fill="white"/>
<path d="M22.75 24.7998H33.25" stroke="#FF4C24" stroke-width="1.58753" stroke-linecap="round"/>
<path d="M28 30.0498V19.5498" stroke="#FF4C24" stroke-width="1.58753" stroke-linecap="round"/>
</g>
<defs>
<filter id="filter0_f_3913_178471" x="20.7291" y="17.5284" width="18.3904" height="13.1424" filterUnits="userSpaceOnUse" color-interpolation-filters="sRGB">
<feFlood flood-opacity="0" result="BackgroundImageFix"/>
<feBlend mode="normal" in="SourceGraphic" in2="BackgroundImageFix" result="shape"/>
<feGaussianBlur stdDeviation="0.135449" result="effect1_foregroundBlur_3913_178471"/>
</filter>
<clipPath id="clip0_3913_178471">
<rect width="56" height="47.95" fill="white" transform="translate(0 8)"/>
</clipPath>
</defs>
</svg>
