<svg width="24" height="24" viewBox="0 0 24 24" fill="none" xmlns="http://www.w3.org/2000/svg">
<mask id="mask0_1844_21489" style="mask-type:alpha" maskUnits="userSpaceOnUse" x="0" y="0" width="24" height="24">
<rect x="24" width="24" height="24" transform="rotate(90 24 0)" fill="#D9D9D9"/>
</mask>
<g mask="url(#mask0_1844_21489)">
<path d="M12.5 12.4618L16.3475 8.29389C16.5284 8.09796 16.7586 8 17.0381 8C17.3176 8 17.5478 8.09796 17.7287 8.29389C17.9096 8.48982 18 8.73919 18 9.04198C18 9.34478 17.9096 9.59415 17.7287 9.79008L13.1906 14.7061C13.0919 14.813 12.9851 14.8887 12.87 14.9332C12.7549 14.9777 12.6315 15 12.5 15C12.3685 15 12.2451 14.9777 12.13 14.9332C12.0149 14.8887 11.9081 14.813 11.8094 14.7061L7.2713 9.79008C7.09043 9.59415 7 9.34478 7 9.04198C7 8.73919 7.09043 8.48982 7.2713 8.29389C7.45217 8.09796 7.68236 8 7.96188 8C8.24141 8 8.4716 8.09796 8.65247 8.29389L12.5 12.4618Z" fill="#A6A6A6"/>
</g>
</svg>
