<svg width="26" height="34" viewBox="0 0 26 34" fill="none" xmlns="http://www.w3.org/2000/svg">
<path d="M26 13.0481C26 20.2544 15 29.9852 13 34C11 29.9852 0 20.2544 0 13.0481C0 5.84184 5.8203 0 13 0C20.1797 0 26 5.84184 26 13.0481Z" fill="#56D1B4" fill-opacity="0.95"/>
<path d="M25 13.0481C25 14.6118 24.3972 16.4 23.368 18.3261C22.3454 20.2399 20.9484 22.2049 19.4623 24.1047C18.4043 25.4574 17.3211 26.7525 16.3057 27.9664C15.8917 28.4613 15.489 28.9428 15.1039 29.4092C14.3136 30.3662 13.5796 31.28 13 32.1027C12.4204 31.28 11.6864 30.3662 10.8961 29.4092C10.511 28.9428 10.1083 28.4613 9.69428 27.9664C8.67895 26.7525 7.59571 25.4574 6.53766 24.1047C5.05159 22.2049 3.65463 20.2399 2.63198 18.3261C1.60276 16.4 1 14.6118 1 13.0481C1 6.39063 6.37606 1 13 1C19.6239 1 25 6.39063 25 13.0481Z" stroke="black" stroke-opacity="0.05" stroke-width="2"/>
<path fill-rule="evenodd" clip-rule="evenodd" d="M18.9415 10.7705H7.05957V19.2854C7.05957 19.6996 7.39536 20.0354 7.80957 20.0354H18.1915C18.6057 20.0354 18.9415 19.6996 18.9415 19.2854V10.7705ZM13.0003 15.8811C12.0444 15.8811 11.2695 16.656 11.2695 17.6119V20.0353H14.7311V17.6119C14.7311 16.656 13.9562 15.8811 13.0003 15.8811Z" fill="white"/>
<path d="M17.7036 6.13867H8.29635C7.83215 6.13867 7.41561 6.42379 7.24761 6.85653L5.67623 10.9042C5.56378 11.1939 5.5725 11.5225 5.72637 11.7925C7.1604 14.3081 8.65633 12.5977 9.25 11.3582C10.75 14.4899 12.375 12.6631 13 11.3582C14.5 14.4899 16.125 12.6631 16.75 11.3582C18.3248 14.1763 19.6802 12.9792 20.3154 11.7604C20.4469 11.508 20.4427 11.2107 20.3397 10.9453L18.7524 6.85653C18.5844 6.42379 18.1679 6.13867 17.7036 6.13867Z" fill="white" stroke="#56D1B4" stroke-opacity="0.95" stroke-linejoin="round"/>
</svg>
