<svg width="42" height="51" viewBox="0 0 42 51" fill="none" xmlns="http://www.w3.org/2000/svg">
<g filter="url(#filter0_d_2649_36887)">
<path d="M37 18.1075C37 25.4165 27.4252 36.9121 23.0893 41.743C21.9611 43 20.0389 43 18.9107 41.743C14.5748 36.9121 5 25.4165 5 18.1075C5 8.6593 12.1634 1 21 1C29.8366 1 37 8.6593 37 18.1075Z" fill="#FFFFEB" stroke="#CDCD48" stroke-width="0.5"/>
<rect x="13.6001" y="13.6909" width="13.8" height="13.8" rx="2.59091" fill="#FFD7CE"/>
<path d="M17.3638 10.7636H23.6365V16.6182H17.3638V10.7636Z" fill="#FFFDF2"/>
<rect x="13.6001" y="9.92728" width="13.8" height="0.836364" fill="#B88261"/>
<path d="M13.6 10.7636H18.2L17.3637 16.6182H11.0909L13.6 10.7636Z" fill="#EE5939"/>
<path d="M27.4001 10.7636H22.8001L23.6365 16.6182H29.9092L27.4001 10.7636Z" fill="#EE5939"/>
<path d="M11.0909 16.6182H17.3637C17.3637 18.0039 16.2403 19.1273 14.8546 19.1273H13.6C12.2143 19.1273 11.0909 18.0039 11.0909 16.6182Z" fill="#D1482A"/>
<path d="M17.3638 16.6182H23.6365C23.6365 18.0039 22.5131 19.1273 21.1274 19.1273H19.8729C18.4871 19.1273 17.3638 18.0039 17.3638 16.6182Z" fill="#D1CFC6"/>
<path d="M23.6365 16.6182H29.9092C29.9092 18.0039 28.7858 19.1273 27.4001 19.1273H26.1456C24.7598 19.1273 23.6365 18.0039 23.6365 16.6182Z" fill="#D1482A"/>
<path d="M18.6183 23.7273C18.6183 22.5725 19.5544 21.6364 20.7092 21.6364C21.864 21.6364 22.8001 22.5725 22.8001 23.7273V27.0189C22.8001 27.0486 22.776 27.0727 22.7463 27.0727H18.6721C18.6424 27.0727 18.6183 27.0486 18.6183 27.0189V23.7273Z" fill="#D1482A"/>
</g>
<defs>
<filter id="filter0_d_2649_36887" x="0.75" y="0.75" width="40.5" height="51.25" filterUnits="userSpaceOnUse" color-interpolation-filters="sRGB">
<feFlood flood-opacity="0" result="BackgroundImageFix"/>
<feColorMatrix in="SourceAlpha" type="matrix" values="0 0 0 0 0 0 0 0 0 0 0 0 0 0 0 0 0 0 127 0" result="hardAlpha"/>
<feOffset dy="4"/>
<feGaussianBlur stdDeviation="2"/>
<feComposite in2="hardAlpha" operator="out"/>
<feColorMatrix type="matrix" values="0 0 0 0 0 0 0 0 0 0 0 0 0 0 0 0 0 0 0.12 0"/>
<feBlend mode="normal" in2="BackgroundImageFix" result="effect1_dropShadow_2649_36887"/>
<feBlend mode="normal" in="SourceGraphic" in2="effect1_dropShadow_2649_36887" result="shape"/>
</filter>
</defs>
</svg>
