<svg width="56" height="56" viewBox="0 0 56 56" fill="none" xmlns="http://www.w3.org/2000/svg">
<g clip-path="url(#clip0_3913_178547)">
<g clip-path="url(#clip1_3913_178547)">
<circle cx="14.1555" cy="49.1237" r="38.675" fill="url(#paint0_linear_3913_178547)" fill-opacity="0.18"/>
<path d="M14.4533 35.3585C14.1868 34.359 14.7809 33.3328 15.7804 33.0663L23.6592 30.9653C24.6587 30.6987 25.685 31.2929 25.9515 32.2924L26.1587 33.0694C26.4252 34.0688 25.831 35.0951 24.8316 35.3616L16.9527 37.4626C15.9533 37.7291 14.927 37.135 14.6605 36.1355L14.4533 35.3585Z" fill="white"/>
<path fill-rule="evenodd" clip-rule="evenodd" d="M15.858 18.1848C16.0852 18.1312 16.3126 18.0904 16.5394 18.0618C16.8454 17.4696 17.3904 17.0036 18.0852 16.8183C19.1237 16.5414 20.1844 16.9749 20.7515 17.8201C21.8975 17.6234 23.0263 18.2652 23.446 19.345C23.5239 19.3154 23.6041 19.2895 23.6864 19.2676C24.9938 18.919 26.3363 19.6962 26.6849 21.0036C27.0336 22.311 26.2563 23.6535 24.9489 24.0022C24.5603 24.1058 24.1685 24.1099 23.8007 24.0303C24.0193 27.0681 22.0606 29.9305 19.009 30.7442C16.0482 31.5337 13.0193 30.1384 11.6333 27.5489C11.4255 27.6819 11.1939 27.7856 10.9427 27.8525C9.63534 28.2012 8.29284 27.4239 7.9442 26.1165C7.59794 24.818 8.36226 23.4849 9.65356 23.1252C9.42511 21.8807 10.189 20.6499 11.4326 20.3182C11.6445 20.2617 11.8573 20.2348 12.0667 20.2349C12.0662 19.1516 12.7897 18.1605 13.886 17.8681C14.5859 17.6815 15.2959 17.8175 15.858 18.1848Z" fill="white"/>
<g filter="url(#filter0_f_3913_178547)">
<path fill-rule="evenodd" clip-rule="evenodd" d="M22.4856 20.1037C22.4664 20.1088 22.4473 20.1142 22.4284 20.1199C21.9725 19.502 21.1695 19.1929 20.3827 19.4027C19.7621 19.5682 19.2936 20.0187 19.0803 20.5759C18.9535 20.5957 18.8266 20.6203 18.6997 20.6498C18.2726 20.4011 17.7503 20.3159 17.235 20.4533C16.4303 20.6679 15.8812 21.3617 15.8127 22.146C15.5925 22.1255 15.3649 22.1429 15.1387 22.2033C14.1114 22.4772 13.5007 23.532 13.7747 24.5593C13.7818 24.5859 13.7894 24.6122 13.7975 24.6382C13.7772 24.6429 13.757 24.648 13.7367 24.6534C12.7095 24.9273 12.0988 25.9821 12.3727 27.0094C12.6467 28.0366 13.7015 28.6473 14.7287 28.3734C14.9981 28.3015 15.2388 28.176 15.4425 28.0114C16.5623 29.82 18.8279 30.7553 21.0579 30.1606C23.3664 29.545 24.8916 27.4886 24.8596 25.2755C25.0944 25.3031 25.3382 25.2877 25.5805 25.2231C26.6078 24.9492 27.2185 23.8944 26.9445 22.8671C26.6928 21.923 25.7813 21.3307 24.8379 21.4538C24.5582 20.4349 23.5082 19.831 22.4856 20.1037Z" fill="white"/>
</g>
<path d="M8.33506 28.4401C8.15972 27.7825 8.55061 27.1074 9.20814 26.932L26.4416 22.3365C27.0991 22.1612 27.7743 22.5521 27.9496 23.2096C29.3183 28.342 26.2671 33.6122 21.1347 34.9808L20.1063 35.255C14.9739 36.6237 9.70369 33.5725 8.33506 28.4401Z" fill="white"/>
<path d="M15.9903 34.913C15.8409 34.3527 16.174 33.7773 16.7343 33.6279L23.1597 31.9145C23.7201 31.765 24.2954 32.0981 24.4448 32.6585C24.5942 33.2188 24.2611 33.7941 23.7008 33.9436L17.2754 35.657C16.715 35.8064 16.1397 35.4733 15.9903 34.913Z" fill="#FF7D5F"/>
<path fill-rule="evenodd" clip-rule="evenodd" d="M18.2794 18.7025C17.6658 18.8661 17.2009 19.3083 16.9843 19.8568C16.8535 19.8816 16.7227 19.9114 16.5919 19.9462C16.5919 19.9462 16.5919 19.9462 16.5919 19.9462C16.1656 19.6995 15.6452 19.6154 15.1316 19.7523C14.3043 19.9729 13.7471 20.7001 13.7047 21.5115C13.3806 21.4183 13.0278 21.409 12.6782 21.5023C11.651 21.7762 11.0403 22.831 11.3142 23.8583C11.3213 23.8848 11.3289 23.9112 11.3371 23.9372C11.3168 23.9419 11.2965 23.947 11.2763 23.9523C10.249 24.2263 9.63836 25.2811 9.91229 26.3083C10.1862 27.3356 11.241 27.9463 12.2683 27.6724C12.6292 27.5761 12.9387 27.3835 13.1764 27.1295C14.2357 29.2596 16.7427 30.4107 19.2072 29.7535C21.6356 29.1059 23.2257 26.9151 23.1358 24.5791C23.3595 24.6013 23.591 24.5843 23.8211 24.523C24.8483 24.249 25.459 23.1942 25.1851 22.167C24.9111 21.1397 23.8563 20.529 22.8291 20.8029C22.8013 20.8103 22.7739 20.8183 22.7467 20.8268C22.742 20.8068 22.737 20.7867 22.7317 20.7667C22.4577 19.7394 21.4029 19.1287 20.3757 19.4027C20.3581 19.4073 20.3407 19.4123 20.3234 19.4174C19.8672 18.8011 19.0652 18.493 18.2794 18.7025Z" fill="white"/>
<g filter="url(#filter1_f_3913_178547)">
<path fill-rule="evenodd" clip-rule="evenodd" d="M16.4157 23.286C16.2617 22.5585 16.7756 21.8093 17.5921 21.5916C18.0861 21.4599 18.5809 21.552 18.9454 21.8021C19.1273 21.3793 19.5226 21.0291 20.0389 20.8914C20.7783 20.6943 21.5196 20.9987 21.8228 21.5835C22.6527 21.3781 23.4771 21.8007 23.6738 22.5385C23.6801 22.5622 23.6857 22.5859 23.6906 22.6096C24.4803 22.4686 25.2387 22.8856 25.4263 23.5891C25.6255 24.3362 25.1056 25.1236 24.2652 25.3477C24.0352 25.409 23.805 25.4218 23.5879 25.3927C23.8406 27.3623 22.603 29.2635 20.6316 29.7892C18.7197 30.299 16.7622 29.3433 15.9512 27.6124C15.8174 27.6915 15.6693 27.7544 15.5097 27.7969C14.6692 28.0211 13.8263 27.5971 13.6271 26.85C13.4362 26.1341 13.9056 25.3812 14.6847 25.1224L14.6786 25.1001C14.4793 24.353 14.9992 23.5657 15.8397 23.3415C16.0342 23.2897 16.2289 23.2725 16.4157 23.286Z" fill="#E5E5E5" fill-opacity="0.52"/>
</g>
<g filter="url(#filter2_i_3913_178547)">
<path d="M10.3761 28.2082C10.2347 27.6779 10.55 27.1334 11.0802 26.992L25.0546 23.2656C25.5848 23.1242 26.1293 23.4394 26.2707 23.9697C27.3745 28.1087 24.9138 32.3589 20.7748 33.4626L19.8691 33.7041C15.73 34.8079 11.4799 32.3472 10.3761 28.2082Z" fill="#FFC6A3"/>
</g>
<g filter="url(#filter3_d_3913_178547)">
<path fill-rule="evenodd" clip-rule="evenodd" d="M27.2771 35.2727C27.2321 35.2873 27.2118 35.3382 27.2338 35.3814C27.6019 36.1032 27.7122 36.9569 27.4784 37.7786C27.0024 39.4519 25.2797 40.3589 23.6308 39.8043C21.9818 39.2498 21.031 37.4438 21.507 35.7705C21.7957 34.7557 22.543 34.0228 23.4542 33.7268C23.4992 33.7121 23.5195 33.6612 23.4975 33.618C23.1294 32.8962 23.0191 32.0425 23.2528 31.2208C23.7289 29.5475 25.4516 28.6406 27.1005 29.1951C28.7495 29.7496 29.7003 31.5556 29.2242 33.2289C28.9355 34.2437 28.1883 34.9766 27.2771 35.2727Z" fill="white"/>
<ellipse cx="6.3" cy="6.65" rx="6.3" ry="6.65" transform="matrix(0.74308 -0.669202 0.667133 0.744938 22.04 31.7998)" fill="white"/>
<ellipse cx="6.3" cy="6.65" rx="6.3" ry="6.65" transform="matrix(0.74308 -0.669202 0.667133 0.744938 19.5869 40.2002)" fill="white"/>
<ellipse cx="3.5" cy="3.675" rx="3.5" ry="3.675" transform="matrix(0.74308 -0.669202 0.667133 0.744938 18.8857 40.9004)" fill="white"/>
<ellipse cx="4.375" cy="4.55" rx="4.375" ry="4.55" transform="matrix(0.74308 -0.669202 0.667133 0.744938 27.291 26.8999)" fill="white"/>
<ellipse cx="6.125" cy="6.475" rx="6.125" ry="6.475" transform="matrix(0.74308 -0.669202 0.667133 0.744938 31.4902 29.3501)" fill="white"/>
<path fill-rule="evenodd" clip-rule="evenodd" d="M36.6966 30.2678C36.6754 30.2345 36.6329 30.2216 36.5968 30.2377C36.4419 30.3066 36.2785 30.3631 36.1074 30.4058C35.8352 30.4737 35.5603 30.5025 35.2882 30.4957C35.2432 30.4945 35.2058 30.5313 35.2061 30.5765C35.2141 31.9746 34.3353 33.2119 32.9596 33.5552C31.2717 33.9765 29.4749 32.8923 28.9464 31.1336C28.4179 29.375 29.3578 27.6078 31.0457 27.1866C31.3179 27.1187 31.5929 27.0899 31.8649 27.0968C31.91 27.0979 31.9473 27.0611 31.9471 27.0159C31.939 25.6178 32.8178 24.3805 34.1935 24.0372C35.5761 23.6922 37.0317 24.3571 37.8035 25.5755C37.8247 25.6088 37.8672 25.6217 37.9032 25.6056C38.0582 25.5367 38.2216 25.4802 38.3927 25.4375C40.0806 25.0162 41.8774 26.1004 42.4059 27.8591C42.9344 29.6177 41.9945 31.3849 40.3066 31.8061C38.924 32.1511 37.4684 31.4862 36.6966 30.2678Z" fill="white"/>
<path d="M48.6134 32.3593C48.6277 32.3465 48.6284 32.3239 48.6149 32.3089C43.599 26.708 35.2246 26.0476 29.91 30.8338C24.5954 35.62 24.3533 44.0404 29.3691 49.6412C29.3826 49.6562 29.4051 49.658 29.4193 49.6451L48.6134 32.3593Z" fill="white"/>
</g>
<path fill-rule="evenodd" clip-rule="evenodd" d="M28.5748 34.8449C29.0177 35.4789 29.1677 36.3056 28.91 37.1068C28.4661 38.4869 26.9805 39.2684 25.5917 38.8523C24.203 38.4362 23.437 36.9801 23.8809 35.5999C24.1128 34.8788 24.6292 34.3211 25.2675 34.0123C24.8247 33.3782 24.6747 32.5515 24.9323 31.7504C25.3762 30.3703 26.8619 29.5888 28.2506 30.0049C29.6394 30.421 30.4053 31.8771 29.9614 33.2572C29.7295 33.9784 29.2132 34.536 28.5748 34.8449Z" fill="#9EB422"/>
<circle cx="5.25" cy="5.25" r="5.25" transform="matrix(0.74308 -0.669202 0.667133 0.744938 24.1289 32.499)" fill="#FF7D5F"/>
<circle cx="5.25" cy="5.25" r="5.25" transform="matrix(0.74308 -0.669202 0.667133 0.744938 22.0322 39.4995)" fill="#FF7D5F"/>
<circle cx="2.8" cy="2.8" r="1.96183" transform="matrix(0.74308 -0.669202 0.667133 0.744938 21.6748 39.499)" stroke="#FFC16D" stroke-width="1.67635"/>
<circle cx="3.675" cy="3.675" r="2.83683" transform="matrix(0.74308 -0.669202 0.667133 0.744938 28.3271 28.2988)" stroke="#FFC16D" stroke-width="1.67635"/>
<circle cx="5.25" cy="5.25" r="5.25" transform="matrix(0.74308 -0.669202 0.667133 0.744938 31.4756 30.749)" fill="#FF7D5F"/>
<path fill-rule="evenodd" clip-rule="evenodd" d="M32.4375 33.7617C33.5995 33.4433 34.317 32.2805 34.1872 31.043C34.4978 31.0821 34.8209 31.0621 35.1413 30.9743C35.3678 30.9123 35.5781 30.8204 35.769 30.7041C36.2682 31.7637 37.4721 32.344 38.6396 32.0241C39.9446 31.6666 40.7099 30.3195 40.3489 29.0155C39.9879 27.7114 38.6374 26.9441 37.3324 27.3017C37.1059 27.3638 36.8956 27.4556 36.7047 27.5719C36.2055 26.5124 35.0016 25.932 33.8341 26.2519C32.7321 26.5539 32.015 27.5614 32.0359 28.6528C31.7104 28.5976 31.3714 28.6103 31.0369 28.702C29.7319 29.0596 28.9875 30.4821 29.3743 31.8793C29.761 33.2765 31.1325 34.1193 32.4375 33.7617Z" fill="#BCD728"/>
<g filter="url(#filter4_i_3913_178547)">
<path d="M45.7176 32.3797C45.7295 32.3689 45.7306 32.3505 45.7199 32.3386C41.7329 27.8866 34.8911 27.5284 30.4384 31.5385C25.9856 35.5485 25.6081 42.4083 29.595 46.8603C29.6057 46.8722 29.6241 46.8732 29.636 46.8624L45.7176 32.3797Z" fill="#FDDA86"/>
</g>
<path d="M8.37891 45.6087C8.37891 43.4701 8.37891 42.4008 8.7951 41.584C9.1612 40.8655 9.74536 40.2813 10.4639 39.9152C11.2807 39.499 12.35 39.499 14.4886 39.499H21.2556C22.378 39.499 22.9393 39.499 23.4542 39.6464C23.9103 39.7769 24.3381 39.9913 24.7156 40.2785C25.1419 40.6028 25.4778 41.0523 26.1497 41.9515L26.4225 42.3166C27.0944 43.2157 27.4304 43.6653 27.8567 43.9896C28.2342 44.2768 28.662 44.4912 29.1181 44.6217C29.633 44.769 30.1942 44.769 31.3167 44.769H40.7706H41.4692C43.6078 44.769 44.6771 44.769 45.4939 45.1852C46.2125 45.5513 46.7966 46.1355 47.1627 46.854C47.5789 47.6708 47.5789 48.7401 47.5789 50.8787V63.8394C47.5789 65.978 47.5789 67.0472 47.1627 67.8641C46.7966 68.5826 46.2124 69.1667 45.4939 69.5328C44.6771 69.949 43.6078 69.949 41.4692 69.949H14.4886C12.35 69.949 11.2807 69.949 10.4639 69.5328C9.74536 69.1667 9.1612 68.5826 8.7951 67.8641C8.37891 67.0472 8.37891 65.9779 8.37891 63.8394L8.37891 45.6087Z" fill="#F8F891"/>
</g>
</g>
<defs>
<filter id="filter0_f_3913_178547" x="12.0806" y="19.1104" width="15.1562" height="11.4555" filterUnits="userSpaceOnUse" color-interpolation-filters="sRGB">
<feFlood flood-opacity="0" result="BackgroundImageFix"/>
<feBlend mode="normal" in="SourceGraphic" in2="BackgroundImageFix" result="shape"/>
<feGaussianBlur stdDeviation="0.11351" result="effect1_foregroundBlur_3913_178547"/>
</filter>
<filter id="filter1_f_3913_178547" x="13.4" y="20.6466" width="12.2537" height="9.46463" filterUnits="userSpaceOnUse" color-interpolation-filters="sRGB">
<feFlood flood-opacity="0" result="BackgroundImageFix"/>
<feBlend mode="normal" in="SourceGraphic" in2="BackgroundImageFix" result="shape"/>
<feGaussianBlur stdDeviation="0.0924747" result="effect1_foregroundBlur_3913_178547"/>
</filter>
<filter id="filter2_i_3913_178547" x="10.1578" y="23.047" width="16.3764" height="10.9208" filterUnits="userSpaceOnUse" color-interpolation-filters="sRGB">
<feFlood flood-opacity="0" result="BackgroundImageFix"/>
<feBlend mode="normal" in="SourceGraphic" in2="BackgroundImageFix" result="shape"/>
<feColorMatrix in="SourceAlpha" type="matrix" values="0 0 0 0 0 0 0 0 0 0 0 0 0 0 0 0 0 0 127 0" result="hardAlpha"/>
<feOffset dx="-3.05166" dy="-0.970985"/>
<feGaussianBlur stdDeviation="0.0924747"/>
<feComposite in2="hardAlpha" operator="arithmetic" k2="-1" k3="1"/>
<feColorMatrix type="matrix" values="0 0 0 0 1 0 0 0 0 0.568627 0 0 0 0 0.466667 0 0 0 0.4 0"/>
<feBlend mode="normal" in2="shape" result="effect1_innerShadow_3913_178547"/>
</filter>
<filter id="filter3_d_3913_178547" x="20.0382" y="22.8532" width="28.9128" height="27.4231" filterUnits="userSpaceOnUse" color-interpolation-filters="sRGB">
<feFlood flood-opacity="0" result="BackgroundImageFix"/>
<feColorMatrix in="SourceAlpha" type="matrix" values="0 0 0 0 0 0 0 0 0 0 0 0 0 0 0 0 0 0 127 0" result="hardAlpha"/>
<feOffset dy="0.296408"/>
<feGaussianBlur stdDeviation="0.163025"/>
<feComposite in2="hardAlpha" operator="out"/>
<feColorMatrix type="matrix" values="0 0 0 0 0.712793 0 0 0 0 0.335462 0 0 0 0 0.254605 0 0 0 0.4 0"/>
<feBlend mode="normal" in2="BackgroundImageFix" result="effect1_dropShadow_3913_178547"/>
<feBlend mode="normal" in="SourceGraphic" in2="effect1_dropShadow_3913_178547" result="shape"/>
</filter>
<filter id="filter4_i_3913_178547" x="26.5792" y="28.7505" width="19.1483" height="18.3754" filterUnits="userSpaceOnUse" color-interpolation-filters="sRGB">
<feFlood flood-opacity="0" result="BackgroundImageFix"/>
<feBlend mode="normal" in="SourceGraphic" in2="BackgroundImageFix" result="shape"/>
<feColorMatrix in="SourceAlpha" type="matrix" values="0 0 0 0 0 0 0 0 0 0 0 0 0 0 0 0 0 0 127 0" result="hardAlpha"/>
<feOffset dx="-4.79515" dy="0.895095"/>
<feGaussianBlur stdDeviation="0.127871"/>
<feComposite in2="hardAlpha" operator="arithmetic" k2="-1" k3="1"/>
<feColorMatrix type="matrix" values="0 0 0 0 0.996078 0 0 0 0 0.752941 0 0 0 0 0.427451 0 0 0 0.8 0"/>
<feBlend mode="normal" in2="shape" result="effect1_innerShadow_3913_178547"/>
</filter>
<linearGradient id="paint0_linear_3913_178547" x1="14.1555" y1="10.4487" x2="14.1555" y2="98.605" gradientUnits="userSpaceOnUse">
<stop stop-color="#F8F891"/>
<stop offset="0.37" stop-color="#737373"/>
</linearGradient>
<clipPath id="clip0_3913_178547">
<rect width="56" height="56" rx="12" fill="white"/>
</clipPath>
<clipPath id="clip1_3913_178547">
<rect width="56" height="47.95" fill="white" transform="translate(-0.03125 8.34961)"/>
</clipPath>
</defs>
</svg>
