<svg width="30" height="30" viewBox="0 0 30 30" fill="none" xmlns="http://www.w3.org/2000/svg">
<path d="M2.61845 13.5149C2.60347 13.3378 2.62452 13.1594 2.68028 12.9911C2.73604 12.8228 2.82528 12.6682 2.94234 12.5371C3.05941 12.4061 3.20174 12.3014 3.36031 12.2298C3.51888 12.1582 3.69021 12.1212 3.86345 12.1211H6.25033C6.58185 12.1211 6.89979 12.2563 7.13421 12.4969C7.36863 12.7375 7.50033 13.0637 7.50033 13.404V25.591C7.50033 25.9312 7.36863 26.2575 7.13421 26.4981C6.89979 26.7387 6.58185 26.8738 6.25033 26.8738H4.89658C4.58372 26.8739 4.28221 26.7536 4.05159 26.5366C3.82097 26.3197 3.67802 26.0218 3.65095 25.702L2.61845 13.5149ZM11.2503 13.0031C11.2503 12.4669 11.5753 11.9871 12.0472 11.7587C13.0778 11.2597 14.8335 10.2572 15.6253 8.90184C16.646 7.15461 16.8385 3.99817 16.8697 3.27529C16.8741 3.17395 16.8716 3.0726 16.8847 2.97254C17.0541 1.71984 19.4097 3.18293 20.3128 4.73004C20.8035 5.56902 20.866 6.67162 20.8147 7.53305C20.7591 8.45413 20.496 9.34378 20.2378 10.2277L19.6878 12.1115H26.4735C26.6666 12.1115 26.8571 12.1574 27.03 12.2457C27.203 12.3339 27.3536 12.4621 27.4702 12.6201C27.5867 12.7781 27.666 12.9617 27.7019 13.1565C27.7377 13.3513 27.729 13.5519 27.6766 13.7427L24.3203 25.9399C24.2462 26.2089 24.0886 26.4457 23.8713 26.6143C23.654 26.7829 23.389 26.874 23.1166 26.8738H12.5003C12.1688 26.8738 11.8509 26.7387 11.6164 26.4981C11.382 26.2575 11.2503 25.9312 11.2503 25.591V13.0031Z" fill="#A6A6A6" stroke="#A6A6A6" stroke-width="2.44973" stroke-linecap="round" stroke-linejoin="round"/>
</svg>
