<svg width="160" height="137" viewBox="0 0 160 137" fill="none" xmlns="http://www.w3.org/2000/svg">
<g clip-path="url(#clip0_2465_39106)">
<path d="M25 110.456C25 104.346 25 101.291 26.1891 98.957C27.2351 96.9041 28.9041 95.2351 30.957 94.1891C33.2908 93 36.3459 93 42.4562 93H61.7904C64.9975 93 66.601 93 68.0723 93.421C69.3754 93.7939 70.5976 94.4064 71.6763 95.227C72.8942 96.1535 73.8541 97.4381 75.7738 100.007L76.5532 101.05C78.4729 103.619 79.4328 104.904 80.6507 105.83C81.7295 106.651 82.9516 107.263 84.2547 107.636C85.726 108.057 87.3295 108.057 90.5366 108.057H117.548H119.544C125.654 108.057 128.709 108.057 131.043 109.246C133.096 110.292 134.765 111.961 135.811 114.014C137 116.348 137 119.403 137 125.513L137 162.544C137 168.654 137 171.709 135.811 174.043C134.765 176.096 133.096 177.765 131.043 178.811C128.709 180 125.654 180 119.544 180H42.4562C36.3459 180 33.2908 180 30.957 178.811C28.9041 177.765 27.2351 176.096 26.1891 174.043C25 171.709 25 168.654 25 162.544L25 110.456Z" fill="#FCF3D3"/>
<path d="M59 74.3855C59 70.8589 61.8589 68 65.3855 68H93.6145C97.1411 68 100 70.8589 100 74.3855L100 76.6145C100 80.1411 97.1411 83 93.6145 83H65.3855C61.8589 83 59 80.1411 59 76.6145L59 74.3855Z" fill="#FFF7F6"/>
<path fill-rule="evenodd" clip-rule="evenodd" d="M96 22C95.883 22 95.7665 22.0027 95.6507 22.008C94.6483 18.5295 91.6021 16 88 16C85.5223 16 83.3077 17.1967 81.8403 19.0759C81.2661 19.0283 80.6857 19.0028 80.0999 19.0002C78.6325 17.1647 76.4443 16 74 16C70.1636 16 66.958 18.8692 66.1801 22.6981C65.2054 22.249 64.1301 22 63 22C58.7397 22 55.2572 25.5383 55.0136 30L55 30C50.5817 30 47 33.8056 47 38.5C47 43.1944 50.5817 47 55 47C56.2922 47 57.5129 46.6745 58.5933 46.0964C60.8923 55.7893 69.6041 63 80 63C90.3959 63 99.1077 55.7893 101.407 46.0964C102.487 46.6745 103.708 47 105 47C109.418 47 113 43.1944 113 38.5C113 33.8056 109.418 30 105 30C104.658 30 104.321 30.0228 103.99 30.0671C103.778 25.5738 100.282 22 96 22Z" fill="#FFF7F6"/>
<g filter="url(#filter0_f_2465_39106)">
<path fill-rule="evenodd" clip-rule="evenodd" d="M98.5 32C98.1708 32 97.8473 32.0245 97.5312 32.0717C96.5693 29.6847 94.2314 28 91.5 28C89.6138 28 87.9152 28.8034 86.7279 30.0867C86.5633 30.0701 86.3981 30.0559 86.2322 30.044C85.0469 28.7856 83.3652 28 81.5 28C78.5635 28 76.0819 29.9472 75.2758 32.6208C74.434 32.2227 73.493 32 72.5 32C68.9101 32 66 34.9101 66 38.5C66 38.6742 66.0069 38.8467 66.0203 39.0174C62.6544 39.263 60 42.0715 60 45.5C60 49.0899 62.9101 52 66.5 52C67.25 52 67.9704 51.873 68.6407 51.6392C70.6598 58.7731 77.2195 64 85 64C92.9216 64 99.5777 58.5818 101.465 51.2492C102.371 51.7286 103.404 52 104.5 52C108.09 52 111 49.0899 111 45.5C111 42.0715 108.346 39.263 104.98 39.0174C104.993 38.8467 105 38.6742 105 38.5C105 34.9101 102.09 32 98.5 32Z" fill="#FFF7F6"/>
</g>
<path d="M45 46.3154C45 43.9321 46.9321 42 49.3154 42L109.685 42C112.068 42 114 43.9321 114 46.3154C114 64.9189 98.9189 80 80.3154 80H78.6846C60.0811 80 45 64.9189 45 46.3154Z" fill="#FFF7F6"/>
<path d="M65 48H95" stroke="#FFE5E3" stroke-width="4.53581" stroke-linecap="round"/>
<path d="M80 63V33" stroke="#FFE5E3" stroke-width="4.53581" stroke-linecap="round"/>
</g>
<defs>
<filter id="filter0_f_2465_39106" x="59.226" y="27.226" width="52.548" height="37.548" filterUnits="userSpaceOnUse" color-interpolation-filters="sRGB">
<feFlood flood-opacity="0" result="BackgroundImageFix"/>
<feBlend mode="normal" in="SourceGraphic" in2="BackgroundImageFix" result="shape"/>
<feGaussianBlur stdDeviation="0.386997" result="effect1_foregroundBlur_2465_39106"/>
</filter>
<clipPath id="clip0_2465_39106">
<rect width="160" height="137" fill="white"/>
</clipPath>
</defs>
</svg>
