<svg width="56" height="56" viewBox="0 0 56 56" fill="none" xmlns="http://www.w3.org/2000/svg">
<g clip-path="url(#clip0_3913_178502)">
<rect width="56" height="56" rx="12" fill="#F5F5F5"/>
<g clip-path="url(#clip1_3913_178502)">
<circle cx="14.2502" cy="50.5241" r="38.675" fill="url(#paint0_linear_3913_178502)" fill-opacity="0.18"/>
<path d="M28.2066 50.1773C27.3601 49.1121 27.5374 47.5623 28.6026 46.7158L37.0757 39.9824C38.1409 39.1358 39.6906 39.3131 40.5372 40.3784L41.1735 41.1791C42.02 42.2443 41.8427 43.7941 40.7775 44.6406L32.3044 51.374C31.2392 52.2205 29.6894 52.0432 28.8429 50.978L28.2066 50.1773Z" fill="white"/>
<path fill-rule="evenodd" clip-rule="evenodd" d="M17.3567 32.8649C16.7981 31.5877 17.1416 30.0463 18.2845 29.138C19.0357 28.5411 19.9753 28.3423 20.8486 28.5126C20.9979 28.4011 21.1498 28.2954 21.3041 28.1953C21.3732 27.3586 21.7746 26.5513 22.4837 25.9878C23.5662 25.1276 25.04 25.0942 26.1428 25.8005C26.2033 25.7441 26.2665 25.6897 26.3324 25.6373C27.6842 24.5631 29.6463 24.7783 30.7339 26.1131C30.7817 26.0701 30.8311 26.0283 30.8821 25.9878C32.2441 24.9054 34.2257 25.1321 35.3081 26.4941C36.3905 27.8562 36.1638 29.8378 34.8018 30.9201C34.3829 31.253 33.9055 31.462 33.4137 31.5524C35.116 35.0196 34.2423 39.3225 31.0944 41.8241C27.9575 44.317 23.5883 44.2059 20.5958 41.7893C20.3973 42.1778 20.1145 42.531 19.7508 42.8201C18.3887 43.9025 16.4071 43.6758 15.3247 42.3138C14.2424 40.9517 14.4691 38.9701 15.8311 37.8877C15.8915 37.8398 15.9531 37.7944 16.0158 37.7515C14.9447 36.3899 15.1742 34.4171 16.5321 33.3381C16.7884 33.1344 17.0666 32.9771 17.3567 32.8649Z" fill="white"/>
<g filter="url(#filter0_f_3913_178502)">
<path fill-rule="evenodd" clip-rule="evenodd" d="M22.8776 33.6613C22.564 32.7137 22.8528 31.6302 23.6798 30.973C24.2333 30.5331 24.9183 30.3712 25.5664 30.468C25.6817 30.3811 25.7991 30.2988 25.9184 30.2209C25.9768 29.5772 26.2882 28.9576 26.8342 28.5237C27.6226 27.8972 28.6778 27.8346 29.5131 28.2803C29.5533 28.2438 29.5949 28.2083 29.6381 28.1741C30.6974 27.3322 32.2386 27.5086 33.0804 28.5679L33.0812 28.5688C33.0993 28.5536 33.1176 28.5386 33.1363 28.5237C34.1956 27.6819 35.7368 27.8582 36.5787 28.9176C37.4205 29.9769 37.2442 31.5181 36.1849 32.3599C35.9238 32.5674 35.6335 32.713 35.3316 32.7988C36.7976 35.5603 36.1836 39.0162 33.7103 40.9817C31.21 42.9687 27.6552 42.7606 25.296 40.6454C25.1413 40.9526 24.9191 41.232 24.6321 41.4601C23.5728 42.302 22.0315 42.1256 21.1897 41.0663C20.3479 40.007 20.5242 38.4658 21.5835 37.6239L21.5858 37.6221C21.5704 37.6039 21.5552 37.5853 21.5402 37.5664C20.6984 36.5071 20.8747 34.9659 21.934 34.1241C22.221 33.896 22.5434 33.7426 22.8776 33.6613Z" fill="white"/>
</g>
<path d="M17.176 45.3232C16.616 44.6186 16.7333 43.5934 17.4379 43.0335L35.7113 28.5119C36.4159 27.952 37.441 28.0692 38.001 28.7739C42.3718 34.2739 41.4564 42.2758 35.9563 46.6466L35.0487 47.3678C29.5487 51.7387 21.5468 50.8232 17.176 45.3232Z" fill="white"/>
<path d="M29.6435 48.6439C29.1624 48.0386 29.2632 47.1579 29.8685 46.6768L36.4448 41.4507C37.0502 40.9697 37.9308 41.0704 38.4119 41.6758C38.8929 42.2811 38.7922 43.1618 38.1869 43.6428L31.6105 48.8689C31.0052 49.35 30.1245 49.2492 29.6435 48.6439Z" fill="#FF7D5F"/>
<path fill-rule="evenodd" clip-rule="evenodd" d="M19.5366 33.6472C19.0333 32.6208 19.3393 31.3046 20.3326 30.5152C21.0387 29.9541 21.9258 29.7914 22.6981 30.0037C22.734 29.98 22.7699 29.9566 22.8061 29.9336C22.8676 29.2381 23.2187 28.5516 23.8308 28.0652C24.7433 27.34 25.958 27.2803 26.8366 27.8352C26.8823 27.7938 26.9296 27.7536 26.9786 27.7147C28.1136 26.8127 29.7161 26.9403 30.558 27.9996L30.5621 28.0048C31.6914 27.1695 33.2403 27.315 34.0628 28.3501C34.9047 29.4094 34.667 30.9994 33.532 31.9013C33.2034 32.1625 32.8356 32.3373 32.4584 32.4282C34.0218 35.2879 33.3497 38.942 30.7112 41.0388C28.1225 43.096 24.5007 42.9706 22.0674 40.9166C21.9406 41.0736 21.7942 41.2197 21.6287 41.3512C20.4937 42.2532 18.8912 42.1256 18.0494 41.0663C17.2411 40.0491 17.428 38.5428 18.4488 37.626C18.4322 37.6065 18.4159 37.5866 18.3998 37.5664C17.558 36.507 17.7957 34.9171 18.9307 34.0151C19.1214 33.8636 19.3253 33.7411 19.5366 33.6472Z" fill="white"/>
<g filter="url(#filter1_f_3913_178502)">
<path fill-rule="evenodd" clip-rule="evenodd" d="M27.1326 30.251C26.6856 30.6062 26.4387 31.1198 26.4083 31.6482C26.2799 31.7341 26.1538 31.8259 26.0306 31.9239C26.0247 31.9285 26.0189 31.9332 26.013 31.9379C25.5512 31.9066 25.0767 32.0408 24.6858 32.3515C24.0451 32.8606 23.8155 33.6954 24.0454 34.4324C23.7756 34.4949 23.5151 34.6169 23.2838 34.8007C22.4515 35.4622 22.313 36.6731 22.9744 37.5054C22.986 37.52 22.9977 37.5343 23.0096 37.5485C22.9861 37.5655 22.9629 37.5831 22.94 37.6013C22.1076 38.2627 21.9691 39.4737 22.6306 40.306C23.292 41.1384 24.5029 41.2769 25.3353 40.6154C25.5076 40.4785 25.6502 40.318 25.7621 40.1422C27.6463 41.7266 30.499 41.7846 32.5632 40.1443C34.6015 38.5244 35.2002 35.7816 34.1385 33.6011C34.3648 33.5327 34.5822 33.4212 34.7785 33.2652C35.6109 32.6037 35.7494 31.3928 35.0879 30.5605C34.4265 29.7281 33.2156 29.5896 32.3832 30.251C32.3703 30.2613 32.3575 30.2718 32.3449 30.2823C32.3275 30.2582 32.3094 30.2343 32.2907 30.2108C31.6292 29.3785 30.4183 29.2399 29.586 29.9014C29.4995 29.9701 29.4205 30.0447 29.3491 30.1243C28.6775 29.7054 27.7877 29.7304 27.1326 30.251Z" fill="#E5E5E5" fill-opacity="0.52"/>
</g>
<g filter="url(#filter2_i_3913_178502)">
<path d="M19.4677 43.7064C19.0034 43.1221 19.1006 42.272 19.685 41.8077L34.5577 29.9885C35.1421 29.5241 35.9922 29.6214 36.4565 30.2057C40.0811 34.7667 39.322 41.4024 34.761 45.027L34.289 45.402C29.728 49.0266 23.0923 48.2675 19.4677 43.7064Z" fill="#FFC6A3"/>
</g>
<path d="M8.8252 47.0081C8.8252 44.8695 8.8252 43.8002 9.24139 42.9834C9.60749 42.2649 10.1916 41.6807 10.9102 41.3146C11.727 40.8984 12.7963 40.8984 14.9348 40.8984H21.7019C22.8243 40.8984 23.3856 40.8984 23.9005 41.0458C24.3566 41.1763 24.7843 41.3907 25.1619 41.6779C25.5882 42.0022 25.9241 42.4518 26.596 43.3509L26.8688 43.716C27.5407 44.6151 27.8767 45.0647 28.303 45.389C28.6805 45.6762 29.1083 45.8906 29.5643 46.0211C30.0793 46.1685 30.6405 46.1685 31.763 46.1685H41.2169H41.9155C44.0541 46.1685 45.1234 46.1685 45.9402 46.5847C46.6587 46.9507 47.2429 47.5349 47.609 48.2534C48.0252 49.0702 48.0252 50.1395 48.0252 52.2781V65.2388C48.0252 67.3774 48.0252 68.4467 47.609 69.2635C47.2429 69.982 46.6587 70.5661 45.9402 70.9322C45.1234 71.3484 44.0541 71.3484 41.9155 71.3484H14.9349C12.7963 71.3484 11.727 71.3484 10.9102 70.9322C10.1916 70.5661 9.60749 69.982 9.24139 69.2635C8.8252 68.4467 8.8252 67.3774 8.8252 65.2388L8.8252 47.0081Z" fill="#F8F891"/>
</g>
</g>
<defs>
<filter id="filter0_f_3913_178502" x="20.3586" y="27.3435" width="17.0504" height="15.3136" filterUnits="userSpaceOnUse" color-interpolation-filters="sRGB">
<feFlood flood-opacity="0" result="BackgroundImageFix"/>
<feBlend mode="normal" in="SourceGraphic" in2="BackgroundImageFix" result="shape"/>
<feGaussianBlur stdDeviation="0.149311" result="effect1_foregroundBlur_3913_178502"/>
</filter>
<filter id="filter1_f_3913_178502" x="21.9696" y="29.2401" width="13.7795" height="12.3557" filterUnits="userSpaceOnUse" color-interpolation-filters="sRGB">
<feFlood flood-opacity="0" result="BackgroundImageFix"/>
<feBlend mode="normal" in="SourceGraphic" in2="BackgroundImageFix" result="shape"/>
<feGaussianBlur stdDeviation="0.121641" result="effect1_foregroundBlur_3913_178502"/>
</filter>
<filter id="filter2_i_3913_178502" x="18.9305" y="29.4515" width="19.8165" height="18.2408" filterUnits="userSpaceOnUse" color-interpolation-filters="sRGB">
<feFlood flood-opacity="0" result="BackgroundImageFix"/>
<feBlend mode="normal" in="SourceGraphic" in2="BackgroundImageFix" result="shape"/>
<feColorMatrix in="SourceAlpha" type="matrix" values="0 0 0 0 0 0 0 0 0 0 0 0 0 0 0 0 0 0 127 0" result="hardAlpha"/>
<feOffset dx="-4.01415" dy="-1.27723"/>
<feGaussianBlur stdDeviation="0.121641"/>
<feComposite in2="hardAlpha" operator="arithmetic" k2="-1" k3="1"/>
<feColorMatrix type="matrix" values="0 0 0 0 1 0 0 0 0 0.568627 0 0 0 0 0.466667 0 0 0 0.4 0"/>
<feBlend mode="normal" in2="shape" result="effect1_innerShadow_3913_178502"/>
</filter>
<linearGradient id="paint0_linear_3913_178502" x1="14.2502" y1="11.8491" x2="14.2502" y2="100.005" gradientUnits="userSpaceOnUse">
<stop stop-color="#F8F891"/>
<stop offset="0.37" stop-color="#737373"/>
</linearGradient>
<clipPath id="clip0_3913_178502">
<rect width="56" height="56" rx="12" fill="white"/>
</clipPath>
<clipPath id="clip1_3913_178502">
<rect width="56" height="47.95" fill="white" transform="translate(0.0703125 8.34961)"/>
</clipPath>
</defs>
</svg>
