<svg width="56" height="56" viewBox="0 0 56 56" fill="none" xmlns="http://www.w3.org/2000/svg">
<g clip-path="url(#clip0_3534_62472)">
<rect width="56" height="56" rx="12" fill="#F5F5F5"/>
<g clip-path="url(#clip1_3534_62472)">
<circle cx="14.2531" cy="50.5236" r="38.675" fill="url(#paint0_linear_3534_62472)" fill-opacity="0.18"/>
<path d="M28.2046 50.1778C27.3581 49.1126 27.5354 47.5628 28.6006 46.7163L37.0737 39.9828C38.1389 39.1363 39.6887 39.3136 40.5352 40.3788L41.1715 41.1795C42.018 42.2448 41.8407 43.7945 40.7755 44.6411L32.3025 51.3745C31.2372 52.221 29.6875 52.0437 28.8409 50.9785L28.2046 50.1778Z" fill="white"/>
<path fill-rule="evenodd" clip-rule="evenodd" d="M17.3508 32.8659C16.7922 31.5887 17.1357 30.0473 18.2786 29.139C19.0298 28.5421 19.9694 28.3433 20.8427 28.5135C20.9921 28.4021 21.144 28.2964 21.2982 28.1963C21.3673 27.3596 21.7687 26.5523 22.4778 25.9888C23.5603 25.1285 25.0342 25.0952 26.1369 25.8015C26.1975 25.7451 26.2607 25.6906 26.3266 25.6383C27.6783 24.564 29.6404 24.7793 30.728 26.1141C30.7758 26.0711 30.8252 26.0293 30.8762 25.9888C32.2383 24.9064 34.2199 25.1331 35.3023 26.4951C36.3846 27.8571 36.1579 29.8387 34.7959 30.9211C34.3771 31.254 33.8997 31.463 33.4079 31.5533C35.1101 35.0206 34.2365 39.3235 31.0885 41.8251C27.9517 44.3179 23.5824 44.2068 20.59 41.7903C20.3915 42.1788 20.1087 42.532 19.7449 42.8211C18.3829 43.9035 16.4013 43.6768 15.3189 42.3147C14.2365 40.9527 14.4632 38.9711 15.8252 37.8887C15.8856 37.8407 15.9472 37.7953 16.0099 37.7525C14.9389 36.3908 15.1684 34.4181 16.5262 33.339C16.7825 33.1354 17.0607 32.978 17.3508 32.8659Z" fill="white"/>
<g filter="url(#filter0_f_3534_62472)">
<path fill-rule="evenodd" clip-rule="evenodd" d="M22.8747 33.6623C22.561 32.7147 22.8499 31.6312 23.6769 30.974C24.2304 30.5341 24.9154 30.3722 25.5635 30.469C25.6788 30.3821 25.7962 30.2998 25.9155 30.2219C25.9739 29.5782 26.2853 28.9586 26.8312 28.5247C27.6196 27.8982 28.6749 27.8356 29.5102 28.2813C29.5504 28.2447 29.592 28.2093 29.6351 28.1751C30.6945 27.3332 32.2357 27.5095 33.0775 28.5689L33.0782 28.5698C33.0963 28.5546 33.1147 28.5395 33.1334 28.5247C34.1927 27.6829 35.7339 27.8592 36.5757 28.9185C37.4176 29.9779 37.2413 31.5191 36.1819 32.3609C35.9209 32.5683 35.6306 32.714 35.3287 32.7998C36.7946 35.5613 36.1807 39.0172 33.7074 40.9827C31.2071 42.9697 27.6523 42.7616 25.293 40.6463C25.1383 40.9536 24.9162 41.233 24.6292 41.4611C23.5698 42.3029 22.0286 42.1266 21.1868 41.0673C20.3449 40.008 20.5213 38.4668 21.5806 37.6249L21.5829 37.6231C21.5674 37.6048 21.5522 37.5863 21.5373 37.5674C20.6954 36.5081 20.8717 34.9669 21.9311 34.125C22.2181 33.897 22.5404 33.7436 22.8747 33.6623Z" fill="white"/>
</g>
<path d="M17.1701 45.3237C16.6102 44.6191 16.7275 43.5939 17.4321 43.034L35.7054 28.5124C36.41 27.9525 37.4352 28.0697 37.9951 28.7744C42.3659 34.2744 41.4505 42.2763 35.9505 46.6471L35.0429 47.3683C29.5428 51.7391 21.5409 50.8237 17.1701 45.3237Z" fill="white"/>
<path d="M29.6445 48.6449C29.1634 48.0395 29.2642 47.1589 29.8695 46.6778L36.4458 41.4517C37.0511 40.9707 37.9318 41.0714 38.4129 41.6767C38.8939 42.2821 38.7932 43.1628 38.1878 43.6438L31.6115 48.8699C31.0062 49.351 30.1255 49.2502 29.6445 48.6449Z" fill="#FF7D5F"/>
<path fill-rule="evenodd" clip-rule="evenodd" d="M19.5317 33.6477C19.0284 32.6213 19.3344 31.3051 20.3277 30.5157C21.0339 29.9546 21.921 29.7919 22.6933 30.0042C22.7291 29.9805 22.765 29.9571 22.8012 29.9341C22.8627 29.2386 23.2139 28.5521 23.826 28.0656C24.7384 27.3405 25.9531 27.2808 26.8318 27.8357C26.8774 27.7943 26.9247 27.7541 26.9737 27.7152C28.1087 26.8132 29.7112 26.9408 30.5531 28.0001L30.5572 28.0053C31.6865 27.17 33.2354 27.3155 34.0579 28.3506C34.8998 29.4099 34.6621 30.9999 33.5271 31.9018C33.1985 32.163 32.8307 32.3378 32.4535 32.4287C34.0169 35.2884 33.3448 38.9425 30.7064 41.0393C28.1176 43.0965 24.4958 42.9711 22.0625 40.9171C21.9357 41.0741 21.7893 41.2202 21.6239 41.3517C20.4889 42.2537 18.8863 42.1261 18.0445 41.0668C17.2362 40.0496 17.4231 38.5433 18.444 37.6265C18.4274 37.6069 18.411 37.5871 18.395 37.5669C17.5531 36.5075 17.7908 34.9176 18.9258 34.0156C19.1165 33.8641 19.3204 33.7416 19.5317 33.6477Z" fill="white"/>
<g filter="url(#filter1_f_3534_62472)">
<path fill-rule="evenodd" clip-rule="evenodd" d="M27.1335 30.251C26.6866 30.6062 26.4397 31.1198 26.4093 31.6482C26.2808 31.7341 26.1548 31.8259 26.0316 31.9239C26.0257 31.9285 26.0198 31.9332 26.014 31.9379C25.5522 31.9066 25.0777 32.0408 24.6868 32.3515C24.0461 32.8606 23.8165 33.6954 24.0464 34.4324C23.7766 34.4949 23.5161 34.6169 23.2848 34.8007C22.4525 35.4622 22.314 36.6731 22.9754 37.5054C22.987 37.52 22.9987 37.5343 23.0106 37.5485C22.9871 37.5655 22.9639 37.5831 22.941 37.6013C22.1086 38.2627 21.9701 39.4737 22.6315 40.306C23.293 41.1384 24.5039 41.2769 25.3363 40.6154C25.5086 40.4785 25.6512 40.318 25.7631 40.1422C27.6473 41.7266 30.5 41.7846 32.5642 40.1443C34.6025 38.5244 35.2012 35.7816 34.1394 33.6011C34.3657 33.5327 34.5832 33.4212 34.7795 33.2652C35.6118 32.6037 35.7504 31.3928 35.0889 30.5605C34.4275 29.7281 33.2165 29.5896 32.3842 30.251C32.3713 30.2613 32.3585 30.2718 32.3459 30.2823C32.3284 30.2582 32.3104 30.2343 32.2917 30.2108C31.6302 29.3785 30.4193 29.2399 29.5869 29.9014C29.5005 29.9701 29.4215 30.0447 29.3501 30.1243C28.6784 29.7054 27.7887 29.7304 27.1335 30.251Z" fill="#E5E5E5" fill-opacity="0.52"/>
</g>
<g filter="url(#filter2_i_3534_62472)">
<path d="M19.4658 43.7064C19.0014 43.1221 19.0987 42.272 19.683 41.8077L34.5558 29.9885C35.1401 29.5241 35.9902 29.6214 36.4546 30.2057C40.0792 34.7667 39.32 41.4024 34.759 45.027L34.2871 45.402C29.7261 49.0266 23.0904 48.2675 19.4658 43.7064Z" fill="#FFC6A3"/>
</g>
<path d="M8.82813 47.0081C8.82813 44.8695 8.82813 43.8002 9.24432 42.9834C9.61042 42.2649 10.1946 41.6807 10.9131 41.3146C11.7299 40.8984 12.7992 40.8984 14.9378 40.8984H21.7048C22.8272 40.8984 23.3885 40.8984 23.9034 41.0458C24.3595 41.1763 24.7873 41.3907 25.1648 41.6779C25.5911 42.0022 25.9271 42.4518 26.599 43.3509L26.8717 43.716C27.5436 44.6151 27.8796 45.0647 28.3059 45.389C28.6834 45.6762 29.1112 45.8906 29.5673 46.0211C30.0822 46.1685 30.6435 46.1685 31.7659 46.1685H41.2198H41.9185C44.057 46.1685 45.1263 46.1685 45.9432 46.5847C46.6617 46.9507 47.2458 47.5349 47.6119 48.2534C48.0281 49.0702 48.0281 50.1395 48.0281 52.2781V65.2388C48.0281 67.3774 48.0281 68.4467 47.6119 69.2635C47.2458 69.982 46.6617 70.5661 45.9432 70.9322C45.1263 71.3484 44.057 71.3484 41.9185 71.3484H14.9378C12.7992 71.3484 11.7299 71.3484 10.9131 70.9322C10.1946 70.5661 9.61042 69.982 9.24432 69.2635C8.82813 68.4467 8.82813 67.3774 8.82813 65.2388L8.82813 47.0081Z" fill="#F8F891"/>
</g>
</g>
<defs>
<filter id="filter0_f_3534_62472" x="20.3576" y="27.344" width="17.0504" height="15.314" filterUnits="userSpaceOnUse" color-interpolation-filters="sRGB">
<feFlood flood-opacity="0" result="BackgroundImageFix"/>
<feBlend mode="normal" in="SourceGraphic" in2="BackgroundImageFix" result="shape"/>
<feGaussianBlur stdDeviation="0.149311" result="effect1_foregroundBlur_3534_62472"/>
</filter>
<filter id="filter1_f_3534_62472" x="21.9677" y="29.2401" width="13.7834" height="12.3557" filterUnits="userSpaceOnUse" color-interpolation-filters="sRGB">
<feFlood flood-opacity="0" result="BackgroundImageFix"/>
<feBlend mode="normal" in="SourceGraphic" in2="BackgroundImageFix" result="shape"/>
<feGaussianBlur stdDeviation="0.121641" result="effect1_foregroundBlur_3534_62472"/>
</filter>
<filter id="filter2_i_3534_62472" x="18.9286" y="29.452" width="19.8136" height="18.2404" filterUnits="userSpaceOnUse" color-interpolation-filters="sRGB">
<feFlood flood-opacity="0" result="BackgroundImageFix"/>
<feBlend mode="normal" in="SourceGraphic" in2="BackgroundImageFix" result="shape"/>
<feColorMatrix in="SourceAlpha" type="matrix" values="0 0 0 0 0 0 0 0 0 0 0 0 0 0 0 0 0 0 127 0" result="hardAlpha"/>
<feOffset dx="-4.01415" dy="-1.27723"/>
<feGaussianBlur stdDeviation="0.121641"/>
<feComposite in2="hardAlpha" operator="arithmetic" k2="-1" k3="1"/>
<feColorMatrix type="matrix" values="0 0 0 0 1 0 0 0 0 0.568627 0 0 0 0 0.466667 0 0 0 0.4 0"/>
<feBlend mode="normal" in2="shape" result="effect1_innerShadow_3534_62472"/>
</filter>
<linearGradient id="paint0_linear_3534_62472" x1="14.2531" y1="11.8486" x2="14.2531" y2="100.005" gradientUnits="userSpaceOnUse">
<stop stop-color="#F8F891"/>
<stop offset="0.37" stop-color="#737373"/>
</linearGradient>
<clipPath id="clip0_3534_62472">
<rect width="56" height="56" rx="12" fill="white"/>
</clipPath>
<clipPath id="clip1_3534_62472">
<rect width="56" height="47.95" fill="white" transform="translate(0.0703125 8.34961)"/>
</clipPath>
</defs>
</svg>
