<svg width="20" height="20" viewBox="0 0 20 20" fill="none" xmlns="http://www.w3.org/2000/svg">
<g id="Group 36541">
<path id="Vector 6774 (Stroke)" fill-rule="evenodd" clip-rule="evenodd" d="M0.5 10C0.5 9.17157 1.17157 8.5 2 8.5H18C18.8284 8.5 19.5 9.17157 19.5 10C19.5 10.8284 18.8284 11.5 18 11.5H2C1.17157 11.5 0.5 10.8284 0.5 10Z" fill="#575757"/>
<path id="Vector 6775 (Stroke)" fill-rule="evenodd" clip-rule="evenodd" d="M10 0.5C10.8284 0.5 11.5 1.17157 11.5 2L11.5 18C11.5 18.8284 10.8284 19.5 10 19.5C9.17157 19.5 8.5 18.8284 8.5 18L8.5 2C8.5 1.17157 9.17157 0.5 10 0.5Z" fill="#575757"/>
</g>
</svg>
