<svg width="56" height="56" viewBox="0 0 56 56" fill="none" xmlns="http://www.w3.org/2000/svg">
<rect width="56" height="56" rx="12" fill="#FF4C24"/>
<g clip-path="url(#clip0_3534_62383)">
<path d="M8.75 46.6595C8.75 44.5209 8.75 43.4516 9.1662 42.6348C9.53229 41.9163 10.1165 41.3321 10.835 40.966C11.6518 40.5498 12.7211 40.5498 14.8597 40.5498H21.6267C22.7491 40.5498 23.3104 40.5498 23.8253 40.6972C24.2814 40.8277 24.7091 41.042 25.0867 41.3293C25.513 41.6535 25.8489 42.1031 26.5208 43.0023L26.7936 43.3673C27.4655 44.2665 27.8015 44.7161 28.2278 45.0404C28.6053 45.3276 29.0331 45.5419 29.4891 45.6725C30.0041 45.8198 30.5653 45.8198 31.6878 45.8198H41.1417H41.8403C43.9789 45.8198 45.0482 45.8198 45.865 46.236C46.5835 46.6021 47.1677 47.1863 47.5338 47.9048C47.95 48.7216 47.95 49.7909 47.95 51.9295L47.95 64.8902C47.95 67.0287 47.95 68.098 47.5338 68.9149C47.1677 69.6334 46.5835 70.2175 45.865 70.5836C45.0482 70.9998 43.9789 70.9998 41.8403 70.9998H14.8597C12.7211 70.9998 11.6518 70.9998 10.835 70.5836C10.1165 70.2175 9.53229 69.6334 9.1662 68.9149C8.75 68.098 8.75 67.0287 8.75 64.8902L8.75 46.6595Z" fill="#F8F891"/>
<path d="M20.6563 34.0347C20.6563 32.8004 21.6569 31.7998 22.8912 31.7998H32.7713C34.0056 31.7998 35.0063 32.8004 35.0063 34.0347L35.0063 34.8149C35.0063 36.0492 34.0056 37.0498 32.7713 37.0498H22.8912C21.6569 37.0498 20.6563 36.0492 20.6563 34.8149L20.6563 34.0347Z" fill="white"/>
<path fill-rule="evenodd" clip-rule="evenodd" d="M33.6001 15.6984C33.5596 15.6984 33.5193 15.6994 33.4793 15.7012C33.1284 14.4838 32.0623 13.5986 30.8016 13.5986C29.9342 13.5986 29.159 14.0177 28.6454 14.6757C28.4461 14.6591 28.2447 14.6502 28.0414 14.6491C27.5278 14.0064 26.7618 13.5986 25.9061 13.5986C24.5628 13.5986 23.4405 14.6037 23.1688 15.9447C22.8266 15.7863 22.4488 15.6984 22.0516 15.6984C20.5604 15.6984 19.3415 16.937 19.2564 18.4986L19.2531 18.4986C17.7067 18.4986 16.4531 19.8306 16.4531 21.4736C16.4531 23.1167 17.7067 24.4486 19.2531 24.4486C19.7043 24.4486 20.1306 24.3352 20.508 24.1338C21.3131 27.5258 24.3619 30.049 28.0001 30.049C31.6393 30.049 34.6889 27.5244 35.4929 24.131C35.8717 24.3342 36.2998 24.4486 36.7531 24.4486C38.2995 24.4486 39.5531 23.1167 39.5531 21.4736C39.5531 19.8306 38.2995 18.4986 36.7531 18.4986C36.6323 18.4986 36.5133 18.5068 36.3966 18.5225C36.3226 16.9496 35.0989 15.6984 33.6001 15.6984Z" fill="white"/>
<g filter="url(#filter0_f_3534_62383)">
<path fill-rule="evenodd" clip-rule="evenodd" d="M32.025 17.8C31.3646 17.8 30.7699 18.0814 30.3543 18.5308C30.297 18.525 30.2395 18.5201 30.1818 18.5159C29.7669 18.0752 29.1781 17.8 28.525 17.8C27.4968 17.8 26.6279 18.4821 26.3461 19.4185C26.0509 19.2784 25.7206 19.2 25.372 19.2C24.1155 19.2 23.097 20.2185 23.097 21.475C23.097 21.5359 23.0994 21.5962 23.1041 21.6559C21.9275 21.7433 21 22.7257 21 23.9246C21 25.1811 22.0186 26.1996 23.275 26.1996C23.5369 26.1996 23.7885 26.1554 24.0227 26.0739C24.7293 28.5709 27.0252 30.4004 29.7485 30.4004C32.5213 30.4004 34.8511 28.5037 35.5113 25.9369C35.8284 26.1046 36.1898 26.1996 36.5735 26.1996C37.8299 26.1996 38.8485 25.1811 38.8485 23.9246C38.8485 22.7257 37.921 21.7433 36.7444 21.6559C36.7491 21.5962 36.7515 21.5359 36.7515 21.475C36.7515 20.2185 35.733 19.2 34.4765 19.2C34.3608 19.2 34.2471 19.2086 34.136 19.2253C33.7994 18.3897 32.9811 17.8 32.025 17.8Z" fill="white"/>
</g>
<path d="M15.75 24.2096C15.75 23.3754 16.4262 22.6992 17.2604 22.6992L38.3896 22.6992C39.2238 22.6992 39.9 23.3754 39.9 24.2096V24.2096C39.9 30.7208 34.6216 35.9992 28.1104 35.9992H27.5396C21.0284 35.9992 15.75 30.7208 15.75 24.2096V24.2096Z" fill="white"/>
<path d="M22.75 24.7998H33.25" stroke="#FF4C24" stroke-width="1.58753" stroke-linecap="round"/>
<path d="M28 30.0498V19.5498" stroke="#FF4C24" stroke-width="1.58753" stroke-linecap="round"/>
</g>
<defs>
<filter id="filter0_f_3534_62383" x="20.7291" y="17.5289" width="18.3934" height="13.1424" filterUnits="userSpaceOnUse" color-interpolation-filters="sRGB">
<feFlood flood-opacity="0" result="BackgroundImageFix"/>
<feBlend mode="normal" in="SourceGraphic" in2="BackgroundImageFix" result="shape"/>
<feGaussianBlur stdDeviation="0.135449" result="effect1_foregroundBlur_3534_62383"/>
</filter>
<clipPath id="clip0_3534_62383">
<rect width="56" height="47.95" fill="white" transform="translate(0 8)"/>
</clipPath>
</defs>
</svg>
