<svg width="44" height="44" viewBox="0 0 44 44" fill="none" xmlns="http://www.w3.org/2000/svg">
<rect x="8.29633" y="14.8889" width="26.4074" height="20.6667" rx="2.2963" fill="#A6A6A6"/>
<path d="M6 10.1049C6 8.94241 6.94241 8 8.10494 8H16.3333V15.463C16.3333 18.3164 14.0201 20.6296 11.1667 20.6296C8.3132 20.6296 6 18.3164 6 15.463V10.1049Z" fill="#424242"/>
<path d="M16.3333 8.00006H27.8148V14.889C27.8148 18.0595 25.2446 20.6297 22.0741 20.6297C18.9035 20.6297 16.3333 18.0595 16.3333 14.889V8.00006Z" fill="#424242"/>
<path d="M27.8148 8.00006H34.8951C36.0576 8.00006 37 8.94247 37 10.105V16.0371C37 18.5735 34.9438 20.6297 32.4074 20.6297C29.871 20.6297 27.8148 18.5735 27.8148 16.0371V8.00006Z" fill="#424242"/>
<path d="M17.4814 29.2407C17.4814 27.0213 19.2806 25.2222 21.5 25.2222C23.7193 25.2222 25.5185 27.0213 25.5185 29.2407V35.5555H17.4814V29.2407Z" fill="#575757"/>
</svg>
