<svg width="31" height="31" viewBox="0 0 31 31" fill="none" xmlns="http://www.w3.org/2000/svg">
<path d="M17.4393 9.20331C17.4393 7.27634 18.2048 5.4283 19.5674 4.06574C20.93 2.70317 22.778 1.93768 24.705 1.93768H25.1893C25.4463 1.93768 25.6927 2.03975 25.8743 2.22142C26.056 2.4031 26.1581 2.6495 26.1581 2.90643V14.5314C26.1581 14.6845 26.1968 15.1786 26.2724 15.9516C26.3441 16.6976 26.4419 17.6402 26.5466 18.6447L26.5591 18.7639C26.8207 21.2807 27.1268 24.2335 27.1268 25.1877C27.1268 26.2154 26.7186 27.201 25.9919 27.9277C25.2652 28.6544 24.2795 29.0627 23.2518 29.0627C22.2241 29.0627 21.2385 28.6544 20.5118 27.9277C19.7851 27.201 19.3768 26.2154 19.3768 25.1877C19.3768 24.3759 19.5967 21.9259 19.8205 19.629C19.9746 18.0451 20.1344 16.4902 20.2381 15.5002H19.8612C19.2189 15.5002 18.6029 15.245 18.1487 14.7908C17.6945 14.3366 17.4393 13.7206 17.4393 13.0783V9.20331ZM14.5079 2.68653C14.4559 2.46366 14.3267 2.26639 14.1432 2.12967C13.9597 1.99296 13.7337 1.92563 13.5052 1.93962C12.9918 1.96868 12.5859 2.39203 12.5859 2.91225V8.72475C12.5897 8.98039 12.4919 9.22709 12.3138 9.41059C12.1358 9.59408 11.8922 9.69933 11.6365 9.70318C11.3809 9.70704 11.1342 9.60918 10.9507 9.43114C10.7672 9.25309 10.6619 9.00945 10.6581 8.75381V2.90643C10.6581 2.6495 10.556 2.4031 10.3743 2.22142C10.1927 2.03975 9.94626 1.93768 9.68933 1.93768C9.4324 1.93768 9.186 2.03975 9.00432 2.22142C8.82265 2.4031 8.72058 2.6495 8.72058 2.90643V8.7819C8.70475 9.03151 8.59252 9.26519 8.40759 9.43358C8.22267 9.60198 7.97953 9.6919 7.72953 9.68435C7.47954 9.67681 7.24226 9.57239 7.06783 9.39315C6.89339 9.21391 6.79546 8.97388 6.79471 8.72378V2.91321C6.79405 2.67464 6.70598 2.44458 6.54717 2.26654C6.38835 2.0885 6.1698 1.97484 5.93285 1.94704C5.6959 1.91924 5.45698 1.97923 5.26127 2.11568C5.06556 2.25212 4.92664 2.45555 4.87077 2.6875C4.84946 2.77662 3.87683 6.91706 3.87683 9.68768C3.87608 10.5634 4.07352 11.4278 4.45436 12.2164C4.8352 13.0049 5.38956 13.697 6.0759 14.2408C6.5564 14.6225 6.78308 15.0381 6.78308 15.3859C6.78293 15.4228 6.78066 15.4597 6.7763 15.4963C6.71818 15.9846 6.4789 18.0092 6.25415 20.1008C6.03327 22.1574 5.81433 24.3739 5.81433 25.1877C5.81433 26.2154 6.22259 27.201 6.94929 27.9277C7.676 28.6544 8.66162 29.0627 9.68933 29.0627C10.717 29.0627 11.7027 28.6544 12.4294 27.9277C13.1561 27.201 13.5643 26.2154 13.5643 25.1877C13.5643 24.3749 13.3454 22.1574 13.1245 20.1008C12.8998 18.0092 12.6595 15.9836 12.6014 15.4963C12.5974 15.4596 12.5954 15.4228 12.5956 15.3859C12.5956 15.0381 12.8223 14.6225 13.3028 14.2408C13.9891 13.697 14.5435 13.0049 14.9243 12.2164C15.3051 11.4278 15.5026 10.5634 15.5018 9.68768C15.5018 6.91512 14.5263 2.76693 14.5079 2.68653ZM13.4616 1.94253L13.481 1.94156H13.4733L13.4655 1.94253H13.4616Z" fill="#A6A6A6"/>
</svg>
