<svg width="56" height="56" viewBox="0 0 56 56" fill="none" xmlns="http://www.w3.org/2000/svg">
<g clip-path="url(#clip0_3534_62638)">
<rect width="56" height="56" rx="12" fill="#F5F5F5"/>
<g clip-path="url(#clip1_3534_62638)">
<circle cx="14.05" cy="50.5236" r="38.675" fill="url(#paint0_linear_3534_62638)" fill-opacity="0.18"/>
<g filter="url(#filter0_d_3534_62638)">
<path fill-rule="evenodd" clip-rule="evenodd" d="M23.0851 40.1817C23.0402 40.1914 23.019 40.2425 23.043 40.2835C23.5066 41.0779 23.5945 42.0793 23.1925 42.9637C22.5525 44.3715 20.9136 44.95 19.5318 44.2558C18.1499 43.5616 17.5485 41.8577 18.1884 40.4499C18.5906 39.5651 19.3875 39.0078 20.2671 38.8883C20.3128 38.8821 20.3378 38.8329 20.3169 38.7904C19.9451 38.0339 19.9072 37.0948 20.2913 36.2498C20.9312 34.842 22.5001 34.2284 23.7956 34.8792C25.0911 35.53 25.6225 37.1988 24.9826 38.6066C24.5983 39.4519 23.879 40.011 23.0851 40.1817Z" fill="white"/>
<ellipse cx="5.425" cy="5.775" rx="5.425" ry="5.775" transform="matrix(0.832844 -0.553507 0.553412 0.832908 19.1328 36.6973)" fill="white"/>
<ellipse cx="5.425" cy="5.775" rx="5.425" ry="5.775" transform="matrix(0.832844 -0.553507 0.553412 0.832908 15.9766 43.6982)" fill="white"/>
<ellipse cx="2.975" cy="3.15" rx="2.975" ry="3.15" transform="matrix(0.832844 -0.553507 0.553412 0.832908 15.2734 44.0479)" fill="white"/>
<ellipse cx="3.85" cy="4.025" rx="3.85" ry="4.025" transform="matrix(0.832844 -0.553507 0.553412 0.832908 24.375 33.1982)" fill="white"/>
<ellipse cx="5.25" cy="5.6" rx="5.25" ry="5.6" transform="matrix(0.832844 -0.553507 0.553412 0.832908 27.5312 35.998)" fill="white"/>
<path fill-rule="evenodd" clip-rule="evenodd" d="M31.9032 36.8954C31.8899 36.8584 31.8481 36.8396 31.8116 36.8543C31.5828 36.9467 31.3368 37.0098 31.0778 37.0385C30.834 37.0655 30.5933 37.0605 30.3599 37.0268C30.3245 37.0217 30.2909 37.0445 30.2826 37.0792C30.0215 38.1603 29.1123 39.007 27.9301 39.1381C26.3931 39.3085 24.9767 38.2047 24.7665 36.6727C24.5563 35.1406 25.6318 33.7605 27.1688 33.5901C27.4126 33.5631 27.6534 33.5681 27.8868 33.6018C27.9221 33.6069 27.9557 33.5841 27.9641 33.5494C28.2252 32.4683 29.1344 31.6216 30.3165 31.4905C31.6543 31.3422 32.9006 32.1591 33.3399 33.3835C33.3532 33.4206 33.395 33.4393 33.4315 33.4246C33.6603 33.3322 33.9063 33.2692 34.1653 33.2404C35.7022 33.07 37.1186 34.1738 37.3289 35.7059C37.5391 37.2379 36.4635 38.618 34.9266 38.7884C33.5888 38.9368 32.3425 38.1198 31.9032 36.8954Z" fill="white"/>
<path d="M41.896 40.5277C41.9098 40.5185 41.9131 40.4992 41.9034 40.4846C38.276 35.0252 31.1592 33.375 26.0075 36.7988C20.8559 40.2225 19.6203 47.4238 23.2477 52.8831C23.2574 52.8978 23.2765 52.9022 23.2903 52.893L41.896 40.5277Z" fill="white"/>
</g>
<path fill-rule="evenodd" clip-rule="evenodd" d="M24.0444 40.6549C24.4813 41.3028 24.5739 42.1585 24.2135 42.914C23.6726 44.048 22.3158 44.5267 21.183 43.9831C20.0503 43.4395 19.5705 42.0795 20.1114 40.9454C20.4256 40.2868 21.015 39.8492 21.6759 39.7046C21.239 39.0567 21.1464 38.201 21.5067 37.4455C22.0477 36.3115 23.4045 35.8328 24.5372 36.3764C25.67 36.92 26.1498 38.28 25.6088 39.4141C25.2947 40.0728 24.7053 40.5103 24.0444 40.6549Z" fill="#9EB422"/>
<ellipse cx="4.725" cy="4.55" rx="4.725" ry="4.55" transform="matrix(0.832844 -0.553507 0.553412 0.832908 20.8828 37.749)" fill="#FF7D5F"/>
<ellipse cx="4.725" cy="4.55" rx="4.725" ry="4.55" transform="matrix(0.832844 -0.553507 0.553412 0.832908 18.0859 43.6992)" fill="#FF7D5F"/>
<circle cx="2.45" cy="2.45" r="1.72337" transform="matrix(0.832844 -0.553507 0.553412 0.832908 17.7344 43.6982)" stroke="#FFC16D" stroke-width="1.45327"/>
<circle cx="3.15" cy="3.15" r="2.42337" transform="matrix(0.832844 -0.553507 0.553412 0.832908 25.0859 34.5996)" stroke="#FFC16D" stroke-width="1.45327"/>
<ellipse cx="4.725" cy="4.55" rx="4.725" ry="4.55" transform="matrix(0.832844 -0.553507 0.553412 0.832908 27.5312 37.3984)" fill="#FF7D5F"/>
<path fill-rule="evenodd" clip-rule="evenodd" d="M31.3454 37.8996C31.1285 38.006 30.8919 38.0799 30.641 38.114C30.4677 38.1376 30.2967 38.1409 30.1304 38.1258C29.9012 39.019 29.1484 39.7333 28.1876 39.864C26.9427 40.0332 25.8198 39.1582 25.6798 37.9096C25.5397 36.661 26.4354 35.5116 27.6804 35.3423C27.8537 35.3188 28.0247 35.3154 28.191 35.3306C28.4202 34.4374 29.173 33.723 30.1338 33.5924C31.2622 33.439 32.2902 34.1434 32.5772 35.2063C32.794 35.0998 33.0307 35.026 33.2815 34.9918C34.5265 34.8226 35.6494 35.6976 35.7894 36.9462C35.9295 38.1948 35.0338 39.3442 33.7888 39.5135C32.6604 39.6669 31.6323 38.9625 31.3454 37.8996Z" fill="#BCD728"/>
<g filter="url(#filter1_i_3534_62638)">
<path d="M39.3791 40.4228C39.3907 40.415 39.3939 40.3993 39.3862 40.3877C36.5056 36.0523 30.6468 34.8796 26.3001 37.7684C21.9534 40.6572 20.7649 46.5136 23.6454 50.849C23.6532 50.8606 23.6689 50.8637 23.6806 50.856L39.3791 40.4228Z" fill="#FDDA86"/>
</g>
<g filter="url(#filter2_d_3534_62638)">
<g clip-path="url(#clip2_3534_62638)">
<path d="M32.6186 26.0338C32.2813 25.232 32.6578 24.3086 33.4596 23.9713L45.0736 19.0851C45.8753 18.7477 46.7988 19.1242 47.1361 19.926C47.4734 20.7278 47.0969 21.6512 46.2951 21.9886L34.6811 26.8748C33.8793 27.2121 32.9559 26.8356 32.6186 26.0338Z" fill="white"/>
<path d="M32.8508 28.3962C32.4025 27.3306 32.9029 26.1034 33.9684 25.6551L46.2402 20.4921C47.3058 20.0438 48.533 20.5442 48.9813 21.6098L49.1224 21.945C49.5707 23.0105 49.0703 24.2378 48.0047 24.6861L35.7329 29.849C34.6673 30.2973 33.4401 29.7969 32.9918 28.7314L32.8508 28.3962Z" fill="white"/>
<path d="M31.5248 23.4537C31.1875 22.6519 31.564 21.7285 32.3658 21.3912L43.9798 16.505C44.7816 16.1677 45.705 16.5442 46.0423 17.346C46.3797 18.1477 46.0031 19.0712 45.2014 19.4085L33.5874 24.2947C32.7856 24.632 31.8622 24.2555 31.5248 23.4537Z" fill="white"/>
<mask id="mask0_3534_62638" style="mask-type:alpha" maskUnits="userSpaceOnUse" x="30" y="17" width="18" height="10">
<path d="M47.7118 19.5094C47.858 19.8569 47.6948 20.2572 47.3473 20.4034L32.4753 26.6603C32.1277 26.8065 31.7275 26.6433 31.5813 26.2958L30.8892 24.6508C30.743 24.3033 30.9062 23.903 31.2537 23.7568L46.1258 17.4999C46.4733 17.3537 46.8735 17.5169 47.0198 17.8644L47.7118 19.5094Z" fill="#FFFFEB"/>
</mask>
<g mask="url(#mask0_3534_62638)">
<path fill-rule="evenodd" clip-rule="evenodd" d="M30.1666 23.8343C29.567 22.4089 29.8752 20.9192 30.8552 20.5069C31.3549 20.2967 31.9329 20.4072 32.4589 20.7552C32.6808 20.902 33.0814 20.7333 33.1315 20.472C33.2503 19.852 33.5755 19.3609 34.0757 19.1504C34.5761 18.9399 35.1549 19.0511 35.6815 19.4001C35.9039 19.5476 36.3083 19.3775 36.3585 19.1153C36.4772 18.495 36.8024 18.0036 37.3028 17.7931C37.8031 17.5826 38.3819 17.6937 38.9083 18.0426C39.1308 18.1901 39.5354 18.0198 39.5855 17.7576C39.7041 17.1371 40.0294 16.6456 40.5299 16.435C41.0304 16.2244 41.6093 16.3357 42.1359 16.6848C42.3583 16.8323 42.7626 16.6623 42.8128 16.4002C42.9315 15.7801 43.2567 15.2889 43.757 15.0785C44.7369 14.6662 46.0175 15.4875 46.6171 16.9129C47.2168 18.3383 46.9086 19.828 45.9286 20.2403C45.4281 20.4508 44.8492 20.3396 44.3226 19.9905C44.1002 19.843 43.6959 20.013 43.6457 20.2751C43.527 20.8951 43.2017 21.3863 42.7015 21.5968C42.2012 21.8073 41.6224 21.6962 41.096 21.3473C40.8735 21.1999 40.4689 21.3701 40.4188 21.6323C40.3002 22.2528 39.9749 22.7444 39.4744 22.9549C38.974 23.1655 38.3951 23.0543 37.8686 22.7053C37.6462 22.5578 37.2418 22.7279 37.1916 22.9901C37.0729 23.6103 36.7477 24.1017 36.2473 24.3122C35.7475 24.5225 35.1696 24.4119 34.6436 24.064C34.4217 23.9172 34.021 24.0858 33.971 24.3472C33.8522 24.9671 33.527 25.4583 33.0268 25.6687C32.0469 26.081 30.7663 25.2597 30.1666 23.8343Z" fill="white"/>
</g>
<path d="M29.8426 23.0506C28.0009 18.6729 30.0567 13.631 34.4344 11.7892L35.6796 11.2653C40.0574 9.42351 45.0993 11.4793 46.941 15.857C47.1232 16.29 46.9199 16.7886 46.4869 16.9708L30.9564 23.5047C30.5234 23.6869 30.0248 23.4835 29.8426 23.0506Z" fill="white"/>
</g>
<g clip-path="url(#clip3_3534_62638)">
<path d="M34.1704 25.0969C33.908 24.4733 34.2008 23.7551 34.8245 23.4927L44.1802 19.5566C44.8038 19.2943 45.522 19.5871 45.7844 20.2107C46.0467 20.8343 45.7539 21.5525 45.1303 21.8149L35.7745 25.751C35.1509 26.0134 34.4327 25.7205 34.1704 25.0969Z" fill="#FF6E4B"/>
<g filter="url(#filter3_i_3534_62638)">
<path d="M34.2773 27.143C33.9774 26.4303 34.3121 25.6095 35.0248 25.3096L45.671 20.8306C46.3837 20.5308 47.2045 20.8654 47.5043 21.5781C47.8042 22.2908 47.4695 23.1117 46.7568 23.4115L36.1106 27.8905C35.3979 28.1904 34.5771 27.8557 34.2773 27.143Z" fill="#FEC06D"/>
</g>
<path d="M33.0844 22.5159C32.8221 21.8923 33.1149 21.174 33.7385 20.9117L43.0942 16.9756C43.7178 16.7132 44.4361 17.006 44.6984 17.6297C44.9608 18.2533 44.6679 18.9715 44.0443 19.2338L34.6886 23.1699C34.065 23.4323 33.3468 23.1395 33.0844 22.5159Z" fill="#977A60"/>
<mask id="mask1_3534_62638" style="mask-type:alpha" maskUnits="userSpaceOnUse" x="32" y="18" width="15" height="8">
<path d="M46.2815 19.5998C46.3979 19.8764 46.268 20.1949 45.9914 20.3113L34.0885 25.319C33.8119 25.4354 33.4934 25.3055 33.3771 25.0289L32.9841 24.0948C32.8677 23.8182 32.9976 23.4997 33.2741 23.3833L45.1771 18.3756C45.4536 18.2592 45.7721 18.3891 45.8885 18.6657L46.2815 19.5998Z" fill="#B8D12B"/>
</mask>
<g mask="url(#mask1_3534_62638)">
<path fill-rule="evenodd" clip-rule="evenodd" d="M32.7179 23.4324C32.3056 22.4524 32.6213 21.3846 33.4231 21.0473C33.8371 20.8731 34.2998 20.9277 34.7072 21.1563C34.8746 21.2502 35.1321 21.1417 35.1819 20.9564C35.3032 20.5049 35.5878 20.1354 36.0021 19.9611C36.4163 19.7869 36.879 19.8416 37.2865 20.0703C37.4538 20.1641 37.7112 20.0558 37.7611 19.8706C37.8825 19.4192 38.167 19.05 38.5812 18.8757C38.9952 18.7015 39.4579 18.7562 39.8653 18.9848C40.0326 19.0786 40.2902 18.9702 40.34 18.7849C40.4613 18.3333 40.7459 17.9639 41.1602 17.7896C41.5198 17.6383 41.916 17.6596 42.2809 17.8176C42.4241 17.8795 42.6027 17.8044 42.6586 17.6588C42.8009 17.2879 43.0626 16.9901 43.4218 16.839C44.2236 16.5016 45.2078 17.0226 45.6201 18.0025C46.0324 18.9825 45.7166 20.0504 44.9148 20.3877C44.5553 20.539 44.159 20.5176 43.7941 20.3597C43.651 20.2977 43.4724 20.3728 43.4165 20.5184C43.2742 20.8893 43.0125 21.1871 42.6532 21.3383C42.2392 21.5125 41.7765 21.4578 41.3691 21.2292C41.2018 21.1354 40.9442 21.2438 40.8944 21.4291C40.7731 21.8807 40.4885 22.2501 40.0742 22.4245C39.6601 22.5987 39.1973 22.5439 38.7898 22.3153C38.6225 22.2214 38.3651 22.3297 38.3153 22.515C38.1938 22.9663 37.9093 23.3355 37.4951 23.5098C37.0811 23.684 36.6185 23.6293 36.211 23.4008C36.0437 23.3069 35.7861 23.4153 35.7364 23.6006C35.615 24.0522 35.3305 24.4216 34.9161 24.596C34.1143 24.9333 33.1301 24.4123 32.7179 23.4324Z" fill="#B8D12B"/>
</g>
<g filter="url(#filter4_i_3534_62638)">
<path fill-rule="evenodd" clip-rule="evenodd" d="M31.8946 16.0749C32.541 14.9051 33.6129 13.7519 35.3244 13.0319C36.4475 12.5594 37.4715 12.3005 38.395 12.1988C41.2393 11.4921 44.2531 12.9417 45.4252 15.7276C45.5534 16.0323 45.4103 16.3832 45.1056 16.5114L32.3367 21.8835C32.032 22.0117 31.6811 21.8686 31.5529 21.5639C30.8394 19.8681 30.9571 18.0307 31.7209 16.5053C31.7563 16.3659 31.8134 16.222 31.8946 16.0749Z" fill="#FEC06D"/>
</g>
<path d="M40.09 20.5182L34.1395 23.0217C34.1156 23.0317 34.1171 23.066 34.1417 23.0741L37.1019 24.0404C37.1126 24.0439 37.1244 24.0406 37.1318 24.0321L40.1221 20.5623C40.1414 20.5399 40.1173 20.5067 40.09 20.5182Z" fill="#FDDA86"/>
<path d="M34.1693 16.0216C34.1672 16.2209 34.0088 16.3809 33.8155 16.3788C33.6222 16.3768 33.4672 16.2135 33.4693 16.0142C33.4714 15.8149 33.6333 15.3268 33.8265 15.3289C34.0198 15.3309 34.1714 15.8223 34.1693 16.0216Z" fill="#FDDA86"/>
<path d="M33.3724 18.6368C33.3703 18.8362 33.2119 18.9961 33.0186 18.9941C32.8253 18.992 32.6703 18.8288 32.6724 18.6295C32.6745 18.4301 32.8364 17.9421 33.0297 17.9441C33.223 17.9462 33.3745 18.4375 33.3724 18.6368Z" fill="#FDDA86"/>
<path d="M39.7455 13.3363C39.9043 13.4568 39.9383 13.6793 39.8215 13.8333C39.7047 13.9873 39.4812 14.0145 39.3224 13.894C39.1636 13.7735 38.8681 13.3527 38.985 13.1987C39.1018 13.0447 39.5867 13.2158 39.7455 13.3363Z" fill="#FDDA86"/>
<path d="M42.1752 14.5921C42.334 14.7126 42.368 14.9351 42.2512 15.0891C42.1344 15.2431 41.9109 15.2703 41.7521 15.1498C41.5933 15.0294 41.2978 14.6086 41.4147 14.4545C41.5315 14.3005 42.0163 14.4717 42.1752 14.5921Z" fill="#FDDA86"/>
<path d="M36.2718 15.6557C36.3491 15.8394 36.2673 16.0491 36.0892 16.1241C35.911 16.1991 35.7039 16.1109 35.6266 15.9271C35.5493 15.7434 35.5038 15.2312 35.682 15.1563C35.8602 15.0813 36.1945 15.4719 36.2718 15.6557Z" fill="#FDDA86"/>
<path d="M35.6077 18.5932C35.6851 18.7769 35.6033 18.9866 35.4251 19.0616C35.2469 19.1366 35.0398 19.0484 34.9625 18.8646C34.8852 18.6809 34.8398 18.1687 35.0179 18.0938C35.1961 18.0188 35.5304 18.4094 35.6077 18.5932Z" fill="#FDDA86"/>
<path d="M38.1859 17.5072C38.2632 17.691 38.1814 17.9007 38.0032 17.9757C37.8251 18.0506 37.618 17.9624 37.5407 17.7787C37.4633 17.595 37.4179 17.0828 37.596 17.0078C37.7742 16.9329 38.1086 17.3235 38.1859 17.5072Z" fill="#FDDA86"/>
<path d="M38.2093 14.8422C38.2866 15.0259 38.2048 15.2357 38.0267 15.3106C37.8485 15.3856 37.6414 15.2974 37.5641 15.1137C37.4868 14.9299 37.4413 14.4177 37.6195 14.3428C37.7977 14.2678 38.132 14.6585 38.2093 14.8422Z" fill="#FDDA86"/>
<path d="M40.7718 16.4213C40.8491 16.605 40.7673 16.8148 40.5892 16.8897C40.411 16.9647 40.2039 16.8765 40.1266 16.6928C40.0493 16.509 40.0038 15.9968 40.182 15.9219C40.3602 15.8469 40.6945 16.2376 40.7718 16.4213Z" fill="#FDDA86"/>
</g>
</g>
<path d="M6.928 30.2493C7.28705 29.3652 8.29487 28.9395 9.17903 29.2986L16.0299 32.0807C16.9141 32.4398 17.3397 33.4476 16.9807 34.3317L16.7007 35.0213C16.3416 35.9054 15.3338 36.3311 14.4496 35.9721L7.59875 33.1899C6.71459 32.8309 6.28892 31.8231 6.64797 30.9389L6.928 30.2493Z" fill="white"/>
<path fill-rule="evenodd" clip-rule="evenodd" d="M17.7464 18.3387C17.7857 18.357 17.8246 18.3757 17.8632 18.3949C18.41 18.0721 19.0707 17.9932 19.6746 18.2384C20.5948 18.6121 21.0847 19.6172 20.9096 20.6294C20.9657 20.6464 21.0213 20.6661 21.0765 20.6885C22.0967 21.1028 22.5881 22.2933 22.2306 23.4089C22.3118 23.4301 22.3923 23.4568 22.4718 23.4891C23.5464 23.9255 24.0343 25.2229 23.5615 26.3871C23.0888 27.5512 21.8344 28.1411 20.7599 27.7047C20.4318 27.5715 20.1585 27.3581 19.9504 27.0927C18.4104 29.3181 15.5419 30.2792 13.0009 29.2473C10.4834 28.2249 9.09942 25.5761 9.50928 22.9315C9.17836 22.9746 8.83734 22.9364 8.51273 22.8046C7.43816 22.3682 6.95028 21.0707 7.42303 19.9066C7.89115 18.7539 9.12562 18.1642 10.1931 18.5764C10.2018 18.553 10.2108 18.5296 10.2203 18.5063C10.693 17.3422 11.9474 16.7523 13.022 17.1886C13.3719 17.3308 13.6596 17.5642 13.8722 17.8546C14.4238 16.894 15.5496 16.4421 16.5268 16.839C17.1712 17.1007 17.6047 17.6721 17.7464 18.3387Z" fill="white"/>
<g filter="url(#filter5_f_3534_62638)">
<path fill-rule="evenodd" clip-rule="evenodd" d="M18.2678 22.013C18.7017 21.7968 19.2229 21.7609 19.7075 21.9576C20.4347 22.253 20.8557 22.9818 20.7934 23.7249C21.6609 24.1027 22.0733 25.1058 21.7152 25.9874C21.6987 26.0282 21.6808 26.068 21.6616 26.1068C21.7092 26.1216 21.7567 26.1385 21.8038 26.1577C22.6992 26.5213 23.1304 27.542 22.7667 28.4375C22.4031 29.333 21.3823 29.7641 20.4869 29.4005C20.1792 29.2755 19.9263 29.073 19.7417 28.8246C18.5459 30.4993 16.3181 31.2008 14.3281 30.3926C12.3954 29.6078 11.2947 27.6458 11.5172 25.67C11.3561 25.6535 11.1946 25.6141 11.037 25.5501C10.1415 25.1864 9.71038 24.1657 10.074 23.2702C10.4127 22.4363 11.3212 22.0051 12.1678 22.2435L12.1769 22.2204C12.5406 21.325 13.5613 20.8938 14.4568 21.2575C14.6959 21.3546 14.9018 21.4985 15.0684 21.6744C15.4927 20.9142 16.4268 20.5719 17.2541 20.9078C17.7602 21.1134 18.118 21.5289 18.2678 22.013Z" fill="white"/>
</g>
<path d="M6.08974 22.0172C6.32926 21.4274 7.00158 21.1434 7.59141 21.3829L22.6423 27.4951C23.2321 27.7346 23.5161 28.4069 23.2766 28.9968C21.4069 33.6007 16.1591 35.8173 11.5551 33.9476L11.0406 33.7387C6.43666 31.869 4.22008 26.6211 6.08974 22.0172Z" fill="white"/>
<path d="M8.22993 30.6711C8.44812 30.1338 9.06056 29.8751 9.59784 30.0933L15.1106 32.332C15.6479 32.5502 15.9066 33.1627 15.6884 33.7C15.4702 34.2372 14.8578 34.4959 14.3205 34.2777L8.8077 32.039C8.27041 31.8208 8.01174 31.2084 8.22993 30.6711Z" fill="#FF7D5F"/>
<path fill-rule="evenodd" clip-rule="evenodd" d="M14.0104 19.2269C14.4334 18.4633 15.3698 18.1188 16.1988 18.4554C16.7125 18.6641 17.0734 19.0889 17.2191 19.5823C17.3996 19.6564 17.5731 19.7404 17.7392 19.8334C18.1324 19.6902 18.5779 19.6867 18.9961 19.8566C19.7222 20.1514 20.143 20.8784 20.0823 21.6202C20.8925 21.9694 21.3084 22.8627 21.0751 23.6966L21.099 23.7061C21.9944 24.0698 22.4256 25.0905 22.0619 25.986C21.6983 26.8814 20.6775 27.3126 19.7821 26.9489C19.6023 26.8759 19.4412 26.7764 19.3015 26.6567C18.068 28.429 15.7318 29.1778 13.6471 28.3312C11.5742 27.4894 10.4228 25.3434 10.7554 23.2246C10.4993 23.2416 10.2355 23.2024 9.98172 23.0994C9.08624 22.7357 8.65512 21.715 9.01877 20.8195C9.3566 19.9876 10.2615 19.5565 11.1063 19.791L11.1151 19.7689C11.4787 18.8734 12.4994 18.4423 13.3949 18.8059C13.6358 18.9038 13.8432 19.0492 14.0104 19.2269Z" fill="white"/>
<g filter="url(#filter6_f_3534_62638)">
<path fill-rule="evenodd" clip-rule="evenodd" d="M19.0195 22.5255C18.6101 22.3592 18.1679 22.4006 17.8098 22.6005C17.7565 22.5674 17.702 22.5357 17.6466 22.5054C17.5004 22.2074 17.2483 21.96 16.9166 21.8253C16.3895 21.6113 15.8082 21.7415 15.4219 22.1106C15.3761 22.1174 15.3306 22.1251 15.2852 22.1336C15.1564 22.0044 15 21.8983 14.8203 21.8253C14.104 21.5344 13.2874 21.8793 12.9965 22.5957C12.9877 22.6172 12.9796 22.6389 12.9719 22.6605C12.8935 22.6079 12.8084 22.5624 12.7174 22.5255C12.0011 22.2346 11.1845 22.5795 10.8936 23.2958C10.6026 24.0122 10.9475 24.8288 11.6639 25.1197C11.843 25.1925 12.0284 25.2255 12.2102 25.2228C11.8467 26.9899 12.7237 28.7918 14.3815 29.465C16.1251 30.1731 18.1201 29.3839 19.0391 27.6949C19.1897 27.9456 19.42 28.1514 19.7118 28.27C20.4282 28.5609 21.2448 28.216 21.5357 27.4996C21.8143 26.8137 21.5099 26.0359 20.8547 25.7156C21.1213 25.0076 20.7761 24.2121 20.071 23.9258C20.0121 23.9018 19.9524 23.8822 19.8925 23.8667C19.9103 23.2979 19.5777 22.7521 19.0195 22.5255Z" fill="#E5E5E5" fill-opacity="0.52"/>
</g>
<g filter="url(#filter7_i_3534_62638)">
<path d="M7.91451 22.5313C8.11274 22.0432 8.66914 21.8082 9.15727 22.0064L21.3337 26.9512C21.8218 27.1494 22.0568 27.7058 21.8586 28.194C20.3113 32.0041 15.9682 33.8385 12.158 32.2912L12.0118 32.2318C8.20162 30.6845 6.36721 26.3414 7.91451 22.5313Z" fill="#FFC6A3"/>
</g>
<path d="M8.625 47.0081C8.625 44.8695 8.625 43.8002 9.0412 42.9834C9.40729 42.2649 9.99145 41.6807 10.71 41.3146C11.5268 40.8984 12.5961 40.8984 14.7347 40.8984H21.5017C22.6241 40.8984 23.1854 40.8984 23.7003 41.0458C24.1564 41.1763 24.5841 41.3907 24.9617 41.6779C25.388 42.0022 25.7239 42.4518 26.3958 43.3509L26.6686 43.716C27.3405 44.6151 27.6765 45.0647 28.1028 45.389C28.4803 45.6762 28.9081 45.8906 29.3641 46.0211C29.8791 46.1685 30.4403 46.1685 31.5628 46.1685H41.0167H41.7153C43.8539 46.1685 44.9232 46.1685 45.74 46.5847C46.4585 46.9507 47.0427 47.5349 47.4088 48.2534C47.825 49.0702 47.825 50.1395 47.825 52.2781V65.2388C47.825 67.3774 47.825 68.4467 47.4088 69.2635C47.0427 69.982 46.4585 70.5661 45.74 70.9322C44.9232 71.3484 43.8539 71.3484 41.7153 71.3484H14.7347C12.5961 71.3484 11.5268 71.3484 10.71 70.9322C9.99145 70.5661 9.40729 69.982 9.0412 69.2635C8.625 68.4467 8.625 67.3774 8.625 65.2388L8.625 47.0081Z" fill="#F8F891"/>
</g>
</g>
<defs>
<filter id="filter0_d_3534_62638" x="16.1783" y="30.4206" width="26.0106" height="23.0165" filterUnits="userSpaceOnUse" color-interpolation-filters="sRGB">
<feFlood flood-opacity="0" result="BackgroundImageFix"/>
<feColorMatrix in="SourceAlpha" type="matrix" values="0 0 0 0 0 0 0 0 0 0 0 0 0 0 0 0 0 0 127 0" result="hardAlpha"/>
<feOffset dy="0.256964"/>
<feGaussianBlur stdDeviation="0.14133"/>
<feComposite in2="hardAlpha" operator="out"/>
<feColorMatrix type="matrix" values="0 0 0 0 0.712793 0 0 0 0 0.335462 0 0 0 0 0.254605 0 0 0 0.4 0"/>
<feBlend mode="normal" in2="BackgroundImageFix" result="effect1_dropShadow_3534_62638"/>
<feBlend mode="normal" in="SourceGraphic" in2="effect1_dropShadow_3534_62638" result="shape"/>
</filter>
<filter id="filter1_i_3534_62638" x="21.8486" y="36.1846" width="17.542" height="14.8975" filterUnits="userSpaceOnUse" color-interpolation-filters="sRGB">
<feFlood flood-opacity="0" result="BackgroundImageFix"/>
<feBlend mode="normal" in="SourceGraphic" in2="BackgroundImageFix" result="shape"/>
<feColorMatrix in="SourceAlpha" type="matrix" values="0 0 0 0 0 0 0 0 0 0 0 0 0 0 0 0 0 0 127 0" result="hardAlpha"/>
<feOffset dx="-4.15704" dy="0.77598"/>
<feGaussianBlur stdDeviation="0.110854"/>
<feComposite in2="hardAlpha" operator="arithmetic" k2="-1" k3="1"/>
<feColorMatrix type="matrix" values="0 0 0 0 0.996078 0 0 0 0 0.752941 0 0 0 0 0.427451 0 0 0 0.8 0"/>
<feBlend mode="normal" in2="shape" result="effect1_innerShadow_3534_62638"/>
</filter>
<filter id="filter2_d_3534_62638" x="23.4293" y="4.19083" width="29.8212" height="29.8192" filterUnits="userSpaceOnUse" color-interpolation-filters="sRGB">
<feFlood flood-opacity="0" result="BackgroundImageFix"/>
<feColorMatrix in="SourceAlpha" type="matrix" values="0 0 0 0 0 0 0 0 0 0 0 0 0 0 0 0 0 0 127 0" result="hardAlpha"/>
<feOffset dy="0.220559"/>
<feGaussianBlur stdDeviation="0.121308"/>
<feComposite in2="hardAlpha" operator="out"/>
<feColorMatrix type="matrix" values="0 0 0 0 0.712793 0 0 0 0 0.335462 0 0 0 0 0.254605 0 0 0 0.4 0"/>
<feBlend mode="normal" in2="BackgroundImageFix" result="effect1_dropShadow_3534_62638"/>
<feBlend mode="normal" in="SourceGraphic" in2="effect1_dropShadow_3534_62638" result="shape"/>
</filter>
<filter id="filter3_i_3534_62638" x="34.052" y="20.6087" width="13.5652" height="7.39132" filterUnits="userSpaceOnUse" color-interpolation-filters="sRGB">
<feFlood flood-opacity="0" result="BackgroundImageFix"/>
<feBlend mode="normal" in="SourceGraphic" in2="BackgroundImageFix" result="shape"/>
<feColorMatrix in="SourceAlpha" type="matrix" values="0 0 0 0 0 0 0 0 0 0 0 0 0 0 0 0 0 0 127 0" result="hardAlpha"/>
<feOffset dx="-1.2883" dy="-0.420097"/>
<feGaussianBlur stdDeviation="0.0560129"/>
<feComposite in2="hardAlpha" operator="arithmetic" k2="-1" k3="1"/>
<feColorMatrix type="matrix" values="0 0 0 0 0.996078 0 0 0 0 0.713726 0 0 0 0 0.333333 0 0 0 1 0"/>
<feBlend mode="normal" in2="shape" result="effect1_innerShadow_3534_62638"/>
</filter>
<filter id="filter4_i_3534_62638" x="30.9661" y="11.9935" width="14.5027" height="9.93719" filterUnits="userSpaceOnUse" color-interpolation-filters="sRGB">
<feFlood flood-opacity="0" result="BackgroundImageFix"/>
<feBlend mode="normal" in="SourceGraphic" in2="BackgroundImageFix" result="shape"/>
<feColorMatrix in="SourceAlpha" type="matrix" values="0 0 0 0 0 0 0 0 0 0 0 0 0 0 0 0 0 0 127 0" result="hardAlpha"/>
<feOffset dx="-1.70839" dy="-0.0280064"/>
<feGaussianBlur stdDeviation="0.0560129"/>
<feComposite in2="hardAlpha" operator="arithmetic" k2="-1" k3="1"/>
<feColorMatrix type="matrix" values="0 0 0 0 0.996842 0 0 0 0 0.712567 0 0 0 0 0.332005 0 0 0 1 0"/>
<feBlend mode="normal" in2="shape" result="effect1_innerShadow_3534_62638"/>
</filter>
<filter id="filter5_f_3534_62638" x="9.73587" y="20.5689" width="13.372" height="10.3691" filterUnits="userSpaceOnUse" color-interpolation-filters="sRGB">
<feFlood flood-opacity="0" result="BackgroundImageFix"/>
<feBlend mode="normal" in="SourceGraphic" in2="BackgroundImageFix" result="shape"/>
<feGaussianBlur stdDeviation="0.10472" result="effect1_foregroundBlur_3534_62638"/>
</filter>
<filter id="filter6_f_3534_62638" x="10.6184" y="21.5511" width="11.1928" height="8.34418" filterUnits="userSpaceOnUse" color-interpolation-filters="sRGB">
<feFlood flood-opacity="0" result="BackgroundImageFix"/>
<feBlend mode="normal" in="SourceGraphic" in2="BackgroundImageFix" result="shape"/>
<feGaussianBlur stdDeviation="0.0853134" result="effect1_foregroundBlur_3534_62638"/>
</filter>
<filter id="filter7_i_3534_62638" x="7.19656" y="21.7649" width="14.7331" height="11.0759" filterUnits="userSpaceOnUse" color-interpolation-filters="sRGB">
<feFlood flood-opacity="0" result="BackgroundImageFix"/>
<feBlend mode="normal" in="SourceGraphic" in2="BackgroundImageFix" result="shape"/>
<feColorMatrix in="SourceAlpha" type="matrix" values="0 0 0 0 0 0 0 0 0 0 0 0 0 0 0 0 0 0 127 0" result="hardAlpha"/>
<feOffset dx="-2.81534" dy="-0.895791"/>
<feGaussianBlur stdDeviation="0.0853134"/>
<feComposite in2="hardAlpha" operator="arithmetic" k2="-1" k3="1"/>
<feColorMatrix type="matrix" values="0 0 0 0 1 0 0 0 0 0.568627 0 0 0 0 0.466667 0 0 0 0.4 0"/>
<feBlend mode="normal" in2="shape" result="effect1_innerShadow_3534_62638"/>
</filter>
<linearGradient id="paint0_linear_3534_62638" x1="14.05" y1="11.8486" x2="14.05" y2="100.005" gradientUnits="userSpaceOnUse">
<stop stop-color="#F8F891"/>
<stop offset="0.37" stop-color="#737373"/>
</linearGradient>
<clipPath id="clip0_3534_62638">
<rect width="56" height="56" rx="12" fill="white"/>
</clipPath>
<clipPath id="clip1_3534_62638">
<rect width="56" height="47.95" fill="white" transform="translate(-0.125 8.34961)"/>
</clipPath>
<clipPath id="clip2_3534_62638">
<rect width="22.4" height="22.4" fill="white" transform="translate(23.6719 12.8994) rotate(-22.8173)"/>
</clipPath>
<clipPath id="clip3_3534_62638">
<rect width="17.85" height="17.85" fill="white" transform="translate(26.8203 13.9492) rotate(-22.8173)"/>
</clipPath>
</defs>
</svg>
