<svg width="32" height="32" viewBox="0 0 32 32" fill="none" xmlns="http://www.w3.org/2000/svg">
<rect x="7" y="7" width="17" height="17" fill="#F5F5F5"/>
<mask id="mask0_1869_28626" style="mask-type:alpha" maskUnits="userSpaceOnUse" x="1" y="1" width="30" height="30">
<rect x="1" y="1" width="30" height="30" fill="#D6D6D6"/>
</mask>
<g mask="url(#mask0_1869_28626)">
<path d="M16 17.75L19.625 21.375C19.8542 21.6042 20.1458 21.7188 20.5 21.7188C20.8542 21.7188 21.1458 21.6042 21.375 21.375C21.6042 21.1458 21.7188 20.8542 21.7188 20.5C21.7188 20.1458 21.6042 19.8542 21.375 19.625L17.75 16L21.375 12.375C21.6042 12.1458 21.7188 11.8542 21.7188 11.5C21.7188 11.1458 21.6042 10.8542 21.375 10.625C21.1458 10.3958 20.8542 10.2812 20.5 10.2812C20.1458 10.2812 19.8542 10.3958 19.625 10.625L16 14.25L12.375 10.625C12.1458 10.3958 11.8542 10.2812 11.5 10.2812C11.1458 10.2812 10.8542 10.3958 10.625 10.625C10.3958 10.8542 10.2812 11.1458 10.2812 11.5C10.2812 11.8542 10.3958 12.1458 10.625 12.375L14.25 16L10.625 19.625C10.3958 19.8542 10.2812 20.1458 10.2812 20.5C10.2812 20.8542 10.3958 21.1458 10.625 21.375C10.8542 21.6042 11.1458 21.7188 11.5 21.7188C11.8542 21.7188 12.1458 21.6042 12.375 21.375L16 17.75ZM16 28.5C14.2708 28.5 12.6458 28.1719 11.125 27.5156C9.60417 26.8594 8.28125 25.9688 7.15625 24.8438C6.03125 23.7188 5.14062 22.3958 4.48438 20.875C3.82812 19.3542 3.5 17.7292 3.5 16C3.5 14.2708 3.82812 12.6458 4.48438 11.125C5.14062 9.60417 6.03125 8.28125 7.15625 7.15625C8.28125 6.03125 9.60417 5.14062 11.125 4.48438C12.6458 3.82812 14.2708 3.5 16 3.5C17.7292 3.5 19.3542 3.82812 20.875 4.48438C22.3958 5.14062 23.7188 6.03125 24.8438 7.15625C25.9688 8.28125 26.8594 9.60417 27.5156 11.125C28.1719 12.6458 28.5 14.2708 28.5 16C28.5 17.7292 28.1719 19.3542 27.5156 20.875C26.8594 22.3958 25.9688 23.7188 24.8438 24.8438C23.7188 25.9688 22.3958 26.8594 20.875 27.5156C19.3542 28.1719 17.7292 28.5 16 28.5Z" fill="#575757"/>
</g>
</svg>
