<svg width="140" height="140" viewBox="0 0 140 140" fill="none" xmlns="http://www.w3.org/2000/svg">
<g clip-path="url(#clip0_2284_35093)">
<rect width="140" height="140" rx="30" fill="#FF5733"/>
<g filter="url(#filter0_d_2284_35093)">
<path d="M59.3442 93.5333C57.5318 89.2924 59.5004 84.3852 63.7413 82.5728L90.1687 71.2784C94.4095 69.4659 99.3168 71.4346 101.129 75.6754L101.261 75.9845C103.074 80.2254 101.105 85.1326 96.8642 86.9451L70.4369 98.2394C66.196 100.052 61.2888 98.0833 59.4763 93.8424L59.3442 93.5333Z" fill="white"/>
<path fill-rule="evenodd" clip-rule="evenodd" d="M57.1066 28.9349C57.5522 28.7599 58.0002 28.5998 58.45 28.4541C59.1927 26.1461 60.8938 24.1603 63.2984 23.1326C66.7757 21.6465 70.6843 22.6082 73.1019 25.2465C73.2465 25.175 73.394 25.1071 73.5441 25.0429C77.948 23.1608 83.0438 25.2049 84.9263 29.6085L84.9337 29.6054C89.3378 27.7232 94.4339 29.7676 96.3161 34.1717C98.1983 38.5758 96.1539 43.6719 91.7498 45.5541C90.6206 46.0367 89.4459 46.2612 88.2915 46.2539C90.2294 56.6654 84.7799 67.3949 74.6356 71.7303C64.4927 76.0652 52.9734 72.5898 46.7873 63.996C45.9964 64.8309 45.0255 65.5212 43.9008 66.0019C39.4966 67.8841 34.4005 65.8397 32.5183 61.4356C30.6361 57.0314 32.6805 51.9354 37.0846 50.0531L37.0863 50.0524C35.2051 45.6486 37.2495 40.5533 41.6532 38.6713C42.6896 38.2284 43.7643 38.0029 44.8264 37.9744C44.3003 34.1946 46.3326 30.3813 50.0105 28.8094C52.3782 27.7976 54.9459 27.9205 57.1066 28.9349Z" fill="white"/>
<g filter="url(#filter1_f_2284_35093)">
<path fill-rule="evenodd" clip-rule="evenodd" d="M67.1414 37.1653C67.4853 37.0304 67.831 36.9069 68.178 36.7945C68.7538 35.0019 70.0745 33.4594 71.9417 32.6614C74.6404 31.508 77.6738 32.2545 79.5499 34.3021C79.6621 34.2466 79.7765 34.1939 79.893 34.1441C83.3108 32.6834 87.2656 34.27 88.7263 37.6878L88.7269 37.6892L88.7314 37.6873C92.1492 36.2266 96.104 37.8132 97.5647 41.231C99.0253 44.6487 97.4388 48.6035 94.021 50.0642C93.1446 50.4387 92.2329 50.6129 91.337 50.6073C92.841 58.6871 88.612 67.0138 80.7396 70.3783C72.8685 73.7422 63.9295 71.0455 59.1287 64.3769C58.5148 65.025 57.7613 65.5609 56.8882 65.9341C53.4704 67.3947 49.5156 65.8082 48.0549 62.3904C46.5943 58.9726 48.1808 55.0178 51.5986 53.5572L51.6002 53.5565C50.1398 50.1388 51.7264 46.1842 55.144 44.7236C55.9487 44.3797 56.7831 44.2047 57.6077 44.1828C57.1973 41.248 58.7746 38.2864 61.6302 37.066C63.4692 36.28 65.4636 36.3763 67.1414 37.1653Z" fill="white"/>
</g>
<path d="M34.4778 70.5977C33.4977 68.3044 34.5622 65.6508 36.8555 64.6707L95.6785 39.5312C97.9718 38.5511 100.625 39.6157 101.606 41.909C109.256 59.8097 100.946 80.523 83.0455 88.1734L80.7421 89.1578C62.8414 96.8081 42.1281 88.4985 34.4778 70.5977Z" fill="white"/>
</g>
<path d="M65.1977 89.3242C64.3464 87.3321 65.2711 85.0271 67.2631 84.1758L88.7146 75.008C90.7066 74.1566 93.0117 75.0813 93.863 77.0733C94.7143 79.0654 93.7896 81.3704 91.7976 82.2217L70.3461 91.3896C68.3541 92.2409 66.0491 91.3162 65.1977 89.3242Z" fill="#FF7D5F"/>
<path fill-rule="evenodd" clip-rule="evenodd" d="M49.3856 42.015C48.9573 38.9358 50.6129 35.8295 53.6091 34.549C55.5393 33.7241 57.6326 33.8249 59.3936 34.6528C59.7554 34.5108 60.1191 34.3808 60.4843 34.2626C61.0896 32.3828 62.4753 30.7657 64.4338 29.9287C67.2648 28.7188 70.4467 29.5004 72.4165 31.6465C72.5359 31.5874 72.6577 31.5312 72.7818 31.4782C76.3693 29.945 80.5205 31.61 82.0543 35.1971L82.0598 35.1947C85.6478 33.6613 89.7995 35.3268 91.3329 38.9148C92.8663 42.5028 91.2008 46.6545 87.6128 48.1879C86.6927 48.5812 85.7354 48.764 84.7948 48.758C86.3766 57.2419 81.9368 65.9862 73.6706 69.5189C65.4066 73.0508 56.0212 70.2187 50.9818 63.2162C50.3376 63.8962 49.5468 64.4584 48.6307 64.8499C45.0428 66.3833 40.891 64.7177 39.3576 61.1297C37.8242 57.5418 39.4898 53.3901 43.0778 51.8567L43.0799 51.8558C41.5465 48.2678 43.2121 44.1162 46.8 42.5828C47.6445 42.2219 48.5202 42.0382 49.3856 42.015Z" fill="white"/>
<g filter="url(#filter2_f_2284_35093)">
<path fill-rule="evenodd" clip-rule="evenodd" d="M71.4795 37.6958C69.957 38.3465 68.8805 39.6047 68.4121 41.0667C68.1277 41.1589 67.8445 41.2602 67.5627 41.3709C66.1972 40.7308 64.5751 40.6536 63.0792 41.2929C60.7563 42.2857 59.4717 44.6926 59.8006 47.0799C59.1293 47.0979 58.45 47.2405 57.7949 47.5204C55.0105 48.7104 53.718 51.9323 54.908 54.7167L54.9085 54.7179L54.9071 54.7185C52.1227 55.9085 50.8302 59.1304 52.0202 61.9148C53.2101 64.6992 56.432 65.9917 59.2164 64.8017C59.9269 64.4981 60.5402 64.0622 61.04 63.535C64.9507 68.9694 72.2343 71.1672 78.6475 68.4263C85.0619 65.685 88.5073 58.9 87.2806 52.3167C88.0105 52.3213 88.7533 52.1794 89.4673 51.8743C92.2518 50.6843 93.5443 47.4624 92.3543 44.678C91.1643 41.8936 87.9424 40.601 85.158 41.791L85.1562 41.7918L85.1546 41.7882C83.9647 39.0038 80.7428 37.7113 77.9584 38.9013C77.8626 38.9422 77.7687 38.9855 77.6765 39.0311C76.1479 37.364 73.6774 36.7565 71.4795 37.6958Z" fill="#E5E5E5" fill-opacity="0.52"/>
</g>
<g filter="url(#filter3_i_2284_35093)">
<path d="M40.9536 68.5919C40.1551 66.7236 41.0224 64.5617 42.8907 63.7632L90.8128 43.2825C92.6811 42.484 94.843 43.3513 95.6415 45.2196C101.874 59.8031 95.1044 76.6779 80.5209 82.9105L78.6444 83.7124C64.061 89.9451 47.1862 83.1754 40.9536 68.5919Z" fill="#FFC6A3"/>
</g>
<path d="M9.27344 120.641C9.27344 114.597 9.27344 111.575 10.4497 109.266C11.4844 107.235 13.1353 105.584 15.166 104.55C17.4745 103.374 20.4966 103.374 26.5406 103.374H50.2637C53.1946 103.374 54.66 103.374 56.0208 103.735C57.2265 104.055 58.3677 104.581 59.3935 105.291C60.5511 106.092 61.5019 107.208 63.4035 109.438L65.1596 111.498C67.0611 113.728 68.0119 114.843 69.1695 115.644C70.1954 116.354 71.3365 116.881 72.5423 117.201C73.903 117.562 75.3684 117.562 78.2994 117.562H108.775H112.422C118.466 117.562 121.488 117.562 123.797 118.738C125.828 119.773 127.478 121.424 128.513 123.455C129.689 125.763 129.689 128.785 129.689 134.829L129.689 168.088C129.689 174.132 129.689 177.154 128.513 179.462C127.478 181.493 125.828 183.144 123.797 184.179C121.488 185.355 118.466 185.355 112.422 185.355H26.5406C20.4966 185.355 17.4745 185.355 15.166 184.179C13.1353 183.144 11.4844 181.493 10.4497 179.462C9.27344 177.154 9.27344 174.132 9.27344 168.088L9.27344 120.641Z" fill="#F8F891"/>
</g>
<defs>
<filter id="filter0_d_2284_35093" x="27.5958" y="15.7662" width="91.3378" height="95.1859" filterUnits="userSpaceOnUse" color-interpolation-filters="sRGB">
<feFlood flood-opacity="0" result="BackgroundImageFix"/>
<feColorMatrix in="SourceAlpha" type="matrix" values="0 0 0 0 0 0 0 0 0 0 0 0 0 0 0 0 0 0 127 0" result="hardAlpha"/>
<feOffset dx="5.12799" dy="2.68609"/>
<feGaussianBlur stdDeviation="4.67624"/>
<feComposite in2="hardAlpha" operator="out"/>
<feColorMatrix type="matrix" values="0 0 0 0 1 0 0 0 0 0.446475 0 0 0 0 0.315641 0 0 0 0.3 0"/>
<feBlend mode="normal" in2="BackgroundImageFix" result="effect1_dropShadow_2284_35093"/>
<feBlend mode="normal" in="SourceGraphic" in2="effect1_dropShadow_2284_35093" result="shape"/>
</filter>
<filter id="filter1_f_2284_35093" x="46.5964" y="31.199" width="52.4321" height="41.5469" filterUnits="userSpaceOnUse" color-interpolation-filters="sRGB">
<feFlood flood-opacity="0" result="BackgroundImageFix"/>
<feBlend mode="normal" in="SourceGraphic" in2="BackgroundImageFix" result="shape"/>
<feGaussianBlur stdDeviation="0.459595" result="effect1_foregroundBlur_2284_35093"/>
</filter>
<filter id="filter2_f_2284_35093" x="50.8293" y="36.5046" width="42.7164" height="33.8507" filterUnits="userSpaceOnUse" color-interpolation-filters="sRGB">
<feFlood flood-opacity="0" result="BackgroundImageFix"/>
<feBlend mode="normal" in="SourceGraphic" in2="BackgroundImageFix" result="shape"/>
<feGaussianBlur stdDeviation="0.374425" result="effect1_foregroundBlur_2284_35093"/>
</filter>
<filter id="filter3_i_2284_35093" x="39.9074" y="42.2365" width="58.0535" height="43.7938" filterUnits="userSpaceOnUse" color-interpolation-filters="sRGB">
<feFlood flood-opacity="0" result="BackgroundImageFix"/>
<feBlend mode="normal" in="SourceGraphic" in2="BackgroundImageFix" result="shape"/>
<feColorMatrix in="SourceAlpha" type="matrix" values="0 0 0 0 0 0 0 0 0 0 0 0 0 0 0 0 0 0 127 0" result="hardAlpha"/>
<feOffset dx="-12.356" dy="-3.93146"/>
<feGaussianBlur stdDeviation="0.374425"/>
<feComposite in2="hardAlpha" operator="arithmetic" k2="-1" k3="1"/>
<feColorMatrix type="matrix" values="0 0 0 0 1 0 0 0 0 0.568627 0 0 0 0 0.466667 0 0 0 0.4 0"/>
<feBlend mode="normal" in2="shape" result="effect1_innerShadow_2284_35093"/>
</filter>
<clipPath id="clip0_2284_35093">
<rect width="140" height="140" rx="30" fill="white"/>
</clipPath>
</defs>
</svg>
