<svg width="56" height="56" viewBox="0 0 56 56" fill="none" xmlns="http://www.w3.org/2000/svg">
<rect width="56" height="56" rx="12" fill="#F5F5F5"/>
<g clip-path="url(#clip0_3534_62442)">
<circle cx="14.175" cy="50.175" r="38.675" fill="url(#paint0_linear_3534_62442)" fill-opacity="0.18"/>
<path d="M8.39844 46.6595C8.39844 44.5209 8.39844 43.4516 8.81463 42.6348C9.18073 41.9163 9.76489 41.3321 10.4834 40.966C11.3002 40.5498 12.3695 40.5498 14.5081 40.5498H21.2751C22.3976 40.5498 22.9588 40.5498 23.4737 40.6972C23.9298 40.8277 24.3576 41.042 24.7351 41.3293C25.1614 41.6535 25.4974 42.1031 26.1693 43.0023L26.4421 43.3673C27.114 44.2665 27.4499 44.7161 27.8762 45.0404C28.2537 45.3276 28.6815 45.5419 29.1376 45.6725C29.6525 45.8198 30.2138 45.8198 31.3362 45.8198H40.7901H41.4888C43.6274 45.8198 44.6967 45.8198 45.5135 46.236C46.232 46.6021 46.8162 47.1863 47.1822 47.9048C47.5984 48.7216 47.5984 49.7909 47.5984 51.9295L47.5984 64.8902C47.5984 67.0287 47.5984 68.098 47.1822 68.9149C46.8161 69.6334 46.232 70.2175 45.5135 70.5836C44.6967 70.9998 43.6274 70.9998 41.4888 70.9998H14.5081C12.3695 70.9998 11.3002 70.9998 10.4834 70.5836C9.76489 70.2175 9.18073 69.6334 8.81463 68.9149C8.39844 68.098 8.39844 67.0287 8.39844 64.8902L8.39844 46.6595Z" fill="#F8F891"/>
</g>
<defs>
<linearGradient id="paint0_linear_3534_62442" x1="14.175" y1="11.5" x2="14.175" y2="99.6563" gradientUnits="userSpaceOnUse">
<stop stop-color="#F8F891"/>
<stop offset="0.37" stop-color="#737373"/>
</linearGradient>
<clipPath id="clip0_3534_62442">
<rect width="56" height="47.95" fill="white" transform="translate(0 8)"/>
</clipPath>
</defs>
</svg>
