<svg width="56" height="56" viewBox="0 0 56 56" fill="none" xmlns="http://www.w3.org/2000/svg">
<g clip-path="url(#clip0_3913_178498)">
<circle cx="14.176" cy="50.175" r="38.675" fill="url(#paint0_linear_3913_178498)" fill-opacity="0.18"/>
<path d="M8.39551 46.6595C8.39551 44.5209 8.39551 43.4516 8.8117 42.6348C9.1778 41.9163 9.76196 41.3321 10.4805 40.966C11.2973 40.5498 12.3666 40.5498 14.5052 40.5498H21.2722C22.3946 40.5498 22.9559 40.5498 23.4708 40.6972C23.9269 40.8277 24.3547 41.042 24.7322 41.3293C25.1585 41.6535 25.4944 42.1031 26.1663 43.0023L26.4391 43.3673C27.111 44.2665 27.447 44.7161 27.8733 45.0404C28.2508 45.3276 28.6786 45.5419 29.1347 45.6725C29.6496 45.8198 30.2108 45.8198 31.3333 45.8198H40.7872H41.4859C43.6244 45.8198 44.6937 45.8198 45.5106 46.236C46.2291 46.6021 46.8132 47.1863 47.1793 47.9048C47.5955 48.7216 47.5955 49.7909 47.5955 51.9295L47.5955 64.8902C47.5955 67.0287 47.5955 68.098 47.1793 68.9149C46.8132 69.6334 46.2291 70.2175 45.5106 70.5836C44.6937 70.9998 43.6244 70.9998 41.4859 70.9998H14.5052C12.3666 70.9998 11.2973 70.9998 10.4805 70.5836C9.76196 70.2175 9.1778 69.6334 8.8117 68.9149C8.39551 68.098 8.39551 67.0287 8.39551 64.8902L8.39551 46.6595Z" fill="#F8F891"/>
</g>
<defs>
<linearGradient id="paint0_linear_3913_178498" x1="14.176" y1="11.5" x2="14.176" y2="99.6563" gradientUnits="userSpaceOnUse">
<stop stop-color="#F8F891"/>
<stop offset="0.37" stop-color="#737373"/>
</linearGradient>
<clipPath id="clip0_3913_178498">
<rect y="8" width="56" height="47.95" rx="12" fill="white"/>
</clipPath>
</defs>
</svg>
