<svg width="32" height="32" viewBox="0 0 32 32" fill="none" xmlns="http://www.w3.org/2000/svg">
<path fill-rule="evenodd" clip-rule="evenodd" d="M19.5534 9.84755C18.705 8.03907 16.427 7.43878 14.7976 8.59433L6.96529 14.1488C5.69089 15.0526 5.2538 16.7436 5.93059 18.1517L6.43698 19.2053C7.14492 20.6782 8.84766 21.3826 10.3893 20.8403L13.1167 19.881L14.9415 26.8192C15.1472 27.6011 15.9696 28.0476 16.7373 27.7942L18.6025 27.1787C19.4065 26.9134 19.7939 26.0016 19.4266 25.2387L16.3073 18.7586L19.3384 17.6924C21.128 17.0629 21.9823 15.0253 21.1766 13.3077L19.5534 9.84755Z" fill="white"/>
<path d="M14.7976 8.59433L15.3269 9.34069L15.3269 9.34069L14.7976 8.59433ZM19.5534 9.84755L20.3818 9.45896L19.5534 9.84755ZM6.96529 14.1488L6.43598 13.4025L6.43598 13.4025L6.96529 14.1488ZM5.93059 18.1517L6.75528 17.7553L6.75528 17.7553L5.93059 18.1517ZM6.43698 19.2053L5.61229 19.6016L5.61229 19.6016L6.43698 19.2053ZM10.3893 20.8403L10.6929 21.7035L10.6929 21.7035L10.3893 20.8403ZM13.1167 19.881L14.0016 19.6482L13.7492 18.6885L12.8131 19.0178L13.1167 19.881ZM14.9415 26.8192L14.0566 27.0519L14.0566 27.0519L14.9415 26.8192ZM16.7373 27.7942L17.0241 28.6631L17.0241 28.6631L16.7373 27.7942ZM18.6025 27.1787L18.3157 26.3098L18.3157 26.3098L18.6025 27.1787ZM19.4266 25.2387L18.6022 25.6355L18.6022 25.6355L19.4266 25.2387ZM16.3073 18.7586L16.0037 17.8955L15.0396 18.2346L15.4829 19.1555L16.3073 18.7586ZM19.3384 17.6924L19.0348 16.8293L19.0348 16.8293L19.3384 17.6924ZM21.1766 13.3077L20.3482 13.6963L20.3482 13.6963L21.1766 13.3077ZM15.3269 9.34069C16.4912 8.51503 18.1189 8.94395 18.725 10.2361L20.3818 9.45896C19.2912 7.13419 16.3629 6.36253 14.2683 7.84796L15.3269 9.34069ZM7.49459 14.8952L15.3269 9.34069L14.2683 7.84796L6.43598 13.4025L7.49459 14.8952ZM6.75528 17.7553C6.2717 16.7492 6.58401 15.541 7.49459 14.8952L6.43598 13.4025C4.79777 14.5642 4.23589 16.7379 5.10591 18.5481L6.75528 17.7553ZM7.26167 18.8089L6.75528 17.7553L5.10591 18.5481L5.61229 19.6016L7.26167 18.8089ZM10.0857 19.9772C8.98415 20.3646 7.7675 19.8613 7.26167 18.8089L5.61229 19.6016C6.52233 21.495 8.71118 22.4006 10.6929 21.7035L10.0857 19.9772ZM12.8131 19.0178L10.0857 19.9772L10.6929 21.7035L13.4203 20.7441L12.8131 19.0178ZM15.8264 26.5864L14.0016 19.6482L12.2318 20.1137L14.0566 27.0519L15.8264 26.5864ZM16.4506 26.9253C16.1838 27.0134 15.8979 26.8582 15.8264 26.5864L14.0566 27.0519C14.3965 28.3439 15.7554 29.0818 17.0241 28.6631L16.4506 26.9253ZM18.3157 26.3098L16.4506 26.9253L17.0241 28.6631L18.8892 28.0477L18.3157 26.3098ZM18.6022 25.6355C18.7298 25.9007 18.5952 26.2176 18.3157 26.3098L18.8892 28.0477C20.2178 27.6092 20.8579 26.1024 20.2511 24.8418L18.6022 25.6355ZM15.4829 19.1555L18.6022 25.6355L20.2511 24.8418L17.1318 18.3618L15.4829 19.1555ZM19.0348 16.8293L16.0037 17.8955L16.611 19.6218L19.642 18.5556L19.0348 16.8293ZM20.3482 13.6963C20.9239 14.9235 20.3135 16.3795 19.0348 16.8293L19.642 18.5556C21.9426 17.7464 23.0407 15.127 22.005 12.9191L20.3482 13.6963ZM18.725 10.2361L20.3482 13.6963L22.005 12.9191L20.3818 9.45896L18.725 10.2361Z" fill="#737373"/>
<path d="M20.3975 5.31542L25.2998 15.1491C26.0071 16.5679 25.0936 18.2589 23.5193 18.4451L22.0089 18.6237C21.0536 18.7367 20.1296 18.2407 19.6958 17.3822L15.1915 8.46659C14.7428 7.57831 14.919 6.50188 15.6277 5.80315L16.7401 4.70641C17.8491 3.61292 19.7026 3.92155 20.3975 5.31542Z" fill="white" stroke="#737373" stroke-width="1.83"/>
</svg>
