<svg width="20" height="20" viewBox="0 0 20 20" fill="none" xmlns="http://www.w3.org/2000/svg">
<g id="cancel">
<mask id="mask0_5629_8919" style="mask-type:alpha" maskUnits="userSpaceOnUse" x="0" y="0" width="20" height="20">
<rect id="Bounding box" width="20" height="20" fill="#D6D6D6"/>
</mask>
<g mask="url(#mask0_5629_8919)">
<path id="cancel_2" d="M9.99935 11.1667L12.416 13.5834C12.5688 13.7362 12.7632 13.8126 12.9993 13.8126C13.2355 13.8126 13.4299 13.7362 13.5827 13.5834C13.7355 13.4306 13.8118 13.2362 13.8118 13.0001C13.8118 12.764 13.7355 12.5695 13.5827 12.4167L11.166 10.0001L13.5827 7.58341C13.7355 7.43064 13.8118 7.23619 13.8118 7.00008C13.8118 6.76397 13.7355 6.56953 13.5827 6.41675C13.4299 6.26397 13.2355 6.18758 12.9993 6.18758C12.7632 6.18758 12.5688 6.26397 12.416 6.41675L9.99935 8.83342L7.58268 6.41675C7.4299 6.26397 7.23546 6.18758 6.99935 6.18758C6.76324 6.18758 6.56879 6.26397 6.41602 6.41675C6.26324 6.56953 6.18685 6.76397 6.18685 7.00008C6.18685 7.23619 6.26324 7.43064 6.41602 7.58341L8.83268 10.0001L6.41602 12.4167C6.26324 12.5695 6.18685 12.764 6.18685 13.0001C6.18685 13.2362 6.26324 13.4306 6.41602 13.5834C6.56879 13.7362 6.76324 13.8126 6.99935 13.8126C7.23546 13.8126 7.4299 13.7362 7.58268 13.5834L9.99935 11.1667ZM9.99935 18.3334C8.84657 18.3334 7.76324 18.1147 6.74935 17.6772C5.73546 17.2397 4.85352 16.6459 4.10352 15.8959C3.35352 15.1459 2.75977 14.264 2.32227 13.2501C1.88477 12.2362 1.66602 11.1529 1.66602 10.0001C1.66602 8.8473 1.88477 7.76397 2.32227 6.75008C2.75977 5.73619 3.35352 4.85425 4.10352 4.10425C4.85352 3.35425 5.73546 2.7605 6.74935 2.323C7.76324 1.8855 8.84657 1.66675 9.99935 1.66675C11.1521 1.66675 12.2355 1.8855 13.2493 2.323C14.2632 2.7605 15.1452 3.35425 15.8952 4.10425C16.6452 4.85425 17.2389 5.73619 17.6764 6.75008C18.1139 7.76397 18.3327 8.8473 18.3327 10.0001C18.3327 11.1529 18.1139 12.2362 17.6764 13.2501C17.2389 14.264 16.6452 15.1459 15.8952 15.8959C15.1452 16.6459 14.2632 17.2397 13.2493 17.6772C12.2355 18.1147 11.1521 18.3334 9.99935 18.3334Z" fill="#D6D6D6"/>
</g>
</g>
</svg>
