<svg width="32" height="32" viewBox="0 0 32 32" fill="none" xmlns="http://www.w3.org/2000/svg">
<rect x="10" y="10" width="11" height="11" fill="white"/>
<mask id="mask0_1844_21410" style="mask-type:alpha" maskUnits="userSpaceOnUse" x="6" y="6" width="20" height="20">
<rect x="6" y="6" width="20" height="20" fill="#D6D6D6"/>
</mask>
<g mask="url(#mask0_1844_21410)">
<path d="M16 17.1667L18.4166 19.5833C18.5694 19.7361 18.7638 19.8125 19 19.8125C19.2361 19.8125 19.4305 19.7361 19.5833 19.5833C19.7361 19.4305 19.8125 19.2361 19.8125 19C19.8125 18.7639 19.7361 18.5694 19.5833 18.4167L17.1666 16L19.5833 13.5833C19.7361 13.4305 19.8125 13.2361 19.8125 13C19.8125 12.7639 19.7361 12.5694 19.5833 12.4167C19.4305 12.2639 19.2361 12.1875 19 12.1875C18.7638 12.1875 18.5694 12.2639 18.4166 12.4167L16 14.8333L13.5833 12.4167C13.4305 12.2639 13.2361 12.1875 13 12.1875C12.7638 12.1875 12.5694 12.2639 12.4166 12.4167C12.2638 12.5694 12.1875 12.7639 12.1875 13C12.1875 13.2361 12.2638 13.4305 12.4166 13.5833L14.8333 16L12.4166 18.4167C12.2638 18.5694 12.1875 18.7639 12.1875 19C12.1875 19.2361 12.2638 19.4305 12.4166 19.5833C12.5694 19.7361 12.7638 19.8125 13 19.8125C13.2361 19.8125 13.4305 19.7361 13.5833 19.5833L16 17.1667ZM16 24.3333C14.8472 24.3333 13.7638 24.1146 12.75 23.6771C11.7361 23.2396 10.8541 22.6458 10.1041 21.8958C9.35413 21.1458 8.76038 20.2639 8.32288 19.25C7.88538 18.2361 7.66663 17.1528 7.66663 16C7.66663 14.8472 7.88538 13.7639 8.32288 12.75C8.76038 11.7361 9.35413 10.8542 10.1041 10.1042C10.8541 9.35416 11.7361 8.76041 12.75 8.32291C13.7638 7.88541 14.8472 7.66666 16 7.66666C17.1527 7.66666 18.2361 7.88541 19.25 8.32291C20.2638 8.76041 21.1458 9.35416 21.8958 10.1042C22.6458 10.8542 23.2395 11.7361 23.677 12.75C24.1145 13.7639 24.3333 14.8472 24.3333 16C24.3333 17.1528 24.1145 18.2361 23.677 19.25C23.2395 20.2639 22.6458 21.1458 21.8958 21.8958C21.1458 22.6458 20.2638 23.2396 19.25 23.6771C18.2361 24.1146 17.1527 24.3333 16 24.3333Z" fill="#D6D6D6"/>
</g>
</svg>
