<svg width="18" height="16" viewBox="0 0 18 16" fill="none" xmlns="http://www.w3.org/2000/svg">
<g id="Group 36507">
<path id="Exclude" d="M16.8086 11.8993L17.3102 11.4859L16.8086 11.8993ZM16.8074 11.8954L17.4555 11.9443L16.8074 11.8954ZM16.8117 11.903L16.31 12.3164L16.8117 11.903ZM1.19368 11.9128L0.545808 11.9653L1.19368 11.9128ZM1.18364 11.9031L0.533639 11.9031L1.18364 11.9031ZM16.8061 11.911L17.4541 11.9632L16.8061 11.911ZM9.22739 2.6984L8.72574 3.11174L9.22739 2.6984ZM8.8721 2.2672L9.37374 1.85386L8.8721 2.2672ZM1.18359 3.8982L1.83359 3.8982L1.18359 3.8982ZM3.74841 1.98337H6.89266V0.683374H3.74841V1.98337ZM1.83364 11.9031L1.83359 3.8982L0.533594 3.89821L0.533639 11.9031L1.83364 11.9031ZM4.18374 14.0167C2.95107 14.0167 1.93952 13.0672 1.84155 11.8602L0.545808 11.9653C0.698118 13.8418 2.26836 15.3167 4.18374 15.3167V14.0167ZM13.8159 14.0167H4.18374V15.3167H13.8159V14.0167ZM16.1582 11.8588C16.0609 13.0665 15.0491 14.0167 13.8159 14.0167V15.3167C15.7321 15.3167 17.3028 13.8407 17.4541 11.9632L16.1582 11.8588ZM16.3069 12.3126L16.31 12.3164L17.3133 11.4897L17.3102 11.4859L16.3069 12.3126ZM16.1659 11.6667C16.1659 11.7274 16.1637 11.7873 16.1592 11.8466L17.4555 11.9443C17.4624 11.8526 17.466 11.76 17.466 11.6667H16.1659ZM16.1659 6.63223V11.6667H17.466V6.63223H16.1659ZM13.8159 4.28223C15.1138 4.28223 16.1659 5.33436 16.1659 6.63223H17.466C17.466 4.61639 15.8318 2.98223 13.8159 2.98223V4.28223ZM11.2068 4.28223H13.8159V2.98223H11.2068V4.28223ZM8.37045 2.68054L8.72574 3.11174L9.72904 2.28506L9.37374 1.85386L8.37045 2.68054ZM17.3102 11.4859C17.4161 11.6144 17.468 11.7787 17.4555 11.9443L16.1592 11.8466C16.1465 12.015 16.1993 12.182 16.3069 12.3126L17.3102 11.4859ZM16.8093 12.5581C17.3613 12.5581 17.6644 11.9157 17.3133 11.4897L16.31 12.3164C15.9623 11.8944 16.2625 11.2581 16.8093 11.2581V12.5581ZM1.18866 12.5581C0.848633 12.5581 0.572659 12.2962 0.545808 11.9653L1.84155 11.8602C1.81427 11.5241 1.53393 11.2581 1.18866 11.2581V12.5581ZM0.533639 11.9031C0.533641 12.2648 0.826905 12.5581 1.18866 12.5581V11.2581C1.54487 11.2581 1.83364 11.5469 1.83364 11.9031L0.533639 11.9031ZM17.4541 11.9632C17.4273 12.2954 17.1502 12.5581 16.8093 12.5581V11.2581C16.465 11.2581 16.1853 11.5234 16.1582 11.8588L17.4541 11.9632ZM11.2068 2.98223C10.6348 2.98223 10.0928 2.72651 9.72904 2.28506L8.72574 3.11174C9.33643 3.8529 10.2465 4.28223 11.2068 4.28223V2.98223ZM6.89266 1.98337C7.46466 1.98337 8.00671 2.23909 8.37045 2.68054L9.37374 1.85386C8.76306 1.11271 7.85301 0.683374 6.89266 0.683374V1.98337ZM3.74841 0.683374C1.97291 0.683374 0.533584 2.12271 0.533594 3.89821L1.83359 3.8982C1.83359 2.84067 2.69088 1.98337 3.74841 1.98337V0.683374Z" fill="#1F1F1F"/>
<path id="Union" fill-rule="evenodd" clip-rule="evenodd" d="M9.62077 6.61633C9.62077 6.20212 9.28498 5.86633 8.87077 5.86633C8.45655 5.86633 8.12077 6.20212 8.12077 6.61633L8.12077 8.10287H6.63428C6.22006 8.10287 5.88428 8.43865 5.88428 8.85287C5.88428 9.26708 6.22006 9.60287 6.63428 9.60287H8.12077V11.0895C8.12077 11.5037 8.45655 11.8395 8.87077 11.8395C9.28498 11.8395 9.62077 11.5037 9.62077 11.0895V9.60287H11.1074C11.5216 9.60287 11.8574 9.26708 11.8574 8.85287C11.8574 8.43865 11.5216 8.10287 11.1074 8.10287H9.62077V6.61633Z" fill="#1F1F1F"/>
</g>
</svg>
