<svg width="16" height="17" viewBox="0 0 16 17" fill="none" xmlns="http://www.w3.org/2000/svg">
<mask id="mask0_255_630" style="mask-type:alpha" maskUnits="userSpaceOnUse" x="0" y="0" width="16" height="17">
<rect y="0.5" width="16" height="16" fill="#F8F891"/>
</mask>
<g mask="url(#mask0_255_630)">
<path d="M8.83333 5.61318C8.83333 4.83174 9.16257 4.0823 9.74862 3.52974C10.3347 2.97717 11.1295 2.66675 11.9583 2.66675H12.1667C12.2772 2.66675 12.3832 2.70814 12.4613 2.78181C12.5394 2.85549 12.5833 2.95541 12.5833 3.05961V7.77389C12.5833 7.83596 12.6 8.03632 12.6325 8.34982C12.6633 8.65232 12.7054 9.03457 12.7504 9.44196L12.7558 9.49028C12.8683 10.5109 13 11.7084 13 12.0953C13 12.5121 12.8244 12.9118 12.5118 13.2065C12.1993 13.5012 11.7754 13.6667 11.3333 13.6667C10.8913 13.6667 10.4674 13.5012 10.1548 13.2065C9.84226 12.9118 9.66667 12.5121 9.66667 12.0953C9.66667 11.7661 9.76125 10.7726 9.8575 9.8411C9.92375 9.19878 9.9925 8.56825 10.0371 8.16675H9.875C9.59873 8.16675 9.33378 8.06327 9.13843 7.87909C8.94308 7.6949 8.83333 7.44509 8.83333 7.18461V5.61318ZM7.5725 2.97043C7.55014 2.88005 7.49457 2.80005 7.41564 2.7446C7.3367 2.68916 7.2395 2.66186 7.14125 2.66753C6.92042 2.67932 6.74583 2.851 6.74583 3.06196V5.41911C6.74749 5.52278 6.7054 5.62282 6.62882 5.69723C6.55225 5.77165 6.44745 5.81433 6.3375 5.81589C6.22755 5.81745 6.12144 5.77777 6.04252 5.70557C5.96359 5.63337 5.91832 5.53456 5.91667 5.43089V3.05961C5.91667 2.95541 5.87277 2.85549 5.79463 2.78181C5.71649 2.70814 5.61051 2.66675 5.5 2.66675C5.38949 2.66675 5.28351 2.70814 5.20537 2.78181C5.12723 2.85549 5.08333 2.95541 5.08333 3.05961V5.44228C5.07652 5.54351 5.02825 5.63827 4.94871 5.70656C4.86918 5.77485 4.7646 5.81131 4.65708 5.80825C4.54955 5.80519 4.4475 5.76285 4.37247 5.69016C4.29745 5.61748 4.25532 5.52014 4.255 5.41871V3.06236C4.25472 2.96561 4.21684 2.87231 4.14853 2.80011C4.08022 2.72791 3.98622 2.68182 3.88431 2.67054C3.7824 2.65927 3.67963 2.6836 3.59546 2.73893C3.51128 2.79426 3.45153 2.87676 3.4275 2.97082C3.41833 3.00696 3 4.68603 3 5.80961C2.99968 6.16472 3.0846 6.51529 3.2484 6.83506C3.4122 7.15483 3.65064 7.4355 3.94583 7.65603C4.1525 7.81082 4.25 7.97935 4.25 8.12039C4.24993 8.13536 4.24896 8.15031 4.24708 8.16518C4.22208 8.36318 4.11917 9.18425 4.0225 10.0324C3.9275 10.8665 3.83333 11.7653 3.83333 12.0953C3.83333 12.5121 4.00893 12.9118 4.32149 13.2065C4.63405 13.5012 5.05797 13.6667 5.5 13.6667C5.94203 13.6667 6.36595 13.5012 6.67851 13.2065C6.99107 12.9118 7.16667 12.5121 7.16667 12.0953C7.16667 11.7657 7.0725 10.8665 6.9775 10.0324C6.88083 9.18425 6.7775 8.36278 6.7525 8.16518C6.75076 8.15031 6.74993 8.13535 6.75 8.12039C6.75 7.97935 6.8475 7.81082 7.05417 7.65603C7.34937 7.4355 7.5878 7.15483 7.7516 6.83506C7.9154 6.51529 8.00032 6.16472 8 5.80961C8 4.68525 7.58042 3.00303 7.5725 2.97043ZM7.1225 2.66871L7.13083 2.66832H7.1275L7.12417 2.66871H7.1225Z" fill="#D6D6D6"/>
</g>
</svg>
