<svg width="16" height="16" viewBox="0 0 16 16" fill="none" xmlns="http://www.w3.org/2000/svg">
<mask id="mask0_255_630" style="mask-type:alpha" maskUnits="userSpaceOnUse" x="0" y="0" width="16" height="16">
<rect width="16" height="16" fill="#F8F891"/>
</mask>
<g mask="url(#mask0_255_630)">
<path d="M8.83333 5.11318C8.83333 4.33174 9.16257 3.5823 9.74862 3.02974C10.3347 2.47717 11.1295 2.16675 11.9583 2.16675H12.1667C12.2772 2.16675 12.3832 2.20814 12.4613 2.28181C12.5394 2.35549 12.5833 2.45541 12.5833 2.55961V7.27389C12.5833 7.33596 12.6 7.53632 12.6325 7.84982C12.6633 8.15232 12.7054 8.53457 12.7504 8.94196L12.7558 8.99028C12.8683 10.0109 13 11.2084 13 11.5953C13 12.0121 12.8244 12.4118 12.5118 12.7065C12.1993 13.0012 11.7754 13.1667 11.3333 13.1667C10.8913 13.1667 10.4674 13.0012 10.1548 12.7065C9.84226 12.4118 9.66667 12.0121 9.66667 11.5953C9.66667 11.2661 9.76125 10.2726 9.8575 9.3411C9.92375 8.69878 9.9925 8.06825 10.0371 7.66675H9.875C9.59873 7.66675 9.33378 7.56327 9.13843 7.37909C8.94308 7.1949 8.83333 6.94509 8.83333 6.68461V5.11318ZM7.5725 2.47043C7.55014 2.38005 7.49457 2.30005 7.41564 2.2446C7.3367 2.18916 7.2395 2.16186 7.14125 2.16753C6.92042 2.17932 6.74583 2.351 6.74583 2.56196V4.91911C6.74749 5.02278 6.7054 5.12282 6.62882 5.19723C6.55225 5.27165 6.44745 5.31433 6.3375 5.31589C6.22755 5.31745 6.12144 5.27777 6.04252 5.20557C5.96359 5.13337 5.91832 5.03456 5.91667 4.93089V2.55961C5.91667 2.45541 5.87277 2.35549 5.79463 2.28181C5.71649 2.20814 5.61051 2.16675 5.5 2.16675C5.38949 2.16675 5.28351 2.20814 5.20537 2.28181C5.12723 2.35549 5.08333 2.45541 5.08333 2.55961V4.94228C5.07652 5.04351 5.02825 5.13827 4.94871 5.20656C4.86918 5.27485 4.7646 5.31131 4.65708 5.30825C4.54955 5.30519 4.4475 5.26285 4.37247 5.19016C4.29745 5.11748 4.25532 5.02014 4.255 4.91871V2.56236C4.25472 2.46561 4.21684 2.37231 4.14853 2.30011C4.08022 2.22791 3.98622 2.18182 3.88431 2.17054C3.7824 2.15927 3.67963 2.1836 3.59546 2.23893C3.51128 2.29426 3.45153 2.37676 3.4275 2.47082C3.41833 2.50696 3 4.18603 3 5.30961C2.99968 5.66472 3.0846 6.01529 3.2484 6.33506C3.4122 6.65483 3.65064 6.9355 3.94583 7.15603C4.1525 7.31082 4.25 7.47935 4.25 7.62039C4.24993 7.63536 4.24896 7.65031 4.24708 7.66518C4.22208 7.86318 4.11917 8.68425 4.0225 9.53243C3.9275 10.3665 3.83333 11.2653 3.83333 11.5953C3.83333 12.0121 4.00893 12.4118 4.32149 12.7065C4.63405 13.0012 5.05797 13.1667 5.5 13.1667C5.94203 13.1667 6.36595 13.0012 6.67851 12.7065C6.99107 12.4118 7.16667 12.0121 7.16667 11.5953C7.16667 11.2657 7.0725 10.3665 6.9775 9.53243C6.88083 8.68425 6.7775 7.86278 6.7525 7.66518C6.75076 7.65031 6.74993 7.63535 6.75 7.62039C6.75 7.47935 6.8475 7.31082 7.05417 7.15603C7.34937 6.9355 7.5878 6.65483 7.7516 6.33506C7.9154 6.01529 8.00032 5.66472 8 5.30961C8 4.18525 7.58042 2.50303 7.5725 2.47043ZM7.1225 2.16871L7.13083 2.16832H7.1275L7.12417 2.16871H7.1225Z" fill="#D6D6D6"/>
</g>
</svg>
