<svg width="16" height="16" viewBox="0 0 16 16" fill="none" xmlns="http://www.w3.org/2000/svg">
<g id="textfield_dropdown_ios/ic_unsubscribe" clip-path="url(#clip0_2465_37489)">
<path id="Vector (Stroke)" d="M-53.2766 18.4162L-61.7344 9.92566L-53.2711 1.46241L-51.6678 -0.140877V20.0312V25.9237L-48.3345 29.2807V39.1373C-43.1772 50.5511 -34.3486 59.9517 -23.3551 65.8325H-12.04L-7.07525 70.8325H9.99883V65.8325H15.1405V64.1659H41.9473L46.9472 59.1659H64.9988V64.1659H41.9473L33.6139 72.4992H3.33217C0.078186 72.4992 -3.11181 72.2248 -6.21593 71.6979L-7.07525 70.8325H-10.3633C-14.9386 69.6967 -19.2945 68.0047 -23.3551 65.8325H-48.3345V39.1373C-49.7205 36.0698 -50.8414 32.857 -51.6678 29.528V25.9237L-52.5988 24.9861C-52.9483 22.8344 -53.1767 20.642 -53.2766 18.4162Z" fill="#A4A7AC"/>
<path id="Vector" d="M10.599 5.10102C10.5433 5.04523 10.4528 5.04523 10.3971 5.10102L9.89398 5.60423C9.8383 5.65992 9.83821 5.75017 9.89378 5.80597L10.8403 6.75642C10.93 6.84647 10.8662 7 10.7391 7H6.14203C6.06316 7 5.99922 7.06394 5.99922 7.14281V7.85719C5.99922 7.93606 6.06316 8 6.14203 8H10.7382C10.8654 8 10.9291 8.1538 10.8392 8.24377L9.89382 9.18939C9.8382 9.24502 9.83804 9.33514 9.89346 9.39096L10.3971 9.89827C10.4528 9.95439 10.5435 9.95455 10.5994 9.89862L12.8965 7.60097C12.9522 7.5452 12.9522 7.4548 12.8965 7.39903L10.599 5.10102ZM3.99974 4.14281C3.99974 4.06394 4.06368 4 4.14255 4H7.85589C7.93476 4 7.9987 3.93606 7.9987 3.85719V3.14281C7.9987 3.06394 7.93476 3 7.85589 3H3.99974C3.44988 3 3 3.45 3 4V11C3 11.55 3.44988 12 3.99974 12H7.85589C7.93476 12 7.9987 11.9361 7.9987 11.8572V11.1428C7.9987 11.0639 7.93476 11 7.85589 11H4.14255C4.06368 11 3.99974 10.9361 3.99974 10.8572V4.14281Z" fill="#A4A7AC"/>
</g>
<defs>
<clipPath id="clip0_2465_37489">
<rect width="16" height="16" fill="white"/>
</clipPath>
</defs>
</svg>
