<svg width="24" height="24" viewBox="0 0 24 24" fill="none" xmlns="http://www.w3.org/2000/svg">
<g id="Frame 1171276483">
<path id="cancel" d="M12.3333 13.5L14.75 15.9167C14.9028 16.0694 15.0972 16.1458 15.3333 16.1458C15.5694 16.1458 15.7639 16.0694 15.9167 15.9167C16.0694 15.7639 16.1458 15.5694 16.1458 15.3333C16.1458 15.0972 16.0694 14.9028 15.9167 14.75L13.5 12.3333L15.9167 9.91667C16.0694 9.76389 16.1458 9.56944 16.1458 9.33333C16.1458 9.09722 16.0694 8.90278 15.9167 8.75C15.7639 8.59722 15.5694 8.52083 15.3333 8.52083C15.0972 8.52083 14.9028 8.59722 14.75 8.75L12.3333 11.1667L9.91667 8.75C9.76389 8.59722 9.56944 8.52083 9.33333 8.52083C9.09722 8.52083 8.90278 8.59722 8.75 8.75C8.59722 8.90278 8.52083 9.09722 8.52083 9.33333C8.52083 9.56944 8.59722 9.76389 8.75 9.91667L11.1667 12.3333L8.75 14.75C8.59722 14.9028 8.52083 15.0972 8.52083 15.3333C8.52083 15.5694 8.59722 15.7639 8.75 15.9167C8.90278 16.0694 9.09722 16.1458 9.33333 16.1458C9.56944 16.1458 9.76389 16.0694 9.91667 15.9167L12.3333 13.5ZM12.3333 20.6667C11.1806 20.6667 10.0972 20.4479 9.08333 20.0104C8.06944 19.5729 7.1875 18.9792 6.4375 18.2292C5.6875 17.4792 5.09375 16.5972 4.65625 15.5833C4.21875 14.5694 4 13.4861 4 12.3333C4 11.1806 4.21875 10.0972 4.65625 9.08333C5.09375 8.06944 5.6875 7.1875 6.4375 6.4375C7.1875 5.6875 8.06944 5.09375 9.08333 4.65625C10.0972 4.21875 11.1806 4 12.3333 4C13.4861 4 14.5694 4.21875 15.5833 4.65625C16.5972 5.09375 17.4792 5.6875 18.2292 6.4375C18.9792 7.1875 19.5729 8.06944 20.0104 9.08333C20.4479 10.0972 20.6667 11.1806 20.6667 12.3333C20.6667 13.4861 20.4479 14.5694 20.0104 15.5833C19.5729 16.5972 18.9792 17.4792 18.2292 18.2292C17.4792 18.9792 16.5972 19.5729 15.5833 20.0104C14.5694 20.4479 13.4861 20.6667 12.3333 20.6667Z" fill="#A6A6A6"/>
</g>
</svg>
