<svg width="30" height="30" viewBox="0 0 30 30" fill="none" xmlns="http://www.w3.org/2000/svg">
<mask id="mask0_5435_11926" style="mask-type:alpha" maskUnits="userSpaceOnUse" x="0" y="0" width="30" height="30">
<rect width="30" height="30" fill="#D6D6D6"/>
</mask>
<g mask="url(#mask0_5435_11926)">
<path d="M15 16.75L18.625 20.375C18.8542 20.6042 19.1458 20.7188 19.5 20.7188C19.8542 20.7188 20.1458 20.6042 20.375 20.375C20.6042 20.1458 20.7188 19.8542 20.7188 19.5C20.7188 19.1458 20.6042 18.8542 20.375 18.625L16.75 15L20.375 11.375C20.6042 11.1458 20.7188 10.8542 20.7188 10.5C20.7188 10.1458 20.6042 9.85417 20.375 9.625C20.1458 9.39583 19.8542 9.28125 19.5 9.28125C19.1458 9.28125 18.8542 9.39583 18.625 9.625L15 13.25L11.375 9.625C11.1458 9.39583 10.8542 9.28125 10.5 9.28125C10.1458 9.28125 9.85417 9.39583 9.625 9.625C9.39583 9.85417 9.28125 10.1458 9.28125 10.5C9.28125 10.8542 9.39583 11.1458 9.625 11.375L13.25 15L9.625 18.625C9.39583 18.8542 9.28125 19.1458 9.28125 19.5C9.28125 19.8542 9.39583 20.1458 9.625 20.375C9.85417 20.6042 10.1458 20.7188 10.5 20.7188C10.8542 20.7188 11.1458 20.6042 11.375 20.375L15 16.75ZM15 27.5C13.2708 27.5 11.6458 27.1719 10.125 26.5156C8.60417 25.8594 7.28125 24.9688 6.15625 23.8438C5.03125 22.7188 4.14062 21.3958 3.48438 19.875C2.82812 18.3542 2.5 16.7292 2.5 15C2.5 13.2708 2.82812 11.6458 3.48438 10.125C4.14062 8.60417 5.03125 7.28125 6.15625 6.15625C7.28125 5.03125 8.60417 4.14062 10.125 3.48438C11.6458 2.82812 13.2708 2.5 15 2.5C16.7292 2.5 18.3542 2.82812 19.875 3.48438C21.3958 4.14062 22.7188 5.03125 23.8438 6.15625C24.9688 7.28125 25.8594 8.60417 26.5156 10.125C27.1719 11.6458 27.5 13.2708 27.5 15C27.5 16.7292 27.1719 18.3542 26.5156 19.875C25.8594 21.3958 24.9688 22.7188 23.8438 23.8438C22.7188 24.9688 21.3958 25.8594 19.875 26.5156C18.3542 27.1719 16.7292 27.5 15 27.5Z" fill="#575757"/>
</g>
</svg>
