<svg width="180" height="41" viewBox="0 0 180 41" fill="none" xmlns="http://www.w3.org/2000/svg">
<path d="M2.38275 16.5021V12.5892C2.38275 11.611 2.5955 10.7178 2.97844 9.95228C1.06373 9.86722 0 8.63382 0 6.89004C0 5.10373 1.06373 3.87033 3.14863 3.87033H9.23316C9.3608 1.44606 11.0202 0 13.5732 0C16.1261 0 17.743 1.44606 17.8706 3.87033H23.9551C26.0401 3.87033 27.1463 5.10373 27.1463 6.89004C27.1463 8.63382 26.0401 9.86722 24.1253 9.95228C24.5083 10.7178 24.721 11.611 24.721 12.5892V16.5021C24.721 22.1587 20.4236 25.4336 13.5732 25.4336C6.72276 25.4336 2.38275 22.1587 2.38275 16.5021ZM38.124 10.7604H39.443C42.0385 10.7604 42.8044 12.7593 42.8044 14.4606C42.8044 16.2044 41.996 18.1608 39.443 18.1608H38.124V30.2822H29.6142V4.33817C29.6142 1.57365 31.614 0.127594 33.8691 0.127594C36.1242 0.127594 38.124 1.57365 38.124 4.33817V10.7604ZM16.9771 15.8216V13.0571C16.9771 11.0156 15.6581 9.6971 13.5732 9.6971C11.4457 9.6971 10.1267 11.0156 10.1267 13.0571V15.8216C10.1267 17.8205 11.4457 19.2241 13.5732 19.2241C15.6581 19.2241 16.9771 17.8205 16.9771 15.8216ZM13.3604 33.5571H35.9965C38.5069 33.5571 39.4856 35.0882 39.4856 36.7894C39.4856 38.5332 38.4644 40.0643 35.9965 40.0643H9.91394C5.14844 40.0643 3.87197 38.4056 3.87197 33.8548V30.5373C3.87197 27.9004 5.87178 26.582 8.25453 26.582C10.6373 26.582 12.5094 27.9429 12.5094 30.5373V32.7064C12.5094 33.3869 12.7222 33.5571 13.3604 33.5571Z" fill="#FF4C24"/>
<path d="M86.9238 40.0643H78.414V4.33817C78.414 1.57365 80.4138 0.127594 82.6689 0.127594C84.924 0.127594 86.9238 1.57365 86.9238 4.33817V40.0643ZM62.2879 32.5363C65.1386 31.2604 67.2235 29.8143 67.2235 23.6473V9.48444C67.2235 8.76141 67.0108 8.59129 66.33 8.59129H62.0326V23.1369C62.0326 32.8766 55.6077 36.1515 51.2676 36.6193C49.3529 36.832 47.9488 35.8112 47.651 34.2801C47.3106 32.4512 47.7786 30.8776 49.8635 29.9844C51.9484 29.0913 54.2886 28.1981 54.2886 23.0944V9.61203C54.2886 8.88901 54.0759 8.71888 53.3951 8.71888H50.9272C48.5019 8.71888 47.5659 6.9751 47.5659 5.23133C47.5659 3.53008 48.4594 1.74378 50.9272 1.74378H69.4787C74.2867 1.74378 75.1377 2.93465 75.1377 6.97511V23.6898C75.1377 33.6846 69.8191 38.1504 64.2451 39.1712C62.5006 39.5114 60.7561 38.7033 60.288 37.2147C59.6498 35.2583 60.4157 33.3869 62.2879 32.5363Z" fill="#FF4C24"/>
<path d="M97.4162 11.2282C102.692 11.4834 107.841 10.3776 109.5 7.86826H98.2672C95.7142 7.86826 94.6931 6.54979 94.6931 4.80602C94.6931 3.10477 95.6717 1.74378 98.2672 1.74378H127.711C130.307 1.74378 131.285 3.10477 131.285 4.80602C131.285 6.54979 130.264 7.86826 127.711 7.86826H117.755C117.627 8.42116 117.414 8.97407 117.159 9.48444C125.371 8.67635 131.37 11.7811 132.434 17.6504H123.924C122.393 14.6732 117.542 13.4398 112.691 14.1203C109.075 16.417 103.926 17.6929 98.2246 17.6929C95.7142 17.6929 93.9272 16.6722 93.9272 14.2479C93.9272 12.4616 95.1611 11.0581 97.4162 11.2282ZM117.457 19.777H129.456C131.881 19.777 132.902 21.3081 132.902 23.0519C132.902 24.8382 131.838 26.3268 129.456 26.3268H96.5227C94.1399 26.3268 93.0762 24.8382 93.0762 23.0519C93.0762 21.3081 94.0974 19.777 96.5227 19.777H108.99V19.1815C108.99 16.4595 110.947 15.6089 113.202 15.6089C115.414 15.6089 117.457 16.5021 117.457 19.1815V19.777ZM98.3098 28.7936H125.031C130.179 28.7936 131.115 30.2822 131.115 35.2158V41H122.605V35.8537C122.605 35.1732 122.35 34.918 121.669 34.918H98.3098C96.0121 34.918 94.7356 33.7272 94.7356 31.8133C94.7356 29.8994 96.0121 28.7936 98.3098 28.7936Z" fill="#FF4C24"/>
<path d="M164.427 33.1743H176.426C178.979 33.1743 180 34.9181 180 36.6618C180 38.4907 178.936 40.1494 176.426 40.1494H143.748C141.238 40.1494 140.174 38.4907 140.174 36.6618C140.174 34.9181 141.195 33.1743 143.748 33.1743H155.747V25.8589H148.386C143.28 25.8589 142.301 24.2427 142.301 19.3942V5.61411C142.301 2.84959 144.429 1.82884 146.684 1.82884C148.812 1.82884 151.024 3.01971 151.024 5.69917V7.44294H169.107V5.61411C169.107 2.84959 171.192 1.82884 173.447 1.82884C175.617 1.82884 177.787 2.89212 177.787 5.61411V25.8589H164.427V33.1743ZM151.024 14.0353V17.7355C151.024 18.5861 151.322 19.0114 152.343 19.0114H169.107V14.0353H151.024Z" fill="#FF4C24"/>
<path d="M150.688 13.2934C150.688 12.7798 150.688 12.523 150.787 12.3269C150.875 12.1543 151.016 12.014 151.188 11.9261C151.384 11.8262 151.641 11.8262 152.155 11.8262H158.045C158.217 11.8262 158.303 11.8262 158.386 11.8416C158.46 11.8553 158.532 11.8779 158.6 11.9091C158.677 11.9441 158.747 11.9936 158.888 12.0926L160.062 12.9165C160.203 13.0154 160.273 13.0649 160.35 13.0999C160.418 13.1311 160.49 13.1537 160.563 13.1674C160.646 13.1828 160.733 13.1828 160.905 13.1828H166.583H168.456C168.97 13.1828 169.227 13.1828 169.423 13.2828C169.595 13.3707 169.736 13.511 169.824 13.6835C169.924 13.8797 169.924 14.1365 169.924 14.6501V17.6698C169.924 18.1834 169.924 18.4402 169.824 18.6364C169.736 18.8089 169.595 18.9492 169.423 19.0371C169.227 19.1371 168.97 19.1371 168.456 19.1371H152.155C151.641 19.1371 151.384 19.1371 151.188 19.0371C151.016 18.9492 150.875 18.8089 150.787 18.6364C150.688 18.4402 150.688 18.1834 150.688 17.6698L150.688 13.2934Z" fill="white"/>
</svg>
