<svg width="183" height="66" viewBox="0 0 183 66" fill="none" xmlns="http://www.w3.org/2000/svg">
<path d="M9.45654 4.7041V7.64941H11.1069V8.67773H9.45654V11.5596H8.25049V4.7041H9.45654ZM9.45654 12.1562V15.9395H2.19482V12.1562H9.45654ZM3.37549 13.1084V14.9619H8.26318V13.1084H3.37549ZM7.31104 5.85938V6.82422H0.531738V5.85938H3.32471V4.61523H4.53076V5.85938H7.31104ZM3.92139 7.31934C5.55908 7.31934 6.67627 8.13184 6.67627 9.35059C6.67627 10.582 5.55908 11.3818 3.92139 11.3945C2.2583 11.3818 1.15381 10.582 1.15381 9.35059C1.15381 8.13184 2.2583 7.31934 3.92139 7.31934ZM3.92139 8.24609C2.95654 8.2334 2.30908 8.66504 2.32178 9.35059C2.30908 10.0615 2.95654 10.4805 3.92139 10.4805C4.88623 10.4805 5.53369 10.0615 5.54639 9.35059C5.53369 8.66504 4.88623 8.2334 3.92139 8.24609ZM14.5728 6.0498C14.5601 8.60156 14.2427 11.2295 12.6558 13.4639L11.7163 12.9307C13.043 11.1533 13.4429 9.18555 13.5317 7.04004H11.9829V6.0498H14.5728ZM17.0991 6.0498C17.0991 7.0083 17.0801 8.05566 16.9595 9.10938H18.2925V4.99609H19.4351V15.5205H18.2925V10.0869H16.8198C16.5596 11.5024 16.0835 12.9053 15.2075 14.1494L14.2681 13.6035C15.7407 11.6294 16.0073 9.23633 16.0581 7.04004H14.9155V6.0498H17.0991ZM21.5933 4.7041V16.0791H20.438V4.7041H21.5933ZM31.9272 5.70703V11.0137H26.6079V5.70703H31.9272ZM27.7886 6.68457V10.0615H30.7466V6.68457H27.7886ZM35.1011 4.69141V8.09375H36.7515V9.10938H35.1011V13.0322H33.895V4.69141H35.1011ZM35.5835 14.8604V15.8379H27.8901V12.2324H29.0962V14.8604H35.5835ZM46.6157 10.0996V11.0898H38.6938V5.71973H46.5142V6.70996H39.8872V10.0996H46.6157ZM47.8091 13.5781V14.5811H37.3989V13.5781H47.8091ZM57.8384 8.03027V8.99512H50.0054V5.11035H51.1987V8.03027H57.8384ZM59.0317 10.4297V11.3945H48.6216V10.4297H59.0317ZM57.9146 14.8223V15.8125H49.9165V12.4736H51.1226V14.8223H57.9146ZM66.6489 15.127C64.6558 15.127 63.2593 14.0479 63.272 12.5498C63.2593 11.3691 64.1099 10.4043 65.189 10.2393V10.1885C64.2495 9.97266 63.6147 9.13477 63.6147 8.13184C63.6147 6.72266 64.897 5.68164 66.6489 5.68164C68.3882 5.68164 69.6577 6.72266 69.6704 8.13184C69.6577 9.13477 69.0229 9.97266 68.0962 10.1885V10.2393C69.1626 10.4043 70.0132 11.3691 70.0259 12.5498C70.0132 14.0479 68.6167 15.127 66.6489 15.127ZM66.6489 13.9717C67.8423 13.9717 68.604 13.3496 68.604 12.4482C68.604 11.4961 67.7788 10.8105 66.6489 10.8105C65.5063 10.8105 64.6685 11.4961 64.6938 12.4482C64.6685 13.3496 65.4302 13.9717 66.6489 13.9717ZM66.6489 9.70605C67.6138 9.70605 68.2993 9.12207 68.2993 8.25879C68.2993 7.4082 67.6265 6.82422 66.6489 6.82422C65.6333 6.82422 64.9731 7.39551 64.9731 8.25879C64.9731 9.12207 65.6714 9.70605 66.6489 9.70605ZM74.6724 15.127C72.5396 15.127 71.2954 13.4131 71.2954 10.4043C71.2954 7.4209 72.5649 5.68164 74.6724 5.68164C76.7798 5.68164 78.0493 7.4209 78.0493 10.4043C78.0493 13.4131 76.7925 15.127 74.6724 15.127ZM74.6724 13.9209C75.9165 13.9209 76.6528 12.7021 76.6528 10.4043C76.6528 8.11914 75.9038 6.8623 74.6724 6.8623C73.4409 6.8623 72.6919 8.11914 72.6919 10.4043C72.6919 12.7021 73.4282 13.9209 74.6724 13.9209ZM82.6958 15.127C80.563 15.127 79.3188 13.4131 79.3188 10.4043C79.3188 7.4209 80.5884 5.68164 82.6958 5.68164C84.8032 5.68164 86.0728 7.4209 86.0728 10.4043C86.0728 13.4131 84.8159 15.127 82.6958 15.127ZM82.6958 13.9209C83.9399 13.9209 84.6763 12.7021 84.6763 10.4043C84.6763 8.11914 83.9272 6.8623 82.6958 6.8623C81.4644 6.8623 80.7153 8.11914 80.7153 10.4043C80.7153 12.7021 81.4517 13.9209 82.6958 13.9209ZM90.7192 15.127C88.5864 15.127 87.3423 13.4131 87.3423 10.4043C87.3423 7.4209 88.6118 5.68164 90.7192 5.68164C92.8267 5.68164 94.0962 7.4209 94.0962 10.4043C94.0962 13.4131 92.8394 15.127 90.7192 15.127ZM90.7192 13.9209C91.9634 13.9209 92.6997 12.7021 92.6997 10.4043C92.6997 8.11914 91.9507 6.8623 90.7192 6.8623C89.4878 6.8623 88.7388 8.11914 88.7388 10.4043C88.7388 12.7021 89.4751 13.9209 90.7192 13.9209ZM104.608 4.7168V13.3369H103.402V12.2451H101.117V11.3945H103.402V4.7168H104.608ZM104.887 14.8604V15.8379H96.6733V12.499H97.8667V14.8604H104.887ZM95.0991 9.90918C97.2065 9.89648 100.038 9.87109 102.462 9.56641L102.539 10.4297C101.567 10.5884 100.545 10.6963 99.5425 10.7598V12.9814H98.3364V10.8232C97.2319 10.874 96.1719 10.8804 95.2515 10.874L95.0991 9.90918ZM98.8188 5.14844C100.482 5.14844 101.637 5.94824 101.637 7.1543C101.637 8.36035 100.482 9.13477 98.8188 9.13477C97.1304 9.13477 95.9878 8.36035 95.9878 7.1543C95.9878 5.94824 97.1304 5.14844 98.8188 5.14844ZM98.8188 6.0498C97.8032 6.03711 97.1177 6.46875 97.1304 7.1543C97.1177 7.82715 97.8032 8.24609 98.8188 8.24609C99.7964 8.24609 100.482 7.82715 100.495 7.1543C100.482 6.46875 99.7964 6.03711 98.8188 6.0498ZM118.979 4.7041V16.1045H117.773V4.7041H118.979ZM112.898 5.55469C114.586 5.55469 115.831 7.10352 115.831 9.54102C115.831 11.9912 114.586 13.54 112.898 13.54C111.184 13.54 109.953 11.9912 109.953 9.54102C109.953 7.10352 111.184 5.55469 112.898 5.55469ZM112.898 6.63379C111.844 6.63379 111.121 7.75098 111.121 9.54102C111.121 11.3438 111.844 12.4609 112.898 12.4609C113.939 12.4609 114.663 11.3438 114.663 9.54102C114.663 7.75098 113.939 6.63379 112.898 6.63379ZM129.656 4.7041V9.3125H131.484V10.3154H129.656V16.0791H128.462V4.7041H129.656ZM127.472 6.48145V7.47168H120.731V6.48145H123.537V4.85645H124.743V6.48145H127.472ZM124.146 8.30957C125.771 8.30957 126.964 9.40137 126.977 10.9502C126.964 12.5117 125.771 13.5908 124.146 13.6035C122.508 13.5908 121.315 12.5117 121.315 10.9502C121.315 9.40137 122.508 8.30957 124.146 8.30957ZM124.146 9.2998C123.181 9.2998 122.458 9.97266 122.47 10.9502C122.458 11.9404 123.181 12.6006 124.146 12.5879C125.111 12.6006 125.822 11.9404 125.822 10.9502C125.822 9.97266 125.111 9.2998 124.146 9.2998ZM139.342 6.3418C139.33 7.91602 140.409 9.35059 142.161 9.93457L141.551 10.8867C140.237 10.4233 139.247 9.49658 138.733 8.30957C138.225 9.58545 137.229 10.5947 135.876 11.0771L135.267 10.1377C137.044 9.50293 138.111 7.9668 138.111 6.3418V5.25H139.342V6.3418ZM144.636 12.0801V16.0791H143.43V13.0576H136.93V12.0801H144.636ZM144.636 4.7041V11.5342H143.43V4.7041H144.636ZM155.389 4.7041V7.58594H157.027V8.57617H155.389V11.4199H154.17V4.7041H155.389ZM151.708 11.6357C154.031 11.6357 155.478 12.4482 155.478 13.8447C155.478 15.2412 154.031 16.0664 151.708 16.0537C149.359 16.0664 147.886 15.2412 147.886 13.8447C147.886 12.4482 149.359 11.6357 151.708 11.6357ZM151.708 12.6133C150.057 12.6006 149.067 13.0576 149.08 13.8447C149.067 14.6318 150.057 15.0889 151.708 15.0889C153.32 15.0889 154.31 14.6318 154.323 13.8447C154.31 13.0576 153.32 12.6006 151.708 12.6133ZM152 5.54199V6.51953H148.115V9.61719C150.355 9.61084 151.619 9.54102 153.053 9.24902L153.167 10.2266C151.644 10.5439 150.286 10.5947 147.823 10.5947H146.921V5.54199H152ZM165.038 8.05566C165.038 9.95996 166.282 11.9277 168.034 12.6768L167.374 13.6162C166.034 13.0259 164.968 11.7754 164.441 10.252C163.914 11.877 162.841 13.2607 161.521 13.9082L160.823 12.9561C162.537 12.1562 163.806 10.0107 163.819 8.05566V6.84961H161.216V5.84668H167.627V6.84961H165.038V8.05566ZM170.268 4.7041V16.0791H169.062V4.7041H170.268ZM181.3 9.94727V10.9121H177.86V13.6924H182.494V14.6826H172.083V13.6924H176.667V10.9121H173.378V5.58008H181.199V6.55762H174.584V9.94727H181.3Z" fill="#575757"/>
<path d="M96.8501 55.2344H118.924V59.9645V64.6946" stroke="#FE5A36" stroke-width="5.28146"/>
<path fill-rule="evenodd" clip-rule="evenodd" d="M33.3676 52.4997C38.2739 52.4997 42.2512 49.3509 42.2512 45.4668C42.2512 41.5826 38.2739 38.4338 33.3676 38.4338C28.4612 38.4338 24.4839 41.5826 24.4839 45.4668C24.4839 49.3509 28.4612 52.4997 33.3676 52.4997ZM33.3676 47.9992C35.2326 47.9992 36.7444 46.8654 36.7444 45.4667C36.7444 44.068 35.2326 42.9341 33.3676 42.9341C31.5027 42.9341 29.9909 44.068 29.9909 45.4667C29.9909 46.8654 31.5027 47.9992 33.3676 47.9992Z" fill="#FE5A36"/>
<path fill-rule="evenodd" clip-rule="evenodd" d="M46.6577 29.3054V54.5329H52.1762V44.6454H56.5386V39.193H52.1762V29.3054H46.6577Z" fill="#FE5A36"/>
<path fill-rule="evenodd" clip-rule="evenodd" d="M36.521 29.3054H30.2142V32.3934H22.9165V37.4771H43.8182V32.3934H36.0334L36.521 29.3054Z" fill="#FE5A36"/>
<rect x="82.9209" y="63.2046" width="33.8992" height="5.81141" transform="rotate(-90 82.9209 63.2046)" fill="#FE5A36"/>
<path d="M59.2705 35.6641H67.3488C67.1634 41.8742 64.3362 50.3062 59.6647 54.5328" stroke="#FE5A36" stroke-width="5.51847"/>
<path d="M71.2114 35.6123H77.4028C77.2499 41.9553 74.16 52.5808 70.3076 56.8978" stroke="#FE5A36" stroke-width="5.51847"/>
<path fill-rule="evenodd" clip-rule="evenodd" d="M97.1324 35.5255H111.968C111.117 35.962 110.135 36.3972 109.045 36.8164C104.777 38.4579 99.3158 39.6776 94.6729 39.8634L94.8619 44.5897C100.073 44.3812 106.043 43.0388 110.743 41.2313C110.775 41.2191 110.806 41.2069 110.838 41.1947C111.392 41.6048 112.11 42.1115 113.071 42.5837C115.214 43.6363 118.251 44.3732 123.394 44.3732V39.6431C119.551 39.6431 117.345 39.1915 115.971 38.6853C116.275 38.4916 116.565 38.2944 116.839 38.0939C117.642 37.5072 118.389 36.8354 118.953 36.0712C119.517 35.3083 119.995 34.3197 119.995 33.1605V30.7954H117.63H97.1324V35.5255ZM115.278 33.0474C115.278 33.0474 115.278 33.0485 115.277 33.0508L115.278 33.0474Z" fill="#FE5A36"/>
<path d="M109.857 43.0149V48.5334" stroke="#FE5A36" stroke-width="6.30682"/>
<path d="M93.3027 48.5332H126.414" stroke="#FE5A36" stroke-width="4.73012"/>
<path fill-rule="evenodd" clip-rule="evenodd" d="M131.032 30.4011H138.127V35.1314H151.529V30.4011H157.836V49.3216H131.032V30.4011ZM151.135 39.8615H137.733V43.8033H151.135V39.8615Z" fill="#FE5A36"/>
<path fill-rule="evenodd" clip-rule="evenodd" d="M147.435 49.3215H141.435V55.6285L128.787 55.6285L128.787 61.1469L160.083 61.1469V55.6285L147.435 55.6285V49.3215Z" fill="#FE5A36"/>
<path d="M27.9973 55.4225C28.1652 54.4963 29.3263 54.0031 30.037 54.6201C30.315 54.8614 30.4556 55.2237 30.4 55.5876C30.2291 56.7073 29.7895 59.1187 29.0816 59.8752C28.3944 60.6098 26.4259 62.0552 25.4365 62.7657C25.0796 63.022 24.6099 63.0497 24.2221 62.8432C23.4602 62.4373 23.3818 61.3675 24.0596 60.833C24.9738 60.1121 26.1024 59.1719 26.814 58.3993C27.4462 57.7129 27.7999 56.5116 27.9973 55.4225Z" fill="#FE5A36"/>
<path d="M51.7956 59.6005C52.7243 59.2087 53.8516 59.766 54.0141 60.7608C54.1191 61.4035 53.7795 62.0326 53.1701 62.2623C51.125 63.0331 46.2458 64.6175 40.6922 64.6175C34.9369 64.6175 29.5898 61.6084 27.5501 60.3098C27.0336 59.981 26.8615 59.3251 27.1172 58.7688C27.4781 57.9831 28.5127 57.7461 29.2303 58.2284C31.2731 59.6015 35.4234 61.8508 40.6922 61.8508C45.5959 61.8508 49.5871 60.5324 51.7956 59.6005Z" fill="#FE5A36"/>
</svg>
