<svg width="23" height="22" viewBox="0 0 23 22" fill="none" xmlns="http://www.w3.org/2000/svg">
<path d="M2.90239 15.2988L2.25239 15.2988L2.90239 15.2988ZM11.2828 4.6005L11.7844 4.18716L11.2828 4.6005ZM11.8275 5.26158L11.3258 5.67492L11.8275 5.26158ZM2.90234 6.2315L3.55234 6.2315L2.90234 6.2315ZM5.46716 4.31667H9.30332V3.01667H5.46716V4.31667ZM3.55239 15.2988L3.55234 6.2315L2.25234 6.2315L2.25239 15.2988L3.55239 15.2988ZM3.5525 15.3334V15.2989H2.2525V15.3334H3.5525ZM5.9025 17.6834C4.60463 17.6834 3.5525 16.6312 3.5525 15.3334H2.2525C2.2525 17.3492 3.88666 18.9834 5.9025 18.9834V17.6834ZM17.0979 17.6834H5.9025V18.9834H17.0979V17.6834ZM19.4479 15.3334C19.4479 16.6312 18.3958 17.6834 17.0979 17.6834V18.9834C19.1138 18.9834 20.7479 17.3492 20.7479 15.3334H19.4479ZM19.4479 9.19541V15.3334H20.7479V9.19541H19.4479ZM17.0979 6.84541C18.3958 6.84541 19.4479 7.89754 19.4479 9.19541H20.7479C20.7479 7.17957 19.1138 5.54541 17.0979 5.54541V6.84541ZM13.8069 6.84541H17.0979V5.54541H13.8069V6.84541ZM10.7811 5.01384L11.3258 5.67492L12.3291 4.84824L11.7844 4.18716L10.7811 5.01384ZM2.90245 15.9489C2.54349 15.9489 2.2525 15.6579 2.2525 15.2989H3.5525C3.5525 14.9399 3.26147 14.6489 2.90245 14.6489V15.9489ZM2.25239 15.2988C2.2524 15.6578 2.54343 15.9489 2.90245 15.9489V14.6489C3.2614 14.6489 3.55239 14.9399 3.55239 15.2988L2.25239 15.2988ZM9.30332 4.31667C9.87532 4.31667 10.4174 4.57239 10.7811 5.01384L11.7844 4.18716C11.1737 3.446 10.2637 3.01667 9.30332 3.01667V4.31667ZM13.8069 5.54541C13.2349 5.54541 12.6928 5.28969 12.3291 4.84824L11.3258 5.67492C11.9365 6.41608 12.8466 6.84541 13.8069 6.84541V5.54541ZM5.46716 3.01667C3.69166 3.01667 2.25233 4.45601 2.25234 6.2315L3.55234 6.2315C3.55234 5.17397 4.40963 4.31667 5.46716 4.31667V3.01667Z" fill="#A6A6A6"/>
<path fill-rule="evenodd" clip-rule="evenodd" d="M12.1081 9.47795C12.1081 9.06374 11.7723 8.72795 11.3581 8.72795C10.9439 8.72795 10.6081 9.06374 10.6081 9.47795V11.1881H8.89795C8.48374 11.1881 8.14795 11.5239 8.14795 11.9381C8.14795 12.3524 8.48374 12.6881 8.89795 12.6881H10.6081V14.3984C10.6081 14.8126 10.9439 15.1484 11.3581 15.1484C11.7723 15.1484 12.1081 14.8126 12.1081 14.3984V12.6881H13.8184C14.2326 12.6881 14.5684 12.3524 14.5684 11.9381C14.5684 11.5239 14.2326 11.1881 13.8184 11.1881H12.1081V9.47795Z" fill="#A6A6A6"/>
</svg>
