<svg width="24" height="24" viewBox="0 0 24 24" fill="none" xmlns="http://www.w3.org/2000/svg">
<mask id="mask0_5231_15800" style="mask-type:alpha" maskUnits="userSpaceOnUse" x="0" y="0" width="24" height="24">
<rect width="24" height="24" fill="#D9D9D9"/>
</mask>
<g mask="url(#mask0_5231_15800)">
<path d="M11.1429 12.8571H6.85714C6.61429 12.8571 6.41071 12.775 6.24643 12.6107C6.08214 12.4464 6 12.2429 6 12C6 11.7571 6.08214 11.5536 6.24643 11.3893C6.41071 11.225 6.61429 11.1429 6.85714 11.1429H11.1429V6.85714C11.1429 6.61429 11.225 6.41071 11.3893 6.24643C11.5536 6.08214 11.7571 6 12 6C12.2429 6 12.4464 6.08214 12.6107 6.24643C12.775 6.41071 12.8571 6.61429 12.8571 6.85714V11.1429H17.1429C17.3857 11.1429 17.5893 11.225 17.7536 11.3893C17.9179 11.5536 18 11.7571 18 12C18 12.2429 17.9179 12.4464 17.7536 12.6107C17.5893 12.775 17.3857 12.8571 17.1429 12.8571H12.8571V17.1429C12.8571 17.3857 12.775 17.5893 12.6107 17.7536C12.4464 17.9179 12.2429 18 12 18C11.7571 18 11.5536 17.9179 11.3893 17.7536C11.225 17.5893 11.1429 17.3857 11.1429 17.1429V12.8571Z" fill="#737373"/>
</g>
</svg>
