<svg width="56" height="56" viewBox="0 0 56 56" fill="none" xmlns="http://www.w3.org/2000/svg">
<g clip-path="url(#clip0_3913_178621)">
<g clip-path="url(#clip1_3913_178621)">
<circle cx="14.0539" cy="50.5236" r="38.675" fill="url(#paint0_linear_3913_178621)" fill-opacity="0.18"/>
<g filter="url(#filter0_d_3913_178621)">
<path fill-rule="evenodd" clip-rule="evenodd" d="M23.0861 40.1808C23.0412 40.1904 23.02 40.2415 23.0439 40.2825C23.5075 41.0769 23.5955 42.0783 23.1934 42.9628C22.5535 44.3705 20.9146 44.949 19.5327 44.2548C18.1509 43.5607 17.5495 41.8567 18.1894 40.4489C18.5916 39.5641 19.3885 39.0069 20.2681 38.8873C20.3138 38.8811 20.3388 38.8319 20.3179 38.7894C19.9461 38.0329 19.9081 37.0938 20.2923 36.2488C20.9322 34.8411 22.5011 34.2274 23.7966 34.8782C25.0921 35.529 25.6235 37.1978 24.9836 38.6056C24.5993 39.451 23.88 40.01 23.0861 40.1808Z" fill="white"/>
<ellipse cx="5.425" cy="5.775" rx="5.425" ry="5.775" transform="matrix(0.832844 -0.553507 0.553412 0.832908 19.1299 36.6973)" fill="white"/>
<ellipse cx="5.425" cy="5.775" rx="5.425" ry="5.775" transform="matrix(0.832844 -0.553507 0.553412 0.832908 15.9756 43.6978)" fill="white"/>
<ellipse cx="2.975" cy="3.15" rx="2.975" ry="3.15" transform="matrix(0.832844 -0.553507 0.553412 0.832908 15.2744 44.0474)" fill="white"/>
<ellipse cx="3.85" cy="4.025" rx="3.85" ry="4.025" transform="matrix(0.832844 -0.553507 0.553412 0.832908 24.374 33.1973)" fill="white"/>
<ellipse cx="5.25" cy="5.6" rx="5.25" ry="5.6" transform="matrix(0.832844 -0.553507 0.553412 0.832908 27.5283 35.9971)" fill="white"/>
<path fill-rule="evenodd" clip-rule="evenodd" d="M31.8993 36.8945C31.886 36.8574 31.8442 36.8386 31.8077 36.8534C31.5789 36.9457 31.3329 37.0088 31.0739 37.0375C30.8301 37.0646 30.5894 37.0595 30.356 37.0258C30.3206 37.0207 30.287 37.0435 30.2787 37.0782C30.0175 38.1593 29.1084 39.0061 27.9262 39.1371C26.3892 39.3075 24.9728 38.2037 24.7626 36.6717C24.5524 35.1396 25.6279 33.7595 27.1649 33.5891C27.4087 33.5621 27.6495 33.5671 27.8829 33.6008C27.9182 33.6059 27.9518 33.5831 27.9602 33.5484C28.2213 32.4673 29.1305 31.6206 30.3126 31.4895C31.6504 31.3412 32.8967 32.1581 33.336 33.3825C33.3493 33.4196 33.3911 33.4384 33.4276 33.4236C33.6564 33.3312 33.9023 33.2682 34.1614 33.2395C35.6983 33.069 37.1147 34.1729 37.325 35.7049C37.5352 37.2369 36.4596 38.6171 34.9226 38.7875C33.5849 38.9358 32.3386 38.1189 31.8993 36.8945Z" fill="white"/>
<path d="M41.893 40.5272C41.9069 40.5181 41.9102 40.4987 41.9005 40.4841C38.2731 35.0247 31.1562 33.3745 26.0046 36.7983C20.853 40.222 19.6173 47.4233 23.2448 52.8827C23.2545 52.8973 23.2736 52.9017 23.2874 52.8925L41.893 40.5272Z" fill="white"/>
</g>
<path fill-rule="evenodd" clip-rule="evenodd" d="M24.0463 40.6544C24.4832 41.3023 24.5758 42.158 24.2155 42.9135C23.6745 44.0475 22.3177 44.5262 21.185 43.9826C20.0522 43.439 19.5724 42.079 20.1134 40.9449C20.4275 40.2863 21.0169 39.8487 21.6778 39.7041C21.241 39.0562 21.1483 38.2005 21.5087 37.445C22.0496 36.311 23.4064 35.8324 24.5392 36.376C25.672 36.9196 26.1517 38.2796 25.6108 39.4136C25.2966 40.0723 24.7072 40.5098 24.0463 40.6544Z" fill="#9EB422"/>
<ellipse cx="4.725" cy="4.55" rx="4.725" ry="4.55" transform="matrix(0.832844 -0.553507 0.553412 0.832908 20.8896 37.749)" fill="#FF7D5F"/>
<ellipse cx="4.725" cy="4.55" rx="4.725" ry="4.55" transform="matrix(0.832844 -0.553507 0.553412 0.832908 18.0859 43.6987)" fill="#FF7D5F"/>
<circle cx="2.45" cy="2.45" r="1.72337" transform="matrix(0.832844 -0.553507 0.553412 0.832908 17.7354 43.6982)" stroke="#FFC16D" stroke-width="1.45327"/>
<circle cx="3.15" cy="3.15" r="2.42337" transform="matrix(0.832844 -0.553507 0.553412 0.832908 25.0889 34.5986)" stroke="#FFC16D" stroke-width="1.45327"/>
<ellipse cx="4.725" cy="4.55" rx="4.725" ry="4.55" transform="matrix(0.832844 -0.553507 0.553412 0.832908 27.5361 37.3984)" fill="#FF7D5F"/>
<path fill-rule="evenodd" clip-rule="evenodd" d="M31.3503 37.8991C31.1334 38.0055 30.8968 38.0794 30.6459 38.1135C30.4726 38.1371 30.3016 38.1404 30.1353 38.1253C29.9061 39.0185 29.1533 39.7329 28.1925 39.8635C26.9475 40.0327 25.8247 39.1578 25.6846 37.9091C25.5446 36.6605 26.4403 35.5111 27.6853 35.3418C27.8586 35.3183 28.0296 35.315 28.1959 35.3301C28.4251 34.4369 29.1779 33.7225 30.1387 33.5919C31.2671 33.4385 32.2951 34.1429 32.5821 35.2058C32.7989 35.0994 33.0356 35.0255 33.2864 34.9914C34.5314 34.8221 35.6542 35.6971 35.7943 36.9457C35.9344 38.1943 35.0387 39.3437 33.7937 39.513C32.6653 39.6664 31.6372 38.962 31.3503 37.8991Z" fill="#BCD728"/>
<g filter="url(#filter1_i_3913_178621)">
<path d="M39.3859 40.4223C39.3976 40.4145 39.4008 40.3988 39.393 40.3872C36.5125 36.0518 30.6536 34.8791 26.3069 37.7679C21.9602 40.6567 20.7717 46.5131 23.6523 50.8485C23.66 50.8601 23.6757 50.8632 23.6874 50.8555L39.3859 40.4223Z" fill="#FDDA86"/>
</g>
<g filter="url(#filter2_d_3913_178621)">
<g clip-path="url(#clip2_3913_178621)">
<path d="M32.6166 26.0338C32.2793 25.232 32.6558 24.3086 33.4576 23.9713L45.0716 19.0851C45.8734 18.7477 46.7968 19.1242 47.1341 19.926C47.4715 20.7278 47.0949 21.6512 46.2932 21.9886L34.6792 26.8748C33.8774 27.2121 32.954 26.8356 32.6166 26.0338Z" fill="white"/>
<path d="M32.8508 28.3962C32.4025 27.3306 32.9029 26.1034 33.9684 25.6551L46.2402 20.4921C47.3058 20.0438 48.533 20.5442 48.9813 21.6098L49.1224 21.945C49.5707 23.0105 49.0703 24.2378 48.0047 24.6861L35.7329 29.849C34.6673 30.2973 33.4401 29.7969 32.9918 28.7314L32.8508 28.3962Z" fill="white"/>
<path d="M31.5258 23.4537C31.1885 22.6519 31.565 21.7285 32.3668 21.3912L43.9808 16.505C44.7826 16.1677 45.706 16.5442 46.0433 17.346C46.3806 18.1477 46.0041 19.0712 45.2023 19.4085L33.5883 24.2947C32.7866 24.632 31.8631 24.2555 31.5258 23.4537Z" fill="white"/>
<mask id="mask0_3913_178621" style="mask-type:alpha" maskUnits="userSpaceOnUse" x="30" y="17" width="18" height="10">
<path d="M47.7099 19.5099C47.8561 19.8574 47.6929 20.2577 47.3454 20.4039L32.4733 26.6608C32.1258 26.807 31.7255 26.6438 31.5793 26.2963L30.8872 24.6513C30.741 24.3038 30.9042 23.9035 31.2518 23.7573L46.1238 17.5004C46.4713 17.3542 46.8716 17.5174 47.0178 17.8649L47.7099 19.5099Z" fill="#FFFFEB"/>
</mask>
<g mask="url(#mask0_3913_178621)">
<path fill-rule="evenodd" clip-rule="evenodd" d="M30.1676 23.8353C29.5679 22.4099 29.8762 20.9202 30.8561 20.5079C31.3559 20.2976 31.9339 20.4082 32.4598 20.7562C32.6817 20.903 33.0824 20.7343 33.1325 20.473C33.2513 19.853 33.5765 19.3619 34.0766 19.1514C34.5771 18.9409 35.1559 19.052 35.6824 19.4011C35.9049 19.5486 36.3093 19.3784 36.3595 19.1163C36.4782 18.496 36.8034 18.0046 37.3038 17.7941C37.8041 17.5836 38.3828 17.6947 38.9093 18.0436C39.1318 18.1911 39.5364 18.0208 39.5865 17.7586C39.7051 17.1381 40.0304 16.6465 40.5309 16.436C41.0314 16.2254 41.6103 16.3366 42.1369 16.6858C42.3593 16.8333 42.7635 16.6633 42.8137 16.4012C42.9325 15.7811 43.2577 15.2899 43.7579 15.0795C44.7379 14.6672 46.0184 15.4885 46.6181 16.9138C47.2178 18.3392 46.9095 19.829 45.9296 20.2412C45.4291 20.4518 44.8501 20.3406 44.3235 19.9914C44.1011 19.844 43.6969 20.0139 43.6467 20.276C43.5279 20.8961 43.2027 21.3873 42.7025 21.5978C42.2021 21.8083 41.6234 21.6972 41.097 21.3483C40.8745 21.2008 40.4699 21.3711 40.4198 21.6333C40.3011 22.2538 39.9759 22.7453 39.4754 22.9559C38.975 23.1664 38.3961 23.0553 37.8696 22.7063C37.6471 22.5588 37.2427 22.7289 37.1926 22.991C37.0739 23.6113 36.7486 24.1027 36.2483 24.3132C35.7485 24.5235 35.1705 24.4129 34.6446 24.0649C34.4227 23.9181 34.022 24.0868 33.972 24.3481C33.8532 24.9681 33.528 25.4592 33.0278 25.6697C32.0478 26.082 30.7673 25.2607 30.1676 23.8353Z" fill="white"/>
</g>
<path d="M29.8417 23.0511C27.9999 18.6734 30.0557 13.6315 34.4334 11.7897L35.6787 11.2658C40.0564 9.42399 45.0983 11.4798 46.9401 15.8575C47.1222 16.2905 46.9189 16.7891 46.4859 16.9713L30.9554 23.5052C30.5225 23.6873 30.0238 23.484 29.8417 23.0511Z" fill="white"/>
</g>
<g clip-path="url(#clip3_3913_178621)">
<path d="M34.1723 25.0969C33.91 24.4733 34.2028 23.7551 34.8264 23.4927L44.1821 19.5566C44.8057 19.2943 45.524 19.5871 45.7863 20.2107C46.0487 20.8343 45.7558 21.5525 45.1322 21.8149L35.7765 25.751C35.1529 26.0134 34.4347 25.7205 34.1723 25.0969Z" fill="#FF6E4B"/>
<g filter="url(#filter3_i_3913_178621)">
<path d="M34.2734 27.143C33.9735 26.4303 34.3082 25.6095 35.0209 25.3096L45.6671 20.8306C46.3798 20.5308 47.2006 20.8654 47.5004 21.5781C47.8003 22.2908 47.4656 23.1117 46.7529 23.4115L36.1067 27.8905C35.394 28.1904 34.5732 27.8557 34.2734 27.143Z" fill="#FEC06D"/>
</g>
<path d="M33.0815 22.5154C32.8191 21.8918 33.112 21.1735 33.7356 20.9112L43.0913 16.9751C43.7149 16.7127 44.4331 17.0056 44.6955 17.6292C44.9579 18.2528 44.665 18.971 44.0414 19.2334L34.6857 23.1695C34.0621 23.4318 33.3439 23.139 33.0815 22.5154Z" fill="#977A60"/>
<mask id="mask1_3913_178621" style="mask-type:alpha" maskUnits="userSpaceOnUse" x="32" y="18" width="15" height="8">
<path d="M46.2844 19.5998C46.4008 19.8764 46.2709 20.1949 45.9943 20.3113L34.0914 25.319C33.8149 25.4354 33.4964 25.3055 33.38 25.0289L32.987 24.0948C32.8706 23.8182 33.0005 23.4997 33.2771 23.3833L45.18 18.3756C45.4565 18.2592 45.7751 18.3891 45.8914 18.6657L46.2844 19.5998Z" fill="#B8D12B"/>
</mask>
<g mask="url(#mask1_3913_178621)">
<path fill-rule="evenodd" clip-rule="evenodd" d="M32.7169 23.4329C32.3046 22.4529 32.6203 21.3851 33.4221 21.0477C33.8362 20.8736 34.2988 20.9282 34.7063 21.1568C34.8736 21.2507 35.1311 21.1422 35.1809 20.9569C35.3023 20.5053 35.5868 20.1359 36.0012 19.9616C36.4153 19.7873 36.878 19.8421 37.2855 20.0708C37.4528 20.1646 37.7103 20.0563 37.7601 19.8711C37.8815 19.4197 38.166 19.0505 38.5802 18.8762C38.9942 18.702 39.4569 18.7567 39.8643 18.9853C40.0317 19.0791 40.2892 18.9707 40.339 18.7854C40.4603 18.3338 40.7449 17.9644 41.1592 17.7901C41.5188 17.6388 41.9151 17.6601 42.28 17.8181C42.4231 17.88 42.6017 17.8049 42.6576 17.6593C42.7999 17.2884 43.0616 16.9906 43.4209 16.8394C44.2226 16.5021 45.2068 17.0231 45.6191 18.003C46.0314 18.983 45.7156 20.0508 44.9139 20.3882C44.5543 20.5394 44.158 20.5181 43.7931 20.3602C43.65 20.2982 43.4714 20.3733 43.4155 20.5189C43.2732 20.8898 43.0115 21.1876 42.6522 21.3388C42.2382 21.513 41.7755 21.4583 41.3681 21.2297C41.2008 21.1359 40.9432 21.2443 40.8935 21.4296C40.7721 21.8812 40.4876 22.2506 40.0732 22.4249C39.6591 22.5992 39.1963 22.5444 38.7888 22.3158C38.6216 22.2219 38.3641 22.3302 38.3143 22.5155C38.1929 22.9668 37.9084 23.336 37.4942 23.5103C37.0801 23.6845 36.6175 23.6298 36.21 23.4012C36.0427 23.3074 35.7852 23.4158 35.7354 23.6011C35.614 24.0527 35.3295 24.4221 34.9151 24.5965C34.1134 24.9338 33.1292 24.4128 32.7169 23.4329Z" fill="#B8D12B"/>
</g>
<g filter="url(#filter4_i_3913_178621)">
<path fill-rule="evenodd" clip-rule="evenodd" d="M31.8917 16.0749C32.538 14.9051 33.61 13.7519 35.3215 13.0319C36.4446 12.5594 37.4685 12.3005 38.392 12.1988C41.2363 11.4921 44.2502 12.9417 45.4222 15.7276C45.5504 16.0323 45.4073 16.3832 45.1027 16.5114L32.3337 21.8835C32.029 22.0117 31.6781 21.8686 31.55 21.5639C30.8365 19.8681 30.9542 18.0307 31.718 16.5053C31.7534 16.3659 31.8104 16.222 31.8917 16.0749Z" fill="#FEC06D"/>
</g>
<path d="M40.088 20.5187L34.1376 23.0221C34.1137 23.0322 34.1151 23.0665 34.1398 23.0746L37.0999 24.0409C37.1107 24.0444 37.1225 24.0411 37.1298 24.0325L40.1201 20.5628C40.1394 20.5404 40.1153 20.5072 40.088 20.5187Z" fill="#FDDA86"/>
<path d="M34.1722 16.0221C34.1701 16.2214 34.0117 16.3814 33.8184 16.3793C33.6251 16.3773 33.4701 16.214 33.4722 16.0147C33.4743 15.8154 33.6362 15.3273 33.8295 15.3294C34.0228 15.3314 34.1743 15.8228 34.1722 16.0221Z" fill="#FDDA86"/>
<path d="M33.3724 18.6363C33.3703 18.8357 33.2119 18.9956 33.0186 18.9936C32.8253 18.9915 32.6703 18.8283 32.6724 18.629C32.6745 18.4296 32.8364 17.9416 33.0297 17.9436C33.223 17.9457 33.3745 18.437 33.3724 18.6363Z" fill="#FDDA86"/>
<path d="M39.7416 13.3358C39.9004 13.4563 39.9344 13.6788 39.8176 13.8328C39.7008 13.9868 39.4773 14.014 39.3185 13.8935C39.1597 13.773 38.8642 13.3522 38.9811 13.1982C39.0979 13.0442 39.5828 13.2153 39.7416 13.3358Z" fill="#FDDA86"/>
<path d="M42.1752 14.5926C42.334 14.7131 42.368 14.9356 42.2512 15.0896C42.1344 15.2436 41.9109 15.2708 41.7521 15.1503C41.5933 15.0299 41.2978 14.609 41.4147 14.455C41.5315 14.301 42.0163 14.4722 42.1752 14.5926Z" fill="#FDDA86"/>
<path d="M36.2699 15.6562C36.3472 15.8399 36.2654 16.0496 36.0872 16.1246C35.909 16.1995 35.7019 16.1114 35.6246 15.9276C35.5473 15.7439 35.5019 15.2317 35.68 15.1568C35.8582 15.0818 36.1926 15.4724 36.2699 15.6562Z" fill="#FDDA86"/>
<path d="M35.6087 18.5932C35.686 18.7769 35.6043 18.9866 35.4261 19.0616C35.2479 19.1366 35.0408 19.0484 34.9635 18.8646C34.8862 18.6809 34.8407 18.1687 35.0189 18.0938C35.1971 18.0188 35.5314 18.4094 35.6087 18.5932Z" fill="#FDDA86"/>
<path d="M38.1878 17.5068C38.2651 17.6905 38.1834 17.9002 38.0052 17.9752C37.827 18.0501 37.6199 17.9619 37.5426 17.7782C37.4653 17.5945 37.4198 17.0823 37.598 17.0073C37.7762 16.9324 38.1105 17.323 38.1878 17.5068Z" fill="#FDDA86"/>
<path d="M38.2074 14.8417C38.2847 15.0255 38.2029 15.2352 38.0247 15.3101C37.8465 15.3851 37.6394 15.2969 37.5621 15.1132C37.4848 14.9294 37.4394 14.4173 37.6175 14.3423C37.7957 14.2673 38.1301 14.658 38.2074 14.8417Z" fill="#FDDA86"/>
<path d="M40.7738 16.4218C40.8511 16.6055 40.7693 16.8153 40.5911 16.8902C40.4129 16.9652 40.2058 16.877 40.1285 16.6932C40.0512 16.5095 40.0058 15.9973 40.1839 15.9224C40.3621 15.8474 40.6965 16.238 40.7738 16.4218Z" fill="#FDDA86"/>
</g>
</g>
<path d="M6.92898 30.2498C7.28803 29.3657 8.29585 28.94 9.18 29.2991L16.0309 32.0812C16.915 32.4402 17.3407 33.4481 16.9817 34.3322L16.7016 35.0218C16.3426 35.9059 15.3348 36.3316 14.4506 35.9726L7.59972 33.1904C6.71557 32.8314 6.28989 31.8235 6.64895 30.9394L6.92898 30.2498Z" fill="white"/>
<path fill-rule="evenodd" clip-rule="evenodd" d="M17.7425 18.3387C17.7818 18.357 17.8207 18.3757 17.8593 18.3949C18.4061 18.0721 19.0668 17.9932 19.6707 18.2384C20.5908 18.6121 21.0808 19.6172 20.9057 20.6294C20.9617 20.6464 21.0174 20.6661 21.0726 20.6885C22.0928 21.1028 22.5842 22.2933 22.2267 23.4089C22.3078 23.4301 22.3884 23.4568 22.4679 23.4891C23.5425 23.9255 24.0304 25.2229 23.5576 26.3871C23.0849 27.5512 21.8305 28.1411 20.7559 27.7047C20.4279 27.5715 20.1546 27.3581 19.9465 27.0927C18.4065 29.3181 15.538 30.2792 12.997 29.2473C10.4795 28.2249 9.09551 25.5761 9.50537 22.9315C9.17445 22.9746 8.83344 22.9364 8.50882 22.8046C7.43425 22.3682 6.94638 21.0707 7.41913 19.9066C7.88724 18.7539 9.12171 18.1642 10.1891 18.5764C10.1978 18.553 10.2069 18.5296 10.2164 18.5063C10.6891 17.3422 11.9435 16.7523 13.0181 17.1886C13.368 17.3308 13.6557 17.5642 13.8683 17.8546C14.4199 16.894 15.5457 16.4421 16.5229 16.839C17.1673 17.1007 17.6008 17.6721 17.7425 18.3387Z" fill="white"/>
<g filter="url(#filter5_f_3913_178621)">
<path fill-rule="evenodd" clip-rule="evenodd" d="M18.2639 22.013C18.6978 21.7968 19.219 21.7609 19.7035 21.9576C20.4308 22.253 20.8518 22.9818 20.7895 23.7249C21.657 24.1027 22.0694 25.1058 21.7113 25.9874C21.6948 26.0282 21.6769 26.068 21.6576 26.1068C21.7053 26.1216 21.7528 26.1385 21.7998 26.1577C22.6953 26.5213 23.1264 27.542 22.7628 28.4375C22.3991 29.333 21.3784 29.7641 20.4829 29.4005C20.1753 29.2755 19.9224 29.073 19.7378 28.8246C18.542 30.4993 16.3142 31.2008 14.3242 30.3926C12.3915 29.6078 11.2908 27.6458 11.5133 25.67C11.3522 25.6535 11.1907 25.6141 11.0331 25.5501C10.1376 25.1864 9.70648 24.1657 10.0701 23.2702C10.4088 22.4363 11.3173 22.0051 12.1639 22.2435L12.173 22.2204C12.5367 21.325 13.5574 20.8938 14.4529 21.2575C14.692 21.3546 14.8979 21.4985 15.0645 21.6744C15.4888 20.9142 16.4229 20.5719 17.2502 20.9078C17.7563 21.1134 18.1141 21.5289 18.2639 22.013Z" fill="white"/>
</g>
<path d="M6.09071 22.0172C6.33024 21.4274 7.00256 21.1434 7.59238 21.3829L22.6433 27.4951C23.2331 27.7346 23.5171 28.4069 23.2776 28.9968C21.4079 33.6007 16.16 35.8173 11.5561 33.9476L11.0416 33.7387C6.43763 31.869 4.22106 26.6211 6.09071 22.0172Z" fill="white"/>
<path d="M8.227 30.6706C8.44519 30.1333 9.05763 29.8746 9.59491 30.0928L15.1077 32.3316C15.645 32.5497 15.9036 33.1622 15.6854 33.6995C15.4673 34.2368 14.8548 34.4954 14.3175 34.2772L8.80477 32.0385C8.26748 31.8203 8.00881 31.2079 8.227 30.6706Z" fill="#FF7D5F"/>
<path fill-rule="evenodd" clip-rule="evenodd" d="M14.0055 19.2269C14.4285 18.4633 15.3649 18.1188 16.1939 18.4554C16.7076 18.6641 17.0685 19.0889 17.2142 19.5823C17.3947 19.6564 17.5683 19.7404 17.7344 19.8334C18.1275 19.6902 18.573 19.6867 18.9912 19.8566C19.7173 20.1514 20.1381 20.8784 20.0774 21.6202C20.8876 21.9694 21.3035 22.8627 21.0702 23.6966L21.0941 23.7061C21.9896 24.0698 22.4207 25.0905 22.057 25.986C21.6934 26.8814 20.6727 27.3126 19.7772 26.9489C19.5974 26.8759 19.4363 26.7764 19.2966 26.6567C18.0631 28.429 15.727 29.1778 13.6422 28.3312C11.5693 27.4894 10.4179 25.3434 10.7505 23.2246C10.4944 23.2416 10.2306 23.2024 9.97684 23.0994C9.08136 22.7357 8.65023 21.715 9.01389 20.8195C9.35172 19.9876 10.2566 19.5565 11.1014 19.791L11.1102 19.7689C11.4738 18.8734 12.4946 18.4423 13.39 18.8059C13.631 18.9038 13.8383 19.0492 14.0055 19.2269Z" fill="white"/>
<g filter="url(#filter6_f_3913_178621)">
<path fill-rule="evenodd" clip-rule="evenodd" d="M19.0176 22.525C18.6081 22.3587 18.1659 22.4002 17.8078 22.6C17.7545 22.567 17.7001 22.5353 17.6446 22.5049C17.4984 22.2069 17.2464 21.9596 16.9147 21.8249C16.3876 21.6108 15.8062 21.741 15.4199 22.1101C15.3742 22.1169 15.3286 22.1246 15.2832 22.1331C15.1544 22.0039 14.9981 21.8978 14.8184 21.8249C14.102 21.5339 13.2854 21.8788 12.9945 22.5952C12.9858 22.6167 12.9776 22.6384 12.97 22.6601C12.8915 22.6074 12.8065 22.562 12.7155 22.525C11.9991 22.2341 11.1825 22.579 10.8916 23.2954C10.6007 24.0117 10.9456 24.8283 11.662 25.1192C11.8411 25.192 12.0264 25.225 12.2083 25.2223C11.8447 26.9894 12.7218 28.7913 14.3795 29.4645C16.1231 30.1726 18.1182 29.3834 19.0371 27.6944C19.1878 27.9451 19.418 28.1509 19.7099 28.2695C20.4263 28.5604 21.2428 28.2155 21.5338 27.4991C21.8123 26.8132 21.508 26.0354 20.8527 25.7151C21.1193 25.0071 20.7741 24.2116 20.069 23.9253C20.0101 23.9013 19.9505 23.8817 19.8905 23.8662C19.9084 23.2974 19.5757 22.7517 19.0176 22.525Z" fill="#E5E5E5" fill-opacity="0.52"/>
</g>
<g filter="url(#filter7_i_3913_178621)">
<path d="M7.90963 22.5308C8.10786 22.0427 8.66426 21.8077 9.15239 22.0059L21.3288 26.9507C21.8169 27.1489 22.0519 27.7054 21.8537 28.1935C20.3064 32.0036 15.9633 33.838 12.1532 32.2907L12.0069 32.2313C8.19674 30.684 6.36233 26.341 7.90963 22.5308Z" fill="#FFC6A3"/>
</g>
<path d="M8.62793 47.0081C8.62793 44.8695 8.62793 43.8002 9.04412 42.9834C9.41022 42.2649 9.99438 41.6807 10.7129 41.3146C11.5297 40.8984 12.599 40.8984 14.7376 40.8984H21.5046C22.6271 40.8984 23.1883 40.8984 23.7032 41.0458C24.1593 41.1763 24.5871 41.3907 24.9646 41.6779C25.3909 42.0022 25.7269 42.4518 26.3988 43.3509L26.6716 43.716C27.3435 44.6151 27.6794 45.0647 28.1057 45.389C28.4832 45.6762 28.911 45.8906 29.3671 46.0211C29.882 46.1685 30.4433 46.1685 31.5657 46.1685H41.0196H41.7183C43.8569 46.1685 44.9261 46.1685 45.743 46.5847C46.4615 46.9507 47.0456 47.5349 47.4117 48.2534C47.8279 49.0702 47.8279 50.1395 47.8279 52.2781V65.2388C47.8279 67.3774 47.8279 68.4467 47.4117 69.2635C47.0456 69.982 46.4615 70.5661 45.743 70.9322C44.9261 71.3484 43.8569 71.3484 41.7183 71.3484H14.7376C12.599 71.3484 11.5297 71.3484 10.7129 70.9322C9.99438 70.5661 9.41022 69.982 9.04412 69.2635C8.62793 68.4467 8.62793 67.3774 8.62793 65.2388L8.62793 47.0081Z" fill="#F8F891"/>
</g>
</g>
<defs>
<filter id="filter0_d_3913_178621" x="16.1832" y="30.4201" width="26.0057" height="23.017" filterUnits="userSpaceOnUse" color-interpolation-filters="sRGB">
<feFlood flood-opacity="0" result="BackgroundImageFix"/>
<feColorMatrix in="SourceAlpha" type="matrix" values="0 0 0 0 0 0 0 0 0 0 0 0 0 0 0 0 0 0 127 0" result="hardAlpha"/>
<feOffset dy="0.256964"/>
<feGaussianBlur stdDeviation="0.14133"/>
<feComposite in2="hardAlpha" operator="out"/>
<feColorMatrix type="matrix" values="0 0 0 0 0.712793 0 0 0 0 0.335462 0 0 0 0 0.254605 0 0 0 0.4 0"/>
<feBlend mode="normal" in2="BackgroundImageFix" result="effect1_dropShadow_3913_178621"/>
<feBlend mode="normal" in="SourceGraphic" in2="effect1_dropShadow_3913_178621" result="shape"/>
</filter>
<filter id="filter1_i_3913_178621" x="21.8584" y="36.1841" width="17.5391" height="14.8975" filterUnits="userSpaceOnUse" color-interpolation-filters="sRGB">
<feFlood flood-opacity="0" result="BackgroundImageFix"/>
<feBlend mode="normal" in="SourceGraphic" in2="BackgroundImageFix" result="shape"/>
<feColorMatrix in="SourceAlpha" type="matrix" values="0 0 0 0 0 0 0 0 0 0 0 0 0 0 0 0 0 0 127 0" result="hardAlpha"/>
<feOffset dx="-4.15704" dy="0.77598"/>
<feGaussianBlur stdDeviation="0.110854"/>
<feComposite in2="hardAlpha" operator="arithmetic" k2="-1" k3="1"/>
<feColorMatrix type="matrix" values="0 0 0 0 0.996078 0 0 0 0 0.752941 0 0 0 0 0.427451 0 0 0 0.8 0"/>
<feBlend mode="normal" in2="shape" result="effect1_innerShadow_3913_178621"/>
</filter>
<filter id="filter2_d_3913_178621" x="23.4302" y="4.19083" width="29.8192" height="29.8187" filterUnits="userSpaceOnUse" color-interpolation-filters="sRGB">
<feFlood flood-opacity="0" result="BackgroundImageFix"/>
<feColorMatrix in="SourceAlpha" type="matrix" values="0 0 0 0 0 0 0 0 0 0 0 0 0 0 0 0 0 0 127 0" result="hardAlpha"/>
<feOffset dy="0.220559"/>
<feGaussianBlur stdDeviation="0.121308"/>
<feComposite in2="hardAlpha" operator="out"/>
<feColorMatrix type="matrix" values="0 0 0 0 0.712793 0 0 0 0 0.335462 0 0 0 0 0.254605 0 0 0 0.4 0"/>
<feBlend mode="normal" in2="BackgroundImageFix" result="effect1_dropShadow_3913_178621"/>
<feBlend mode="normal" in="SourceGraphic" in2="effect1_dropShadow_3913_178621" result="shape"/>
</filter>
<filter id="filter3_i_3913_178621" x="34.0511" y="20.6087" width="13.5593" height="7.39181" filterUnits="userSpaceOnUse" color-interpolation-filters="sRGB">
<feFlood flood-opacity="0" result="BackgroundImageFix"/>
<feBlend mode="normal" in="SourceGraphic" in2="BackgroundImageFix" result="shape"/>
<feColorMatrix in="SourceAlpha" type="matrix" values="0 0 0 0 0 0 0 0 0 0 0 0 0 0 0 0 0 0 127 0" result="hardAlpha"/>
<feOffset dx="-1.2883" dy="-0.420097"/>
<feGaussianBlur stdDeviation="0.0560129"/>
<feComposite in2="hardAlpha" operator="arithmetic" k2="-1" k3="1"/>
<feColorMatrix type="matrix" values="0 0 0 0 0.996078 0 0 0 0 0.713726 0 0 0 0 0.333333 0 0 0 1 0"/>
<feBlend mode="normal" in2="shape" result="effect1_innerShadow_3913_178621"/>
</filter>
<filter id="filter4_i_3913_178621" x="30.9632" y="11.9935" width="14.5056" height="9.93719" filterUnits="userSpaceOnUse" color-interpolation-filters="sRGB">
<feFlood flood-opacity="0" result="BackgroundImageFix"/>
<feBlend mode="normal" in="SourceGraphic" in2="BackgroundImageFix" result="shape"/>
<feColorMatrix in="SourceAlpha" type="matrix" values="0 0 0 0 0 0 0 0 0 0 0 0 0 0 0 0 0 0 127 0" result="hardAlpha"/>
<feOffset dx="-1.70839" dy="-0.0280064"/>
<feGaussianBlur stdDeviation="0.0560129"/>
<feComposite in2="hardAlpha" operator="arithmetic" k2="-1" k3="1"/>
<feColorMatrix type="matrix" values="0 0 0 0 0.996842 0 0 0 0 0.712567 0 0 0 0 0.332005 0 0 0 1 0"/>
<feBlend mode="normal" in2="shape" result="effect1_innerShadow_3913_178621"/>
</filter>
<filter id="filter5_f_3913_178621" x="9.73197" y="20.5694" width="13.3691" height="10.3681" filterUnits="userSpaceOnUse" color-interpolation-filters="sRGB">
<feFlood flood-opacity="0" result="BackgroundImageFix"/>
<feBlend mode="normal" in="SourceGraphic" in2="BackgroundImageFix" result="shape"/>
<feGaussianBlur stdDeviation="0.10472" result="effect1_foregroundBlur_3913_178621"/>
</filter>
<filter id="filter6_f_3913_178621" x="10.6175" y="21.5511" width="11.1899" height="8.34369" filterUnits="userSpaceOnUse" color-interpolation-filters="sRGB">
<feFlood flood-opacity="0" result="BackgroundImageFix"/>
<feBlend mode="normal" in="SourceGraphic" in2="BackgroundImageFix" result="shape"/>
<feGaussianBlur stdDeviation="0.0853134" result="effect1_foregroundBlur_3913_178621"/>
</filter>
<filter id="filter7_i_3913_178621" x="7.18972" y="21.7649" width="14.7341" height="11.0749" filterUnits="userSpaceOnUse" color-interpolation-filters="sRGB">
<feFlood flood-opacity="0" result="BackgroundImageFix"/>
<feBlend mode="normal" in="SourceGraphic" in2="BackgroundImageFix" result="shape"/>
<feColorMatrix in="SourceAlpha" type="matrix" values="0 0 0 0 0 0 0 0 0 0 0 0 0 0 0 0 0 0 127 0" result="hardAlpha"/>
<feOffset dx="-2.81534" dy="-0.895791"/>
<feGaussianBlur stdDeviation="0.0853134"/>
<feComposite in2="hardAlpha" operator="arithmetic" k2="-1" k3="1"/>
<feColorMatrix type="matrix" values="0 0 0 0 1 0 0 0 0 0.568627 0 0 0 0 0.466667 0 0 0 0.4 0"/>
<feBlend mode="normal" in2="shape" result="effect1_innerShadow_3913_178621"/>
</filter>
<linearGradient id="paint0_linear_3913_178621" x1="14.0539" y1="11.8486" x2="14.0539" y2="100.005" gradientUnits="userSpaceOnUse">
<stop stop-color="#F8F891"/>
<stop offset="0.37" stop-color="#737373"/>
</linearGradient>
<clipPath id="clip0_3913_178621">
<rect width="56" height="56" rx="12" fill="white"/>
</clipPath>
<clipPath id="clip1_3913_178621">
<rect width="56" height="47.95" fill="white" transform="translate(-0.125 8.34961)"/>
</clipPath>
<clipPath id="clip2_3913_178621">
<rect width="22.4" height="22.4" fill="white" transform="translate(23.6729 12.8994) rotate(-22.8173)"/>
</clipPath>
<clipPath id="clip3_3913_178621">
<rect width="17.85" height="17.85" fill="white" transform="translate(26.8203 13.9492) rotate(-22.8173)"/>
</clipPath>
</defs>
</svg>
