<svg width="24" height="24" viewBox="0 0 24 24" fill="none" xmlns="http://www.w3.org/2000/svg">
<mask id="mask0_1844_21471" style="mask-type:alpha" maskUnits="userSpaceOnUse" x="0" y="0" width="24" height="24">
<rect width="24" height="24" fill="#D9D9D9"/>
</mask>
<g mask="url(#mask0_1844_21471)">
<path fill-rule="evenodd" clip-rule="evenodd" d="M16 10.5C16 12.9853 13.9853 15 11.5 15C9.01472 15 7 12.9853 7 10.5C7 8.01472 9.01472 6 11.5 6C13.9853 6 16 8.01472 16 10.5ZM14.7286 16.1428C13.7774 16.6882 12.6751 17 11.5 17C7.91015 17 5 14.0899 5 10.5C5 6.91015 7.91015 4 11.5 4C15.0899 4 18 6.91015 18 10.5C18 12.1896 17.3554 13.7285 16.2987 14.8844L19.7071 18.2929C20.0976 18.6834 20.0976 19.3166 19.7071 19.7071C19.3166 20.0976 18.6834 20.0976 18.2929 19.7071L14.7286 16.1428Z" fill="#D6D6D6"/>
</g>
</svg>
