<svg width="24" height="24" viewBox="0 0 24 24" fill="none" xmlns="http://www.w3.org/2000/svg">
<path fill-rule="evenodd" clip-rule="evenodd" d="M12.4179 3.78576C13.7058 2.14287 15.4959 2.13477 15.4959 2.13477C15.4959 2.13477 15.7621 3.67947 14.483 5.16776C13.1169 6.75673 11.5644 6.49678 11.5644 6.49678C11.5644 6.49678 11.273 5.24724 12.4179 3.78607V3.78576Z" fill="#111111"/>
<path fill-rule="evenodd" clip-rule="evenodd" d="M11.7272 7.57968C12.3898 7.57968 13.6191 6.69824 15.2196 6.69824C17.9743 6.69824 19.058 8.59577 19.058 8.59577C19.058 8.59577 16.9385 9.6449 16.9385 12.1904C16.9385 15.062 19.5789 16.0516 19.5789 16.0516C19.5789 16.0516 17.7331 21.0809 15.2402 21.0809C14.095 21.0809 13.2051 20.3338 11.9983 20.3338C10.7916 20.3338 9.54885 21.1086 8.75425 21.1086C6.47765 21.109 3.60156 16.3383 3.60156 12.5034C3.60156 8.6684 6.03592 6.75092 8.31928 6.75092C9.80352 6.75092 10.9555 7.57968 11.7272 7.57968Z" fill="#111111"/>
</svg>
