<svg width="26" height="26" viewBox="0 0 26 26" fill="none" xmlns="http://www.w3.org/2000/svg">
<path fill-rule="evenodd" clip-rule="evenodd" d="M15.8873 8.00043C15.198 6.53104 13.3471 6.04331 12.0232 6.98219L5.65942 11.4952C4.62397 12.2295 4.26884 13.6034 4.81873 14.7475L5.23017 15.6036C5.80537 16.8003 7.18885 17.3727 8.44142 16.9321L10.6574 16.1526L12.1401 21.7899C12.3072 22.4252 12.9754 22.788 13.5992 22.5821L15.1146 22.082C15.7679 21.8665 16.0826 21.1256 15.7843 20.5057L13.2498 15.2407L15.7126 14.3744C17.1667 13.8629 17.8607 12.2073 17.2061 10.8118L15.8873 8.00043Z" fill="#A6A6A6"/>
<path d="M13.6008 3.8237C14.5019 2.93524 16.0079 3.186 16.5724 4.31852L20.5556 12.3084C21.1302 13.4612 20.388 14.8351 19.1089 14.9864L17.8817 15.1315C17.1055 15.2233 16.3547 14.8203 16.0023 14.1228L12.3426 6.87885C11.978 6.15712 12.1212 5.28252 12.697 4.7148L13.6008 3.8237Z" fill="#A6A6A6" stroke="white" stroke-width="1.48688"/>
</svg>
