<svg width="44" height="44" viewBox="0 0 44 44" fill="none" xmlns="http://www.w3.org/2000/svg">
<path d="M10 31.0001C10 29.4087 10.6321 27.8826 11.7574 26.7574C12.8826 25.6321 14.4088 25 16.0001 25H28.0002C29.5915 25 31.1177 25.6321 32.2429 26.7574C33.3681 27.8826 34.0003 29.4087 34.0003 31.0001C34.0003 31.7957 33.6842 32.5588 33.1216 33.1214C32.559 33.684 31.7959 34.0001 31.0002 34.0001H13C12.2044 34.0001 11.4413 33.684 10.8787 33.1214C10.3161 32.5588 10 31.7957 10 31.0001Z" fill="#D6D6D6" stroke="#D6D6D6" stroke-width="2.63043" stroke-linejoin="round"/>
<path d="M22 19.0001C24.4854 19.0001 26.5001 16.9854 26.5001 14.5C26.5001 12.0147 24.4854 10 22 10C19.5147 10 17.5 12.0147 17.5 14.5C17.5 16.9854 19.5147 19.0001 22 19.0001Z" fill="#D6D6D6" stroke="#D6D6D6" stroke-width="2.63043"/>
</svg>
