<svg width="46" height="46" viewBox="0 0 46 46" fill="none" xmlns="http://www.w3.org/2000/svg">
<path d="M12 31.091C12 29.6443 12.5747 28.2569 13.5976 27.234C14.6206 26.211 16.008 25.6364 17.4546 25.6364H28.3638C29.8105 25.6364 31.1979 26.211 32.2208 27.234C33.2437 28.2569 33.8184 29.6443 33.8184 31.091C33.8184 31.8143 33.5311 32.508 33.0196 33.0195C32.5081 33.5309 31.8144 33.8183 31.0911 33.8183H14.7273C14.004 33.8183 13.3103 33.5309 12.7988 33.0195C12.2873 32.508 12 31.8143 12 31.091Z" fill="#FAFAFA" stroke="#D6D6D6" stroke-width="2.3913" stroke-linejoin="round"/>
<path d="M22.9091 20.1819C25.1685 20.1819 27.0001 18.3503 27.0001 16.091C27.0001 13.8316 25.1685 12 22.9091 12C20.6498 12 18.8182 13.8316 18.8182 16.091C18.8182 18.3503 20.6498 20.1819 22.9091 20.1819Z" fill="#FAFAFA" stroke="#D6D6D6" stroke-width="2.3913"/>
</svg>
