<svg width="28" height="28" viewBox="0 0 28 28" fill="none" xmlns="http://www.w3.org/2000/svg">
<path d="M14.0003 24.1677C15.0961 24.1677 16.1211 24.0359 16.8909 23.7657C17.2746 23.631 17.6257 23.4513 17.8889 23.2101C18.1597 22.962 18.354 22.6305 18.354 22.2253C18.354 21.8273 18.1666 21.4882 17.9098 21.2239C17.6552 20.9619 17.3111 20.7488 16.9248 20.5807C16.1508 20.2438 15.1164 20.0479 14.0003 20.0479C12.8841 20.0479 11.8497 20.2438 11.0757 20.5807C10.6895 20.7488 10.3454 20.9619 10.0908 21.2239C9.83388 21.4882 9.64648 21.8273 9.64648 22.2253C9.64648 22.6305 9.84078 22.962 10.1116 23.2101C10.3748 23.4513 10.7259 23.631 11.1096 23.7657C11.8794 24.0359 12.9044 24.1677 14.0003 24.1677Z" fill="#EBEEF4" stroke="#252423"/>
<rect x="15.7018" y="10.134" width="8.41794" height="1.88068" rx="0.94034" transform="rotate(-51.6142 15.7018 10.134)" fill="#D9D9D9" stroke="#252423" stroke-width="0.8"/>
<rect x="17.2682" y="11.3537" width="8.41794" height="1.88068" rx="0.94034" transform="rotate(-51.6142 17.2682 11.3537)" fill="#D9D9D9" stroke="#252423" stroke-width="0.8"/>
<mask id="path-4-outside-1_9417_26710" maskUnits="userSpaceOnUse" x="4.68701" y="6.0448" width="19" height="15" fill="black">
<rect fill="white" x="4.68701" y="6.0448" width="19" height="15"/>
<path fill-rule="evenodd" clip-rule="evenodd" d="M10.1809 14.1205C9.71356 14.6729 9.01523 15.0235 8.23499 15.0235C6.82778 15.0235 5.68701 13.8828 5.68701 12.4756C5.68701 11.2767 6.51495 10.2713 7.63022 9.99979C7.92571 8.9196 8.91421 8.12571 10.0881 8.12571C10.2376 8.12571 10.3841 8.13859 10.5266 8.16329C10.9849 7.48827 11.7587 7.0448 12.6361 7.0448C13.2283 7.0448 13.7734 7.24686 14.206 7.5858C14.6387 7.24686 15.1838 7.0448 15.776 7.0448C16.6534 7.0448 17.4272 7.48827 17.8855 8.16329C18.028 8.13859 18.1744 8.12571 18.3239 8.12571C19.5535 8.12571 20.5796 8.99659 20.8191 10.1551C21.7004 10.5561 22.313 11.4443 22.313 12.4756C22.313 13.8828 21.1723 15.0235 19.7651 15.0235C19.4468 15.0235 19.1421 14.9652 18.8612 14.8586C18.8632 14.9131 18.8642 14.9678 18.8642 15.0227C18.8642 17.4462 16.8996 19.4108 14.4762 19.4108C12.0527 19.4108 10.0881 17.4462 10.0881 15.0227C10.0881 14.7135 10.1201 14.4117 10.1809 14.1205Z"/>
</mask>
<g filter="url(#filter0_i_9417_26710)">
<path fill-rule="evenodd" clip-rule="evenodd" d="M10.1809 14.1205C9.71356 14.6729 9.01523 15.0235 8.23499 15.0235C6.82778 15.0235 5.68701 13.8828 5.68701 12.4756C5.68701 11.2767 6.51495 10.2713 7.63022 9.99979C7.92571 8.9196 8.91421 8.12571 10.0881 8.12571C10.2376 8.12571 10.3841 8.13859 10.5266 8.16329C10.9849 7.48827 11.7587 7.0448 12.6361 7.0448C13.2283 7.0448 13.7734 7.24686 14.206 7.5858C14.6387 7.24686 15.1838 7.0448 15.776 7.0448C16.6534 7.0448 17.4272 7.48827 17.8855 8.16329C18.028 8.13859 18.1744 8.12571 18.3239 8.12571C19.5535 8.12571 20.5796 8.99659 20.8191 10.1551C21.7004 10.5561 22.313 11.4443 22.313 12.4756C22.313 13.8828 21.1723 15.0235 19.7651 15.0235C19.4468 15.0235 19.1421 14.9652 18.8612 14.8586C18.8632 14.9131 18.8642 14.9678 18.8642 15.0227C18.8642 17.4462 16.8996 19.4108 14.4762 19.4108C12.0527 19.4108 10.0881 17.4462 10.0881 15.0227C10.0881 14.7135 10.1201 14.4117 10.1809 14.1205Z" fill="white"/>
</g>
<path d="M10.1809 14.1205L11.1598 14.3251L9.41756 13.4745L10.1809 14.1205ZM7.63022 9.99979L7.86674 10.9714L8.4393 10.832L8.59479 10.2636L7.63022 9.99979ZM10.5266 8.16329L10.3557 9.14858L10.9914 9.25884L11.3539 8.72501L10.5266 8.16329ZM14.206 7.5858L13.5894 8.37302L14.206 8.85609L14.8227 8.37302L14.206 7.5858ZM17.8855 8.16329L17.0582 8.72501L17.4206 9.25884L18.0564 9.14858L17.8855 8.16329ZM20.8191 10.1551L19.8398 10.3576L19.9427 10.855L20.405 11.0654L20.8191 10.1551ZM18.8612 14.8586L19.216 13.9236L17.8065 13.3887L17.8619 14.8953L18.8612 14.8586ZM9.41756 13.4745C9.13206 13.812 8.70874 14.0235 8.23499 14.0235V16.0235C9.32173 16.0235 10.2951 15.5337 10.9443 14.7664L9.41756 13.4745ZM8.23499 14.0235C7.38007 14.0235 6.68701 13.3305 6.68701 12.4756H4.68701C4.68701 14.4351 6.2755 16.0235 8.23499 16.0235V14.0235ZM6.68701 12.4756C6.68701 11.7486 7.18913 11.1364 7.86674 10.9714L7.39371 9.02816C5.84076 9.40619 4.68701 10.8049 4.68701 12.4756H6.68701ZM8.59479 10.2636C8.77442 9.60698 9.37636 9.12571 10.0881 9.12571V7.12571C8.45206 7.12571 7.077 8.23222 6.66566 9.73593L8.59479 10.2636ZM10.0881 9.12571C10.1801 9.12571 10.2694 9.13362 10.3557 9.14858L10.6974 7.178C10.4988 7.14355 10.2952 7.12571 10.0881 7.12571V9.12571ZM11.3539 8.72501C11.634 8.31242 12.104 8.0448 12.6361 8.0448V6.0448C11.4134 6.0448 10.3357 6.66412 9.69924 7.60156L11.3539 8.72501ZM12.6361 8.0448C12.9969 8.0448 13.3264 8.16703 13.5894 8.37302L14.8227 6.79858C14.2203 6.32668 13.4597 6.0448 12.6361 6.0448V8.0448ZM14.8227 8.37302C15.0857 8.16703 15.4152 8.0448 15.776 8.0448V6.0448C14.9524 6.0448 14.1918 6.32668 13.5894 6.79858L14.8227 8.37302ZM15.776 8.0448C16.3081 8.0448 16.7781 8.31242 17.0582 8.72501L18.7128 7.60157C18.0764 6.66412 16.9987 6.0448 15.776 6.0448V8.0448ZM18.0564 9.14858C18.1427 9.13362 18.232 9.12571 18.3239 9.12571V7.12571C18.1169 7.12571 17.9133 7.14355 17.7146 7.178L18.0564 9.14858ZM18.3239 9.12571C19.0697 9.12571 19.6944 9.65413 19.8398 10.3576L21.7984 9.95268C21.4648 8.33905 20.0372 7.12571 18.3239 7.12571V9.12571ZM20.405 11.0654C20.9426 11.31 21.313 11.8506 21.313 12.4756H23.313C23.313 11.038 22.4581 9.80222 21.2332 9.24493L20.405 11.0654ZM21.313 12.4756C21.313 13.3305 20.62 14.0235 19.7651 14.0235V16.0235C21.7246 16.0235 23.313 14.4351 23.313 12.4756H21.313ZM19.7651 14.0235C19.5699 14.0235 19.3853 13.9879 19.216 13.9236L18.5064 15.7935C18.8989 15.9425 19.3237 16.0235 19.7651 16.0235V14.0235ZM17.8619 14.8953C17.8634 14.9376 17.8642 14.9801 17.8642 15.0227H19.8642C19.8642 14.9555 19.863 14.8885 19.8605 14.8218L17.8619 14.8953ZM17.8642 15.0227C17.8642 16.8939 16.3473 18.4108 14.4762 18.4108V20.4108C17.4519 20.4108 19.8642 17.9985 19.8642 15.0227H17.8642ZM14.4762 18.4108C12.605 18.4108 11.0881 16.8939 11.0881 15.0227H9.08809C9.08809 17.9985 11.5004 20.4108 14.4762 20.4108V18.4108ZM11.0881 15.0227C11.0881 14.7826 11.1129 14.5494 11.1598 14.3251L9.2021 13.9159C9.12726 14.274 9.08809 14.6443 9.08809 15.0227H11.0881Z" fill="#252423" mask="url(#path-4-outside-1_9417_26710)"/>
<g filter="url(#filter1_i_9417_26710)">
<path d="M4.47217 14.1325C4.47217 13.6337 4.87653 13.2294 5.37534 13.2294H22.625C23.1238 13.2294 23.5281 13.6337 23.5281 14.1325C23.5281 19.1206 19.4845 23.1642 14.4965 23.1642H13.5038C8.51579 23.1642 4.47217 19.1206 4.47217 14.1325Z" fill="#EBEEF4"/>
</g>
<path d="M4.97217 14.1325C4.97217 13.9099 5.15267 13.7294 5.37534 13.7294H22.625C22.8476 13.7294 23.0281 13.9099 23.0281 14.1325C23.0281 18.8445 19.2084 22.6642 14.4965 22.6642H13.5038C8.79193 22.6642 4.97217 18.8445 4.97217 14.1325Z" stroke="#252423"/>
<path d="M14.9004 11.0719C14.9686 10.8765 15.3935 10.9677 15.5418 10.9893C15.8013 11.027 15.8608 11.1654 16.0306 11.3098" stroke="#181818" stroke-opacity="0.2" stroke-linecap="round"/>
<path d="M18.3324 9.94064C18.4629 9.77991 18.8317 10.01 18.9638 10.0806C19.195 10.2042 19.2041 10.3546 19.3147 10.548" stroke="#181818" stroke-opacity="0.2" stroke-linecap="round"/>
<path d="M13.4726 8.78463C13.603 8.6239 13.9718 8.85396 14.1039 8.92458C14.3352 9.0482 14.3442 9.19857 14.4549 9.39201" stroke="#181818" stroke-opacity="0.2" stroke-linecap="round"/>
<defs>
<filter id="filter0_i_9417_26710" x="4.28701" y="5.6448" width="19.026" height="14.766" filterUnits="userSpaceOnUse" color-interpolation-filters="sRGB">
<feFlood flood-opacity="0" result="BackgroundImageFix"/>
<feBlend mode="normal" in="SourceGraphic" in2="BackgroundImageFix" result="shape"/>
<feColorMatrix in="SourceAlpha" type="matrix" values="0 0 0 0 0 0 0 0 0 0 0 0 0 0 0 0 0 0 127 0" result="hardAlpha"/>
<feOffset dx="-3" dy="-1"/>
<feGaussianBlur stdDeviation="0.2"/>
<feComposite in2="hardAlpha" operator="arithmetic" k2="-1" k3="1"/>
<feColorMatrix type="matrix" values="0 0 0 0 0 0 0 0 0 0 0 0 0 0 0 0 0 0 0.07 0"/>
<feBlend mode="normal" in2="shape" result="effect1_innerShadow_9417_26710"/>
</filter>
<filter id="filter1_i_9417_26710" x="4.07217" y="12.8294" width="19.4562" height="10.3348" filterUnits="userSpaceOnUse" color-interpolation-filters="sRGB">
<feFlood flood-opacity="0" result="BackgroundImageFix"/>
<feBlend mode="normal" in="SourceGraphic" in2="BackgroundImageFix" result="shape"/>
<feColorMatrix in="SourceAlpha" type="matrix" values="0 0 0 0 0 0 0 0 0 0 0 0 0 0 0 0 0 0 127 0" result="hardAlpha"/>
<feOffset dx="-4" dy="-1"/>
<feGaussianBlur stdDeviation="0.2"/>
<feComposite in2="hardAlpha" operator="arithmetic" k2="-1" k3="1"/>
<feColorMatrix type="matrix" values="0 0 0 0 0 0 0 0 0 0 0 0 0 0 0 0 0 0 0.07 0"/>
<feBlend mode="normal" in2="shape" result="effect1_innerShadow_9417_26710"/>
</filter>
</defs>
</svg>
