<svg width="24" height="24" viewBox="0 0 24 24" fill="none" xmlns="http://www.w3.org/2000/svg">
<mask id="mask0_1844_24197" style="mask-type:alpha" maskUnits="userSpaceOnUse" x="0" y="0" width="24" height="24">
<rect width="24" height="24" fill="#D9D9D9"/>
</mask>
<g mask="url(#mask0_1844_24197)">
<path d="M5 20.5C4.45 20.5 3.97917 20.3042 3.5875 19.9125C3.19583 19.5208 3 19.05 3 18.5V4.5C3 3.95 3.19583 3.47917 3.5875 3.0875C3.97917 2.69583 4.45 2.5 5 2.5H13C13.2833 2.5 13.5208 2.59583 13.7125 2.7875C13.9042 2.97917 14 3.21667 14 3.5C14 3.78333 13.9042 4.02083 13.7125 4.2125C13.5208 4.40417 13.2833 4.5 13 4.5H5V18.5H19V10.5C19 10.2167 19.0958 9.97917 19.2875 9.7875C19.4792 9.59583 19.7167 9.5 20 9.5C20.2833 9.5 20.5208 9.59583 20.7125 9.7875C20.9042 9.97917 21 10.2167 21 10.5V18.5C21 19.05 20.8042 19.5208 20.4125 19.9125C20.0208 20.3042 19.55 20.5 19 20.5H5ZM17 6.5H16C15.7167 6.5 15.4792 6.40417 15.2875 6.2125C15.0958 6.02083 15 5.78333 15 5.5C15 5.21667 15.0958 4.97917 15.2875 4.7875C15.4792 4.59583 15.7167 4.5 16 4.5H17V3.5C17 3.21667 17.0958 2.97917 17.2875 2.7875C17.4792 2.59583 17.7167 2.5 18 2.5C18.2833 2.5 18.5208 2.59583 18.7125 2.7875C18.9042 2.97917 19 3.21667 19 3.5V4.5H20C20.2833 4.5 20.5208 4.59583 20.7125 4.7875C20.9042 4.97917 21 5.21667 21 5.5C21 5.78333 20.9042 6.02083 20.7125 6.2125C20.5208 6.40417 20.2833 6.5 20 6.5H19V7.5C19 7.78333 18.9042 8.02083 18.7125 8.2125C18.5208 8.40417 18.2833 8.5 18 8.5C17.7167 8.5 17.4792 8.40417 17.2875 8.2125C17.0958 8.02083 17 7.78333 17 7.5V6.5ZM11.25 15.5L9.4 13.025C9.3 12.8917 9.16667 12.825 9 12.825C8.83333 12.825 8.7 12.8917 8.6 13.025L6.6 15.7C6.46667 15.8667 6.45 16.0417 6.55 16.225C6.65 16.4083 6.8 16.5 7 16.5H17C17.2 16.5 17.35 16.4083 17.45 16.225C17.55 16.0417 17.5333 15.8667 17.4 15.7L14.65 12.025C14.55 11.8917 14.4167 11.825 14.25 11.825C14.0833 11.825 13.95 11.8917 13.85 12.025L11.25 15.5Z" fill="#737373"/>
</g>
</svg>
